<?xml version="1.0" standalone="no"?>
<!DOCTYPE svg PUBLIC "-//W3C//DTD SVG 1.1//EN" "http://www.w3.org/Graphics/SVG/1.1/DTD/svg11.dtd" >
<svg xmlns="http://www.w3.org/2000/svg">
<metadata></metadata>
<defs>
<font id="alefbold" horiz-adv-x="0" >
<font-face units-per-em="2048" ascent="1638" descent="-410" />
<missing-glyph horiz-adv-x="570" />
<glyph unicode="&#xfb01;" horiz-adv-x="1634" d="M1316 1547q34 0 64.5 -13t53 -35.5t35.5 -53t13 -64.5q0 -35 -13 -65t-35.5 -53t-53 -36t-64.5 -13q-35 0 -65 13t-53 36t-36 53t-13 65q0 34 13 64.5t36 53t53 35.5t65 13zM277 1078q0 105 17.5 181t59 124.5t111 72t173.5 23.5q81 0 176 -13t202 -35l-43 -190 q-90 17 -155.5 27.5t-115.5 10.5q-49 0 -79 -8.5t-46 -31.5t-21 -64t-5 -106v-29h902v-1040h-275v840h-627v-640h334v-200h-782v200h174v640h-174v200h174v38z" />
<glyph unicode="&#xfb02;" horiz-adv-x="1613" d="M277 1078q0 105 17.5 181t59 124.5t111 72t173.5 23.5q81 0 176 -13t202 -35l-43 -190q-90 17 -155.5 27.5t-115.5 10.5q-49 0 -79 -8.5t-46 -31.5t-21 -64t-5 -106v-29h334v-200h-334v-640h625v1240h275v-1440h-1348v200h174v640h-174v200h174v38z" />
<glyph horiz-adv-x="2048" />
<glyph horiz-adv-x="2048" />
<glyph unicode="&#xd;" horiz-adv-x="2048" />
<glyph unicode=" "  horiz-adv-x="570" />
<glyph unicode="&#x09;" horiz-adv-x="570" />
<glyph unicode="&#xa0;" horiz-adv-x="570" />
<glyph unicode="!" horiz-adv-x="711" d="M150 1351q36 54 90.5 81.5t110.5 27.5q35 0 67.5 -11.5t57.5 -35t40 -58.5t15 -82l-41 -851l-219 -34l-40 796zM371 262q32 0 58 -11t44.5 -30.5t28.5 -45t10 -54.5t-11 -54.5t-30.5 -45t-45 -30.5t-54.5 -11t-54.5 11t-45 30.5t-30.5 45t-11 54.5q0 31 11.5 57t31 44.5 t45 29t53.5 10.5z" />
<glyph unicode="&#x22;" horiz-adv-x="941" d="M553 1402q40 29 86.5 44.5t90.5 15.5q30 0 57.5 -8.5t48.5 -26t33.5 -43.5t12.5 -61q0 -42 -12 -79.5t-37 -82t-62 -100.5t-87 -134h-172l105 289zM111 1400q40 29 86.5 45t90.5 16q30 0 57.5 -8.5t48.5 -26t33.5 -43.5t12.5 -61q0 -42 -12 -79.5t-37 -82t-62 -100.5 t-87 -134h-172l105 289z" />
<glyph unicode="#" horiz-adv-x="1291" d="M1037 956l-78 -213h236l-46 -125h-232l-70 -186h235l-44 -127h-237l-78 -211h-130l70 211h-198l-80 -211h-138l80 211h-231l44 127h231l71 186h-241l49 125h238l78 213h129l-78 -213h211l78 213h131zM782 618h-209l-64 -186h202z" />
<glyph unicode="$" horiz-adv-x="1273" d="M734 1571v-114q78 -8 169.5 -27t177.5 -56l-71 -174q-64 23 -132.5 39.5t-142.5 22.5v-400q34 -9 79.5 -21t94 -32.5t95.5 -52t84 -79.5t60 -115t23 -158q0 -75 -19 -134t-51 -103t-75 -75.5t-91.5 -53t-100 -34t-100.5 -18.5v-117h-205v109q-45 3 -98 9t-108.5 17.5 t-112 28t-108.5 40.5l74 176q77 -29 164.5 -50t188.5 -25v476q-30 8 -73.5 18.5t-90.5 29.5t-93.5 48.5t-83.5 75.5t-60 111t-23 154q0 92 38 158t98.5 110t136.5 68.5t151 33.5v114h205zM529 1250q-65 -17 -102.5 -56t-37.5 -106q0 -38 9 -65t27 -47t44 -34t60 -26v334z M734 199q71 24 112 74t41 131q0 41 -10.5 71t-30 52.5t-48 38.5t-64.5 29v-396z" />
<glyph unicode="%" horiz-adv-x="1300" d="M388 1363q45 0 92 -9.5t85.5 -40t63.5 -88t25 -152.5t-25 -152.5t-63.5 -89t-85.5 -41.5t-92 -10t-92.5 10t-86.5 40.5t-64 88.5t-25 154t25 153.5t64 88t86.5 39.5t92.5 9zM388 1266q-34 0 -57.5 -14.5t-38 -40t-21 -61t-6.5 -77.5q0 -43 6.5 -78.5t21 -61t38 -39.5 t57.5 -14q33 0 56.5 14t38.5 39t21.5 60.5t6.5 79.5q0 43 -6.5 78.5t-21.5 61t-38.5 39.5t-56.5 14zM1114 1110v-149l-928 -694v148zM914 596q45 0 92 -9.5t85.5 -40t63.5 -88t25 -152.5t-25 -152.5t-63.5 -89t-85.5 -41.5t-92 -10t-92.5 10t-86.5 40.5t-64 88.5t-25 154 t25 153.5t64 88t86.5 39.5t92.5 9zM914 499q-34 0 -57.5 -14.5t-38 -40t-21 -61t-6.5 -77.5q0 -43 6.5 -78.5t21 -61t38 -39.5t57.5 -14q33 0 56.5 14t38.5 39t21.5 60.5t6.5 79.5q0 43 -6.5 78.5t-21.5 61t-38.5 39.5t-56.5 14z" />
<glyph unicode="&#x26;" horiz-adv-x="1650" d="M1550 243q-46 -80 -83 -132t-72 -82t-71 -42t-79 -12q-36 0 -68 5.5t-63.5 21.5t-66 44t-74.5 72q-35 -33 -81.5 -59.5t-100.5 -44.5t-113.5 -28t-119.5 -10q-116 0 -202 30.5t-143.5 84.5t-86 128t-28.5 161q0 68 24 135.5t75 130.5q37 45 89.5 90.5t123.5 96.5 q-35 48 -63.5 88.5t-48 79t-30 77t-10.5 82.5q0 54 18 105t56 89q28 30 65.5 50.5t81 32.5t91.5 17.5t98 5.5q92 0 183.5 -13t166.5 -30l-72 -202q-26 6 -56 13t-61.5 12t-63.5 8.5t-62 3.5q-33 0 -62.5 -5t-51 -16.5t-34 -31t-12.5 -48.5q0 -24 5.5 -46.5t18.5 -47.5 t33 -55t49 -67l351 -453q23 42 41.5 95t26.5 110h-135v167h548v-167h-182q-23 -124 -62 -224.5t-87 -174.5q14 -19 29 -38t30 -34t29 -24t28 -9q12 0 24.5 8t28 27t35.5 51.5t48 80.5zM533 672q-42 -26 -74 -58.5t-54 -69t-33 -74.5t-11 -75q0 -43 15 -81t46.5 -67t79 -46 t112.5 -17q61 0 121.5 23t104.5 65z" />
<glyph unicode="'" horiz-adv-x="500" d="M111 1401q40 29 86.5 44.5t90.5 15.5q30 0 57.5 -8.5t48.5 -26t33.5 -43.5t12.5 -61q0 -42 -12 -79.5t-37 -82t-62 -100.5t-87 -134h-172l105 289z" />
<glyph unicode="(" horiz-adv-x="830" d="M538 -209q-86 65 -155.5 149t-118.5 184.5t-76 216t-27 243.5t27 243.5t76 216t118.5 184.5t155.5 149l132 -54q-63 -90 -108.5 -172t-75.5 -168.5t-44 -183t-14 -215.5t14 -215.5t44 -183t75.5 -168.5t108.5 -172z" />
<glyph unicode=")" horiz-adv-x="830" d="M293 1377q85 -65 155 -149t119 -184.5t76 -216t27 -243.5t-27 -243.5t-76 -216t-119 -184.5t-155 -149l-132 54q63 90 108.5 172t75.5 168.5t44 183t14 215.5t-14 215.5t-44 183t-75.5 168.5t-108.5 172z" />
<glyph unicode="*" horiz-adv-x="1099" d="M621 1459l12 -245l233 62l44 -130l-228 -86l134 -202l-111 -80l-153 190l-153 -190l-110 80l133 204l-230 86l44 130l235 -64l12 245h138z" />
<glyph unicode="+" horiz-adv-x="1216" d="M703 1020v-363h363v-190h-363v-363h-190v363h-363v190h363v363h190z" />
<glyph unicode="," horiz-adv-x="698" d="M185 169q36 26 78.5 40.5t82.5 14.5q28 0 53 -7.5t44 -23.5t30 -39.5t11 -55.5q0 -38 -11 -72.5t-33.5 -74.5t-56.5 -91t-79 -122h-156l95 262z" />
<glyph unicode="-" horiz-adv-x="1224" d="M1020 657v-190h-816v190h816z" />
<glyph unicode="." horiz-adv-x="682" d="M341 262q32 0 58 -11t44.5 -30.5t28.5 -45t10 -54.5t-11 -54.5t-30.5 -45t-45 -30.5t-54.5 -11t-54.5 11t-45 30.5t-30.5 45t-11 54.5q0 31 11.5 57t31 44.5t45 29t53.5 10.5z" />
<glyph unicode="/" horiz-adv-x="1349" d="M1239 1438l-900 -1438h-229l900 1438h229z" />
<glyph unicode="0" horiz-adv-x="1247" d="M624 1083q114 0 215 -43.5t176 -118.5t118.5 -176t43.5 -215q0 -115 -43.5 -216t-118.5 -176t-176 -118.5t-215 -43.5q-115 0 -216 43.5t-176 118.5t-118.5 176t-43.5 216q0 114 43.5 215t118.5 176t176 118.5t216 43.5zM624 851q-64 0 -120.5 -25t-98.5 -68t-66.5 -102 t-24.5 -126q0 -68 24.5 -126.5t66.5 -102t98.5 -68.5t120.5 -25q63 0 119.5 25t98.5 68.5t66.5 102t24.5 126.5q0 67 -24.5 126t-66.5 102t-98.5 68t-119.5 25z" />
<glyph unicode="1" horiz-adv-x="859" d="M527 1092l108 -84v-1008h-274v823l-203 -78l-68 178z" />
<glyph unicode="2" horiz-adv-x="1073" d="M134 990q93 45 205 69t221 24q83 0 155 -15.5t125 -50.5t83 -93t30 -143q0 -82 -22 -137t-65 -95t-107.5 -71.5t-148.5 -67.5q-49 -21 -84.5 -36.5t-59.5 -29t-39 -27t-23 -30.5t-11 -39t-4 -53h549v-195h-818v139q0 97 25 167t72 121t114 89t151 71q47 19 84.5 34 t63.5 34.5t40 47t14 72.5q0 35 -12 58t-33 37t-49 19.5t-60 5.5q-33 0 -73 -5.5t-82 -15.5t-84.5 -25t-80.5 -34z" />
<glyph unicode="3" horiz-adv-x="1097" d="M187 1089q37 -14 67 -22t66 -13t83.5 -6.5t121.5 -1.5h342v-154l-237 -266q73 -2 142 -24.5t118 -73.5q55 -55 81 -130.5t26 -153.5q0 -95 -32.5 -169t-89 -130.5t-134 -96t-167.5 -66.5q-68 -20 -130.5 -31.5t-121 -17.5t-114 -8t-108.5 -3v202q79 5 156 15t146 29 q68 19 127 45.5t102 61t67.5 78.5t24.5 99q0 48 -14 82t-39 55t-59 30.5t-74 9.5t-84 -8.5t-89 -23.5l-75 149l257 295h-125q-34 0 -74 2t-81 7.5t-81 16t-74 28.5z" />
<glyph unicode="4" horiz-adv-x="1251" d="M408 772q31 60 50 100.5t31.5 75t22 69.5t20.5 84l258 -54q-5 -42 -11.5 -76t-17.5 -67.5t-26.5 -69t-37.5 -78.5l-276 -551h312v221h268v-221h168v-205h-168v-274h-268v274h-613l-40 124z" />
<glyph unicode="5" horiz-adv-x="1107" d="M540 1046q74 0 121.5 1.5t83.5 6.5t66 13t67 22l76 -194q-35 -18 -74.5 -28.5t-80.5 -16t-81 -7.5t-74 -2h-187l-14 -244q38 14 82.5 21.5t92.5 7.5q76 0 148.5 -23t123.5 -75q55 -55 81 -130.5t26 -153.5q0 -95 -32.5 -169t-89 -130.5t-134 -96t-167.5 -66.5 q-68 -20 -130.5 -31.5t-121 -17.5t-114 -8t-108.5 -3v202q79 5 156 15t146 29q68 19 127 45.5t102 61t67.5 78.5t24.5 99q0 48 -14 82t-39 55t-59 30.5t-74 9.5q-50 0 -105 -12.5t-112 -35.5l-147 106l33 559h334z" />
<glyph unicode="6" horiz-adv-x="1186" d="M977 1148q-17 1 -34 1.5t-34 0.5q-100 0 -181 -16.5t-142.5 -55t-103.5 -100t-65 -151.5q51 18 115.5 29t133.5 11q45 0 89.5 -6t86 -18.5t78 -33.5t65.5 -51q49 -55 76.5 -136t27.5 -187q0 -134 -43 -222.5t-113 -141t-158 -74t-179 -21.5q-61 0 -121.5 8t-116.5 29 t-103.5 58.5t-82 97.5t-53.5 144.5t-16 200.5q3 115 20 214.5t49 191.5q31 89 76.5 154t101 110t118 73.5t127.5 44t129.5 21t124.5 5.5q35 0 67 -1t61 -3v-176zM612 679q-125 0 -221 -51q-8 -39 -11 -80t-3 -73q0 -63 11 -119t36.5 -99t68 -68t104.5 -25q54 0 94.5 19.5 t68 54.5t41.5 84.5t14 108.5q0 62 -9 109t-32 79q-25 35 -69 47.5t-93 12.5z" />
<glyph unicode="7" horiz-adv-x="1092" d="M635 1046q63 0 107.5 2t81.5 7q36 5 69 11t70 16l49 -144q-96 -140 -163.5 -249t-112.5 -200q-46 -91 -72 -170.5t-39 -161.5q-6 -41 -10 -79t-6.5 -79t-3 -87t-0.5 -103v-74h-274q0 122 3.5 221t16 188.5t38.5 176t71 183.5q35 75 82.5 156.5t110.5 180.5h-563v205h545z " />
<glyph unicode="8" horiz-adv-x="1206" d="M608 1314q42 0 90 -6t96 -20t92 -37t78 -58.5t54.5 -84t20.5 -112.5q0 -178 -140 -292q47 -24 85.5 -54t65.5 -70t41.5 -91t14.5 -118q0 -78 -22.5 -138t-61 -103.5t-89.5 -73t-107 -47.5t-113.5 -25.5t-109.5 -7.5q-55 0 -113.5 7.5t-114.5 25t-106 47t-87.5 74 t-59.5 106t-22 142.5q0 58 16 108.5t44.5 92.5t68.5 76t89 60q-30 21 -55.5 47t-43.5 59.5t-28.5 76.5t-10.5 98q0 64 20.5 112.5t55 84t78.5 59t91.5 37.5t95 19.5t87.5 5.5zM608 1140q-38 0 -70 -8.5t-55 -26.5t-36 -46t-13 -67q0 -56 25 -89.5t64 -54.5t87 -33t95 -23 q24 21 39.5 46t24.5 51.5t12.5 53t3.5 49.5q0 39 -13.5 67t-37.5 46t-56.5 26.5t-69.5 8.5zM502 599q-35 -21 -60.5 -43.5t-41.5 -48.5t-23.5 -57.5t-7.5 -71.5q0 -110 61 -169t173 -59q111 0 172.5 57.5t61.5 163.5q0 67 -30.5 106t-78.5 61.5t-108 35t-118 25.5z" />
<glyph unicode="9" horiz-adv-x="1186" d="M212 -89q17 -1 34 -1.5t34 -0.5q100 0 181 16.5t142.5 55t103.5 100t65 151.5q-51 -18 -115.5 -29t-133.5 -11q-45 0 -89.5 6t-86 18.5t-78 33.5t-65.5 51q-49 55 -76.5 136t-27.5 187q0 89 19.5 158t54.5 120t82 85.5t101.5 56t114.5 30.5t121 9t121.5 -8t116.5 -29 t103.5 -58.5t82 -97.5t53.5 -145t16 -200t-20 -214.5t-49 -191.5q-31 -90 -77.5 -155t-102.5 -110.5t-119.5 -73.5t-128 -43t-128 -20.5t-120.5 -5.5q-37 0 -69 1t-60 3v176zM592 895q-54 0 -94.5 -19.5t-68 -55t-41.5 -84.5t-14 -108q0 -62 9 -109t32 -79q25 -35 69 -47.5 t93 -12.5q125 0 221 51q8 39 11 80t3 73q0 63 -11 119t-36.5 99t-68 68t-104.5 25z" />
<glyph unicode=":" horiz-adv-x="670" d="M335 887q33 0 60.5 -11.5t47 -32t30 -47.5t10.5 -57t-11.5 -57t-32 -47.5t-47.5 -32t-57 -11.5t-57 11.5t-47.5 32t-32 47.5t-11.5 57q0 33 12 60t32.5 46.5t47 30.5t56.5 11zM335 276q33 0 60.5 -11.5t47 -32t30 -47.5t10.5 -57t-11.5 -57t-32 -47.5t-47.5 -32 t-57 -11.5t-57 11.5t-47.5 32t-32 47.5t-11.5 57q0 33 12 60t32.5 46.5t47 30.5t56.5 11z" />
<glyph unicode=";" horiz-adv-x="724" d="M393 887q33 0 60.5 -11.5t47 -32t30 -47.5t10.5 -57t-11.5 -57t-32 -47.5t-47.5 -32t-57 -11.5t-57 11.5t-47.5 32t-32 47.5t-11.5 57q0 33 12 60t32.5 46.5t47 30.5t56.5 11zM241 169q36 26 78.5 40.5t82.5 14.5q28 0 53 -7.5t44 -23.5t30 -39.5t11 -55.5 q0 -38 -11 -72.5t-33.5 -74.5t-56.5 -91t-79 -122h-156l95 262z" />
<glyph unicode="&#x3c;" horiz-adv-x="1127" d="M1027 1049v-254l-633 -277l633 -280v-258l-927 459v156z" />
<glyph unicode="=" horiz-adv-x="1216" d="M1066 847v-190h-916v190h916zM1066 467v-190h-916v190h916z" />
<glyph unicode="&#x3e;" horiz-adv-x="1127" d="M100 1049l927 -454v-156l-927 -459v258l633 280l-633 277v254z" />
<glyph unicode="?" horiz-adv-x="1196" d="M120 1363q106 48 219.5 73t219.5 25q107 0 191.5 -22.5t143.5 -67.5t90.5 -113t31.5 -160q0 -86 -28 -148.5t-83 -111.5t-136.5 -90.5t-187.5 -86.5v-239l-239 -40l-60 367q81 35 147 61.5t117.5 49.5t89 45.5t61.5 49t35.5 59t11.5 77.5q0 44 -15 75t-42 50.5t-64.5 28 t-82.5 8.5q-39 0 -82.5 -6t-88 -17.5t-88.5 -27t-86 -33.5zM461 262q32 0 58 -11t44.5 -30.5t28.5 -45t10 -54.5t-11 -54.5t-30.5 -45t-45 -30.5t-54.5 -11t-54.5 11t-45 30.5t-30.5 45t-11 54.5q0 31 11.5 57t31 44.5t45 29t53.5 10.5z" />
<glyph unicode="@" horiz-adv-x="1742" d="M870 -219q-105 0 -202 26t-181 73t-152.5 113.5t-117 147t-75 173.5t-26.5 193t26.5 193t75 173.5t117 147t152.5 113.5t180.5 73t202.5 26q105 0 202 -26t181 -73t152.5 -113.5t117 -147t75 -173.5t26.5 -193q0 -95 -30 -167.5t-82.5 -122.5t-124 -75.5t-155.5 -25.5 q-32 0 -58.5 0.5t-51.5 1.5t-50.5 3t-53.5 5q-3 17 -6 37t-6 42q-2 20 -3.5 40.5t-1.5 40.5h-10q-21 -48 -45 -80.5t-50.5 -51.5t-54.5 -27t-56 -8q-36 0 -72.5 9.5t-68 34.5t-55.5 68.5t-36 111.5q-5 29 -7.5 58.5t-2.5 61.5q0 118 26.5 199t76 131t119 72.5t155.5 24.5 q45 0 113 -9t156 -34l-11 -259q-1 -25 -2.5 -58.5t-2.5 -69.5t-2 -71t-1 -63v-13t0.5 -16.5t1 -15.5t0.5 -10q4 -1 13 -1.5l18 -1t17.5 -0.5h12.5q98 0 153.5 57t55.5 182q0 114 -44.5 214.5t-121.5 174.5t-181.5 117t-224.5 43t-224.5 -43t-181.5 -117t-121.5 -174.5 t-44.5 -214.5t44.5 -214.5t121.5 -174.5t181.5 -117t224.5 -43h58v-177h-58zM1006 741q-17 3 -35 6t-37 3q-70 0 -111.5 -25t-63 -66t-28 -92.5t-6.5 -104.5q0 -29 2 -64t9.5 -65t23 -50.5t43.5 -20.5q29 0 52.5 13t43.5 37q27 31 50 77t45 102z" />
<glyph unicode="A" horiz-adv-x="1454" d="M865 1438l543 -1438h-282l-164 442h-474l-164 -442h-282l543 1438h280zM725 1141l-163 -498h326z" />
<glyph unicode="B" horiz-adv-x="1348" d="M719 1438q94 0 178 -18.5t146.5 -58.5t99 -103t36.5 -152q0 -62 -12.5 -111t-36 -87.5t-56.5 -67.5t-75 -50v-10q47 -11 92.5 -39t81.5 -72t58.5 -102.5t22.5 -129.5q0 -120 -39 -203.5t-107.5 -135t-162.5 -75t-204 -23.5h-558v1438h536zM625 874q75 0 128 10t86.5 32 t49.5 57t16 85q0 51 -16 86t-49.5 57t-86.5 32t-128 10h-168v-369h168zM661 195q158 0 238.5 56t80.5 186t-80.5 186t-238.5 56h-204v-484h204z" />
<glyph unicode="C" horiz-adv-x="1289" d="M1207 40q-89 -29 -195.5 -46.5t-216.5 -17.5q-187 0 -316.5 43.5t-210.5 133t-117 225t-36 319.5q0 192 35.5 335t112.5 238t198.5 142.5t294.5 47.5q61 0 120.5 -6t113 -16t100 -23t82.5 -27l-66 -201q-71 26 -151.5 45.5t-169.5 19.5q-107 0 -181 -32t-119.5 -97 t-65.5 -164t-20 -232q0 -142 22 -244.5t71 -169t128.5 -98t193.5 -31.5q87 0 174.5 16t162.5 41z" />
<glyph unicode="D" horiz-adv-x="1424" d="M571 1438q118 0 218 -12.5t184 -43.5q99 -37 166 -98.5t107 -145.5t57 -188.5t17 -226.5t-17.5 -227t-58.5 -189.5t-107.5 -147t-163.5 -100.5q-84 -32 -184 -45.5t-218 -13.5h-390v1438h390zM501 203q165 0 269 24t163 83t81 157.5t22 248.5t-21.5 250t-76.5 159.5 t-149 84.5t-238 25h-90v-1032h40z" />
<glyph unicode="E" horiz-adv-x="1191" d="M1042 1438v-205h-581v-326h411v-205h-411v-497h602v-205h-881v1438h860z" />
<glyph unicode="F" horiz-adv-x="1122" d="M1042 1438v-205h-581v-326h411v-205h-411v-702h-279v1438h860z" />
<glyph unicode="G" horiz-adv-x="1445" d="M1303 70q-44 -22 -100 -39.5t-120 -29.5t-133 -18.5t-138 -6.5q-175 0 -306 36t-218 120t-130 222.5t-43 344.5q0 215 45 361t129 235.5t203.5 128.5t267.5 39q63 0 127.5 -6.5t127.5 -19.5t121.5 -32.5t109.5 -44.5l-77 -195q-101 48 -199.5 69t-186.5 21 q-100 0 -172.5 -31.5t-119.5 -96t-69.5 -164t-22.5 -234.5q0 -143 23 -245.5t72.5 -169.5t126 -98.5t184.5 -31.5q54 0 110.5 8t114.5 22v347h-229v203h502v-694z" />
<glyph unicode="H" horiz-adv-x="1558" d="M1376 1438v-1438h-279v701h-636v-701h-279v1438h279v-532h636v532h279z" />
<glyph unicode="I" horiz-adv-x="687" d="M483 1438v-1438h-279v1438h279z" />
<glyph unicode="J" horiz-adv-x="796" d="M625 1438v-1009q0 -129 -10.5 -227t-43.5 -174q-18 -40 -45 -79t-67.5 -76.5t-95 -73.5t-127.5 -72l-112 154q53 47 94.5 86.5t70.5 89.5q28 50 42.5 119t14.5 174v1088h279z" />
<glyph unicode="K" horiz-adv-x="1310" d="M990 1460l180 -150l-486 -576l586 -734h-352l-455 615v-615h-279v1438h279v-602z" />
<glyph unicode="L" horiz-adv-x="1133" d="M475 1438v-1233h561v-205h-840v1438h279z" />
<glyph unicode="M" horiz-adv-x="1868" d="M1631 1438l164 -1438h-274l-118 1070h-6l-309 -1075h-308l-309 1075h-6l-118 -1070h-274l164 1438h366l331 -1153l331 1153h366z" />
<glyph unicode="N" horiz-adv-x="1574" d="M1396 1438v-1438h-309l-629 1075v-1075h-279v1438h309l629 -1075v1075h279z" />
<glyph unicode="O" horiz-adv-x="1542" d="M771 1460q180 0 304 -54.5t201.5 -152.5t111.5 -234.5t34 -300.5t-34 -300.5t-111.5 -234.5t-201.5 -152.5t-304 -54.5q-177 0 -301 53t-201.5 150t-113 234t-35.5 305t35.5 305t113 234t201.5 150t301 53zM771 1255q-105 0 -175.5 -34t-113 -101.5t-60.5 -168 t-18 -233.5t18 -233.5t60.5 -168t113 -101.5t175.5 -34q104 0 174.5 33.5t113 100.5t61 168t18.5 235t-18.5 235t-61 168t-113 100.5t-174.5 33.5z" />
<glyph unicode="P" horiz-adv-x="1295" d="M738 1438q105 0 187.5 -28.5t139.5 -83.5t87 -136t30 -186q0 -114 -37 -199.5t-106 -142.5t-167 -86t-219 -29q-56 0 -105.5 3.5t-87.5 7.5v-558h-279v1438h557zM460 749q32 -5 63.5 -7.5t61.5 -2.5q77 0 135.5 13t98 43t59.5 78t20 119q0 70 -15 118.5t-48 78.5 t-85 43.5t-126 13.5h-164v-497z" />
<glyph unicode="Q" horiz-adv-x="1542" d="M771 1460q180 0 304 -54.5t201.5 -152.5t111.5 -234.5t34 -300.5q0 -130 -21 -242.5t-67.5 -203.5t-120.5 -156.5t-180 -101.5q46 -36 83 -64.5t74 -51.5t78 -40.5t96 -30.5q-6 -27 -11.5 -50t-12.5 -44.5t-16.5 -43.5t-21.5 -48q-54 13 -94.5 26t-76.5 30t-72 40t-81 56 t-103 78t-138 106q-168 5 -285 60t-191 152t-107.5 231t-33.5 298q0 168 35.5 305t113 234t201.5 150t301 53zM771 1255q-105 0 -175.5 -34t-113 -101.5t-60.5 -168t-18 -233.5t18 -233.5t60.5 -168t113 -101.5t175.5 -34q104 0 174.5 33.5t113 100.5t61 168t18.5 235 t-18.5 235t-61 168t-113 100.5t-174.5 33.5z" />
<glyph unicode="R" horiz-adv-x="1323" d="M711 1438q97 0 179 -24.5t142 -73.5t93.5 -124t33.5 -175q0 -81 -27 -148t-76 -116.5t-116 -80.5t-148 -41l-1 -3q40 -23 78 -64.5t73.5 -90.5t68 -100t59.5 -94l198 -303h-315q-35 58 -78.5 132.5t-87 148.5t-82 137.5t-62.5 99.5q-23 33 -42.5 56t-39.5 37t-42.5 20 t-50.5 7h-8v-638h-279v1438h530zM604 830q65 0 115.5 10.5t85 35t52.5 64.5t18 98t-18 98t-52.5 64.5t-85 35t-115.5 10.5h-144v-416h144z" />
<glyph unicode="S" horiz-adv-x="1271" d="M176 249q83 -32 177.5 -53.5t205.5 -21.5q72 0 132 13t103.5 41t68 71.5t24.5 104.5q0 66 -26.5 105t-74.5 64t-116 42t-151 38q-93 24 -169.5 55t-130.5 80t-84 121t-30 178q0 71 23.5 127t63.5 97.5t92.5 70.5t110 47t117.5 26t114 8q38 0 91.5 -4t114 -14.5t125 -27.5 t124.5 -43l-71 -174q-80 29 -166.5 47t-181.5 18q-60 0 -110 -9.5t-86.5 -30.5t-56.5 -55t-20 -82q0 -62 24.5 -97t70.5 -57t112.5 -37.5t150.5 -37.5q92 -24 169.5 -56.5t134 -84t88.5 -127.5t32 -187q0 -98 -31 -168t-81 -117.5t-114 -75.5t-130 -43t-128 -19.5t-109 -4.5 q-46 1 -103.5 6t-120.5 16t-127.5 29.5t-124.5 45.5z" />
<glyph unicode="T" horiz-adv-x="1303" d="M1213 1438v-205h-420v-1233h-279v1233h-424v205h1123z" />
<glyph unicode="U" horiz-adv-x="1532" d="M1366 1438v-806q0 -156 -32 -278t-103.5 -206t-186 -127.5t-279.5 -43.5q-168 0 -282.5 45t-185 130t-101 206.5t-30.5 273.5v806h284v-840q0 -95 16.5 -171.5t54 -130t97.5 -82.5t147 -29q89 0 150 29t98 83t53 130.5t16 170.5v840h284z" />
<glyph unicode="V" horiz-adv-x="1508" d="M1395 1438l-511 -1440h-259l-512 1440h287l355 -1129l353 1129h287z" />
<glyph unicode="W" horiz-adv-x="1868" d="M1795 1437l-164 -1437h-366l-331 1152l-331 -1152h-366l-164 1437h274l118 -1079h2l310 1079h314l310 -1079h2l118 1079h274z" />
<glyph unicode="X" horiz-adv-x="1456" d="M357 1463l385 -526l348 501h294l-491 -707l450 -617l-259 -138l-367 506l-332 -482h-294l476 688l-469 637z" />
<glyph unicode="Y" horiz-adv-x="1400" d="M1335 1438l-495 -790v-648h-280v648l-495 790h304l331 -603l331 603h304z" />
<glyph unicode="Z" horiz-adv-x="1291" d="M1137 1438v-167l-658 -1066h664v-205h-996v161l660 1072h-637v205h967z" />
<glyph unicode="[" horiz-adv-x="821" d="M641 1570v-192h-178v-1318h178v-192h-441v1702h441z" />
<glyph unicode="\" horiz-adv-x="1219" d="M354 1438l710 -1438h-199l-710 1438h199z" />
<glyph unicode="]" horiz-adv-x="821" d="M621 1570v-1702h-441v192h178v1318h-178v192h441z" />
<glyph unicode="^" horiz-adv-x="839" d="M502 1114l311 -687h-177l-217 489l-217 -489h-176l309 687h167z" />
<glyph unicode="_" horiz-adv-x="1164" d="M1014 200v-200h-864v200h864z" />
<glyph unicode="`" horiz-adv-x="575" d="M204 1181q-45 71 -79 122t-56.5 91t-33.5 74.5t-11 72.5q0 32 11 55.5t30 39.5t44 23.5t53 7.5q40 0 82.5 -14.5t78.5 -40.5l-58 -169l95 -262h-156z" />
<glyph unicode="a" horiz-adv-x="1141" d="M187 989q37 15 84.5 28t101 23.5t111 16.5t116.5 6q83 0 155.5 -13t120.5 -43t75 -81.5t27 -129.5v-406q0 -70 1 -124.5t4 -106.5q2 -19 4 -34.5t4.5 -30t6 -30.5t8.5 -35q-62 -14 -123.5 -27t-124.5 -25q-11 28 -17.5 57.5t-11.5 67.5h-15q-35 -36 -70 -60t-73 -39 t-79 -21t-86 -6q-69 0 -128 16.5t-102.5 50.5t-68 86.5t-24.5 123.5q0 60 12.5 107t35.5 84t55 65t71 49q78 42 174 57.5t196 15.5h86v130q0 37 -11.5 58.5t-31 32.5t-45.5 14.5t-56 3.5q-81 0 -163.5 -20.5t-157.5 -50.5zM713 484h-20q-71 -1 -135.5 -10.5t-113.5 -32.5 t-78.5 -60.5t-29.5 -94.5q0 -63 36.5 -97t102.5 -34q31 0 64 8.5t65 24t60 38.5t49 53v205z" />
<glyph unicode="b" horiz-adv-x="1235" d="M448 1440v-534h5q29 37 62 66.5t71.5 50.5t83.5 32t99 11q105 0 177 -41t116.5 -110t64 -160.5t19.5 -191.5q0 -136 -31 -244t-101 -183.5t-183.5 -116t-279.5 -40.5q-102 0 -192.5 9.5t-181.5 22.5v1429h271zM448 198q41 -9 80 -14t75 -5q58 0 107.5 15t85.5 50t56 93 t20 145q0 84 -7 154.5t-28 121.5t-60 79.5t-103 28.5q-40 0 -71.5 -14.5t-58.5 -40t-50.5 -60.5t-45.5 -77v-476z" />
<glyph unicode="c" horiz-adv-x="1063" d="M981 39q-41 -15 -90 -27t-99.5 -20t-99.5 -12t-90 -4q-145 0 -245 34t-161.5 100.5t-88.5 164.5t-27 225q0 133 34.5 238t103.5 177t172 110t241 38q80 0 159 -12.5t151 -33.5l-67 -198q-60 20 -116.5 32t-114.5 12q-77 0 -131.5 -25.5t-89.5 -71t-51.5 -108.5 t-16.5 -138q0 -174 60.5 -259t200.5 -85q86 0 158.5 18t144.5 43z" />
<glyph unicode="d" horiz-adv-x="1225" d="M1058 1440v-1101v-43q0 -78 5 -140.5t22 -126.5q-32 -9 -62 -16.5t-59.5 -14t-59.5 -12t-63 -10.5q-8 21 -13.5 40t-10 41t-7.5 48t-5 61h-11q-116 -190 -328 -190q-105 0 -177 41t-116.5 110.5t-64 161t-19.5 193.5q0 144 38.5 252.5t108.5 181.5t167.5 110t215.5 37 q43 0 83.5 -4t81.5 -10v391h274zM787 843q-80 20 -149 20q-59 0 -109.5 -16t-87.5 -52t-57.5 -93t-20.5 -139q0 -85 6.5 -156t27.5 -122.5t60 -80t104 -28.5q47 0 82.5 19t64.5 53q22 24 41 54.5t38 65.5v475z" />
<glyph unicode="e" horiz-adv-x="1202" d="M1029 47q-41 -17 -89.5 -30t-101.5 -22t-107.5 -14t-106.5 -5q-263 0 -397.5 126.5t-134.5 387.5q0 116 27 220t87.5 182.5t159 124.5t241.5 46q250 0 373 -132.5t123 -404.5v-79h-739q2 -68 16 -120t46.5 -87.5t85.5 -54t133 -18.5q70 0 151 17.5t169 50.5zM829 625 q-7 247 -222 247q-111 0 -168.5 -64t-70.5 -183h461z" />
<glyph unicode="f" horiz-adv-x="1016" d="M277 1078q0 105 17.5 181t59 124.5t111 72t173.5 23.5q81 0 176 -13t202 -35l-43 -190q-90 17 -155.5 27.5t-115.5 10.5q-49 0 -79 -8.5t-46 -31.5t-21 -64t-5 -106v-29h334v-200h-334v-640h334v-200h-782v200h174v640h-174v200h174v38z" />
<glyph unicode="g" horiz-adv-x="1232" d="M837 1041q48 0 82 1t65 5t65 12t82 21q15 -46 31 -95.5t30 -98.5q-33 -12 -60.5 -20t-53 -13.5t-50 -8t-52.5 -3.5q19 -43 26 -84.5t7 -87.5q0 -96 -29 -167.5t-83 -121.5q-33 -30 -75 -50t-88 -32.5t-93.5 -17.5t-91.5 -5q-81 0 -148 12q-17 -48 -17 -76 q0 -19 7.5 -32.5t24.5 -23.5q26 -14 62.5 -18t80.5 -4h33.5t42.5 0.5t42.5 0.5h35.5q80 0 145 -14.5t111.5 -46.5t72 -85t25.5 -129q0 -87 -42.5 -146.5t-112.5 -96.5t-160 -53.5t-186 -16.5q-69 0 -137.5 7.5t-132.5 19.5q-50 10 -94.5 22.5t-82.5 26.5q13 31 38.5 79 t56.5 103q102 -36 194 -53t168 -17q47 0 88 6t71 20t47.5 37.5t17.5 59.5q0 28 -12 44.5t-33 25.5t-49.5 11.5t-61.5 2.5q-14 0 -29 -0.5t-30 -0.5h-32q-46 0 -91.5 1.5t-87.5 8.5t-78 20.5t-62.5 37t-42 59t-15.5 85.5q0 49 19 99.5t48 100.5q-27 18 -53.5 47t-47 68.5 t-33 89.5t-12.5 112q0 94 29.5 166.5t83.5 123.5q32 30 72 50t84 32t91 17t92 5q57 0 107 -6.5t88 -15.5h93zM553 878q-88 0 -139 -53t-51 -156q0 -106 51.5 -157.5t138.5 -51.5q88 0 139 53t51 156q0 104 -52.5 156.5t-137.5 52.5z" />
<glyph unicode="h" horiz-adv-x="1259" d="M447 1440v-578h7q31 46 64 83t73.5 63.5t89.5 40.5t111 14q119 0 191.5 -47.5t107.5 -144.5q19 -52 27.5 -117t8.5 -146v-608h-274v687q0 81 -38 128.5t-109 47.5q-40 0 -78 -20t-72 -50t-62 -66t-47 -69v-658h-275v1440h275z" />
<glyph unicode="i" horiz-adv-x="637" d="M319 1547q34 0 64.5 -13t53 -35.5t35.5 -53t13 -64.5q0 -35 -13 -65t-35.5 -53t-53 -36t-64.5 -13q-35 0 -65 13t-53 36t-36 53t-13 65q0 34 13 64.5t36 53t53 35.5t65 13zM455 1040v-1040h-274v1040h274z" />
<glyph unicode="j" horiz-adv-x="760" d="M419 1547q34 0 64.5 -13t53 -35.5t35.5 -53t13 -64.5q0 -35 -13 -65t-35.5 -53t-53 -36t-64.5 -13q-35 0 -65 13t-53 36t-36 53t-13 65q0 34 13 64.5t36 53t53 35.5t65 13zM556 1040v-896q0 -71 -5.5 -128.5t-18.5 -107.5t-35.5 -94.5t-56.5 -87.5q-25 -32 -61 -72.5 t-92 -95.5l-178 138l40 51q31 40 55.5 77t41.5 80.5t26.5 97.5t9.5 129v909h274z" />
<glyph unicode="k" horiz-adv-x="1138" d="M441 1440v-761l417 384l152 -165l-370 -340l478 -558h-334l-343 415v-415h-274v1440h274z" />
<glyph unicode="l" horiz-adv-x="513" d="M384 408q0 -83 1.5 -139t5.5 -98q2 -22 4 -38.5t4 -32t5.5 -31t8.5 -34.5q-66 -20 -132 -34.5t-135 -24.5q-15 45 -25.5 95.5t-10.5 110.5v1258h274v-1032z" />
<glyph unicode="m" horiz-adv-x="1894" d="M1109 817q33 64 68 110.5t75.5 76.5t88 44.5t107.5 14.5q125 0 196.5 -58.5t101.5 -170.5q25 -94 25 -226v-608h-274v686q0 39 -6.5 68.5t-18.5 50.5q-17 31 -45.5 44.5t-66.5 13.5q-37 0 -71 -19.5t-64.5 -49.5t-56.5 -67t-47 -72q1 -11 1 -22v-23v-610h-274v686 q0 39 -6.5 68.5t-18.5 50.5q-17 31 -45.5 44.5t-66.5 13.5q-36 0 -69 -19.5t-63 -49.5t-56 -67t-47 -72v-655h-274v641q0 58 -1 108.5t-4 95t-9 84.5t-16 78q65 17 129.5 30.5t130.5 25.5q7 -21 13 -41.5t10 -44t7 -51.5t6 -64h13q32 48 64.5 85.5t69.5 63t82 39t102 13.5 q129 0 201.5 -63t100.5 -183h8z" />
<glyph unicode="n" horiz-adv-x="1247" d="M448 862q33 50 68.5 87.5t76 63t89 38t107.5 12.5q66 0 117 -14.5t88 -42t62.5 -68t40.5 -91.5q14 -51 20.5 -110.5t6.5 -128.5v-608h-274v687q0 86 -39.5 131t-107.5 45q-38 0 -74.5 -18t-70.5 -47.5t-63 -66.5t-52 -75v-656h-274v641q0 81 -1.5 135.5t-5.5 96.5 q-2 21 -4 37t-4.5 31t-6 30.5t-8.5 35.5q65 17 129.5 30.5t130.5 25.5q7 -21 13 -41.5t10 -44t7 -51.5t6 -64h13z" />
<glyph unicode="o" horiz-adv-x="1213" d="M609 1063q131 0 227 -41t158.5 -113.5t93 -172t30.5 -216.5t-30.5 -217t-93 -172.5t-158.5 -113.5t-227 -41t-227 41t-158.5 113.5t-93 172.5t-30.5 217t30.5 216.5t93 172t158.5 113.5t227 41zM609 867q-72 0 -118 -27t-72 -74t-35.5 -110.5t-9.5 -135.5 q0 -73 9.5 -136.5t35.5 -110.5t72 -74t118 -27t118 27t72 74t35.5 110.5t9.5 136.5q0 72 -9.5 135.5t-35.5 110.5t-72 74t-118 27z" />
<glyph unicode="p" horiz-adv-x="1225" d="M431 873q116 190 328 190q105 0 177 -41t116.5 -110.5t64 -161t19.5 -193.5q0 -144 -38.5 -252.5t-108.5 -181.5t-167.5 -110t-215.5 -37q-43 0 -83.5 4t-81.5 10v-391h-273v1101q0 47 -0.5 88t-3.5 78t-8.5 72.5t-15.5 71.5q64 18 121 30t123 23q7 -21 13 -40t10.5 -41 t7.5 -48t5 -61h11zM438 196q80 -20 149 -20q59 0 109.5 16t87 52t57.5 93t21 139q0 85 -7 156t-28 122.5t-60 80t-103 28.5q-47 0 -82.5 -19t-64.5 -53q-22 -24 -41 -54.5t-38 -65.5v-475z" />
<glyph unicode="q" horiz-adv-x="1246" d="M793 136q-58 -74 -133.5 -117t-182.5 -43q-105 0 -177 41t-116.5 110t-64 160t-19.5 192q0 136 31 244t101 183.5t183.5 116t279.5 40.5q102 0 192.5 -9.5t181.5 -22.5v-1429h-271v534h-5zM798 844q-41 9 -80 14t-75 5q-59 0 -108 -15t-85 -50t-56 -93t-20 -145 q0 -84 6.5 -154.5t27.5 -121.5t60 -79.5t104 -28.5q40 0 71.5 14.5t58.5 40t50 60.5t46 77v476z" />
<glyph unicode="r" horiz-adv-x="950" d="M455 862q36 53 67 87q30 33 63 54.5t66.5 35t67.5 19t67 5.5q28 0 54.5 -3.5t49.5 -8.5q-3 -28 -8 -59.5t-11 -63.5t-13.5 -63t-15.5 -58q-57 11 -99 18.5t-75 7.5q-31 0 -56.5 -8.5t-50.5 -29.5t-51.5 -55.5t-59.5 -86.5v-653h-274v641q0 58 -1 108.5t-4 95t-9 84.5 t-16 78q65 17 129.5 31t130.5 25q7 -21 13 -41.5t10 -44t7 -51.5t6 -64h13z" />
<glyph unicode="s" horiz-adv-x="1055" d="M536 1062q96 0 188 -17t161 -45q-14 -40 -32.5 -81t-37.5 -78q-51 17 -118.5 29t-133.5 12q-38 0 -72.5 -5.5t-60 -17.5t-40.5 -31.5t-15 -47.5q0 -39 19.5 -61.5t52 -36.5t75.5 -23t90 -20q73 -17 136.5 -43t110 -66.5t72 -99t24.5 -140.5q-2 -88 -41.5 -148t-104 -97 t-147 -53t-168.5 -16q-57 0 -114 6t-109 17.5t-97 27t-79 34.5q17 39 38 81t41 78q28 -12 64.5 -23.5t77 -20t83 -14t83.5 -5.5q42 0 80 7t66.5 22.5t45 41t16.5 62.5q0 42 -19.5 67t-52.5 40t-76 24t-89 18q-70 14 -133 40t-110 67t-74.5 99.5t-25.5 137.5q1 78 38 131.5 t96 86t135 47t157 14.5z" />
<glyph unicode="t" horiz-adv-x="961" d="M531 1278v-238h350v-200h-350v-499q0 -49 4.5 -81t16.5 -50.5t33 -26t54 -7.5q32 0 74.5 7t100.5 20q6 -18 13.5 -42t15 -49.5t14.5 -49t13 -41.5q-28 -10 -65.5 -18.5t-78.5 -14.5t-83 -9t-79 -3q-35 0 -69 3t-64.5 10.5t-56.5 19.5t-45 31q-44 43 -58 118.5t-14 192.5 v489h-150v200h150v238h274z" />
<glyph unicode="u" horiz-adv-x="1258" d="M1100 1040v-642q0 -81 1.5 -135.5t5.5 -96.5q2 -21 4 -37t4.5 -31t6 -31t8.5 -35q-65 -17 -129.5 -30.5t-130.5 -25.5q-8 21 -13.5 41.5t-9.5 44t-7 51.5t-6 64h-13q-33 -50 -68.5 -87.5t-76 -63t-89 -38t-107.5 -12.5q-125 0 -196.5 50.5t-103.5 143.5q-19 54 -27 119 t-8 142v609h274v-688q0 -86 39.5 -131t107.5 -45q38 0 74.5 18t70.5 47t63 66.5t52 75.5v657h274z" />
<glyph unicode="v" horiz-adv-x="1122" d="M1072 1040l-346 -1050h-330l-346 1050h286l225 -853l225 853h286z" />
<glyph unicode="w" horiz-adv-x="1577" d="M1086 194q28 67 54.5 127t47 118.5t32.5 120t12 132.5q0 36 -4 69t-12.5 69t-21 78.5t-30.5 97.5q35 11 67 20t63 17t62 15t66 14q23 -48 38 -83t25 -68q11 -34 16.5 -68.5t5.5 -72.5q0 -66 -14.5 -134.5t-37.5 -138.5q-24 -70 -56 -139.5t-66.5 -136t-69.5 -128.5 t-66 -117h-320l-94 364l-152 -364h-316l-270 1055h267l212 -847l189 441l-106 406h272z" />
<glyph unicode="x" horiz-adv-x="1259" d="M302 1063l323 -373l276 351h278l-410 -517l335 -395l-199 -153l-297 343l-250 -319h-278l385 486l-362 424z" />
<glyph unicode="y" horiz-adv-x="1286" d="M1113 1040v-1032q0 -117 -37.5 -198.5t-106 -132.5t-164 -74t-210.5 -23q-89 0 -180.5 15.5t-169.5 46.5q21 50 43 98t45 96q72 -23 146 -39.5t143 -16.5q20 0 43.5 1.5t47.5 7.5t47 18.5t40.5 34t28.5 54t12 78.5v203h-9q-33 -50 -68.5 -87.5t-76.5 -63t-90 -38 t-109 -12.5q-98 0 -162 31t-103 89q-38 60 -54 144t-16 191v609h274v-688q0 -86 40 -131t110 -45q38 0 74.5 18t70.5 47t63 66.5t52 75.5v657h276z" />
<glyph unicode="z" horiz-adv-x="1091" d="M402 840q-47 0 -83 1.5t-69.5 6t-68 13.5t-78.5 25q14 49 30 98.5t31 95.5q48 -13 82 -21t65 -12t65 -5t82 -1h508v-151l-495 -690h504v-200h-846v151l494 689h-221z" />
<glyph unicode="{" horiz-adv-x="795" d="M633 1564v-173q-63 0 -99 -10.5t-56 -33.5t-26 -56t-6 -76v-295q0 -67 -21 -112.5t-55 -85.5q35 -42 55.5 -87.5t20.5 -110.5v-295q0 -43 6 -76t26 -56t56 -33.5t99 -10.5v-173h-100q-97 0 -161 20.5t-102 55.5q-39 35 -55 81.5t-16 100.5v386q0 60 -27 106.5t-70 91.5 q45 48 71 93.5t26 104.5v386q0 54 16 100.5t55 81.5q38 35 102 55.5t161 20.5h100z" />
<glyph unicode="|" horiz-adv-x="695" d="M465 1571v-1702h-235v1702h235z" />
<glyph unicode="}" horiz-adv-x="795" d="M262 1564q97 0 161 -20.5t102 -55.5q39 -35 55 -81.5t16 -100.5v-386q0 -60 27 -106.5t70 -91.5q-45 -48 -71 -93.5t-26 -104.5v-386q0 -54 -16 -100.5t-55 -81.5q-38 -35 -102 -55.5t-161 -20.5h-100v173q63 0 99 10.5t56 33.5t26 56t6 76v295q0 67 21 112.5t55 85.5 q-35 42 -55.5 87.5t-20.5 110.5v295q0 43 -6 76t-26 56t-56 33.5t-99 10.5v173h100z" />
<glyph unicode="~" horiz-adv-x="1145" d="M121 568q61 72 127.5 101.5t126.5 29.5q73 0 132 -14t110.5 -30.5t99.5 -30t99 -13.5q42 0 83.5 18.5t88.5 66.5l90 -136q-56 -73 -118.5 -102t-122.5 -29h-13q-78 0 -141 13.5t-115.5 30t-97.5 30.5t-87 14t-83.5 -18.5t-88.5 -66.5z" />
<glyph unicode="&#xa1;" horiz-adv-x="641" d="M290 1062q29 0 54.5 -11t45 -30.5t30.5 -45t11 -54.5q0 -31 -11.5 -57t-31 -44.5t-45 -29t-53.5 -10.5q-32 0 -58 11t-44.5 30.5t-28.5 45t-10 54.5t11 54.5t30.5 45t45 30.5t54.5 11zM511 -309q-36 -54 -90.5 -81.5t-110.5 -27.5q-35 0 -67.5 11.5t-57.5 34.5t-40 58.5 t-15 82.5l41 851l219 34l40 -796z" />
<glyph unicode="&#xa2;" horiz-adv-x="1106" d="M903 1340l-61 -261q37 -6 72.5 -14.5t69.5 -18.5l-65 -187q-32 11 -62 19t-59 13l-170 -723q52 0 97 5.5t86 15t79.5 21.5t77.5 25l58 -192q-49 -18 -104.5 -31t-110 -21t-104 -11.5t-86.5 -3.5h-20.5t-17.5 1l-46 -197h-222l54 231q-81 26 -136.5 71.5t-90.5 109 t-50.5 145t-15.5 179.5q0 149 40.5 259.5t119.5 183.5q137 127 388 136l57 245h222zM576 893q-39 -10 -77.5 -32t-68.5 -63t-48.5 -104.5t-18.5 -155.5q0 -191 64 -279z" />
<glyph unicode="&#xa3;" horiz-adv-x="1140" d="M294 1064q0 97 15 170.5t53 124.5q29 38 70 58.5t85.5 30t88 11t76.5 1.5q77 0 165 -11t191 -32l-33 -202q-85 18 -154 29.5t-121 11.5q-48 0 -81 -11t-50 -37q-19 -28 -22.5 -70t-3.5 -100v-112h343v-205h-343v-516h551v-205h-830v721h-174v205h174v138z" />
<glyph unicode="&#xa5;" horiz-adv-x="1430" d="M1350 1438l-409 -652h177v-170h-263v-144h263v-170h-263v-302h-280v302h-263v170h263v144h-263v170h177l-409 652h304l331 -603l331 603h304z" />
<glyph unicode="&#xa6;" horiz-adv-x="695" d="M465 1571v-670h-235v670h235zM465 539v-670h-235v670h235z" />
<glyph unicode="&#xa7;" horiz-adv-x="1050" d="M534 1482q101 0 188.5 -15t162.5 -48q-14 -40 -30.5 -78.5t-35.5 -75.5q-39 10 -71.5 17.5t-63 12t-61 7t-65.5 2.5t-68 -4.5t-58.5 -16t-41 -31.5t-15.5 -50q0 -39 19.5 -62t52 -37.5t75.5 -24t90 -20.5q73 -17 136.5 -43t110 -66.5t72 -99t24.5 -140.5 q-2 -68 -22 -116.5t-54 -83.5q37 -39 57.5 -93t18.5 -126q-1 -66 -21 -115t-54 -84t-78.5 -57t-94.5 -35t-103.5 -18t-104.5 -5q-115 0 -217 20.5t-187 64.5q17 39 36.5 76.5t39.5 73.5q39 -14 75 -24.5t73 -17.5t77.5 -11t90.5 -4q47 0 84.5 6t64 21t40.5 41.5t14 67.5 q0 42 -19.5 67t-52.5 40t-76 24t-89 18q-70 14 -133.5 40t-111 67t-74.5 99.5t-24 137.5q2 60 26.5 106.5t66.5 80.5q-43 39 -68 92t-25 125v15q3 71 37 124t91 87.5t133 51.5t163 17zM429 863q-20 -10 -37 -29.5t-17 -50.5q0 -39 19.5 -62t52 -37.5t75.5 -24t90 -20.5 q14 -3 27 -6.5t26 -7.5q25 31 25 84q0 43 -20.5 68t-54.5 40q-20 9 -48.5 16t-56 13t-50 10.5t-31.5 6.5z" />
<glyph unicode="&#xa8;" horiz-adv-x="986" d="M254 1456q28 0 53 -11t44 -30t30 -44t11 -53q0 -29 -11 -54.5t-29.5 -44.5t-44 -30t-53.5 -11q-29 0 -55 11t-45.5 30t-30.5 44.5t-11 54.5q0 28 11 53.5t30.5 44t45.5 29.5t55 11zM736 1456q28 0 53 -11t44 -30t30 -44t11 -53q0 -29 -11 -54.5t-29.5 -44.5t-44 -30 t-53.5 -11q-29 0 -55 11t-45.5 30t-30.5 44.5t-11 54.5q0 28 11 53.5t30.5 44t45.5 29.5t55 11z" />
<glyph unicode="&#xa9;" horiz-adv-x="1649" d="M823 1233q151 0 283.5 -57t231.5 -156t156 -231.5t57 -283.5q0 -100 -26 -193t-73.5 -173.5t-114 -147t-147 -114t-174 -73.5t-193.5 -26t-193 26t-173.5 73.5t-147 114t-114 147t-73.5 173.5t-26 193q0 101 26 194t73.5 173.5t114 147t147 114t173.5 73.5t193 26z M824 1069q-117 0 -219.5 -44.5t-179 -121t-121 -179t-44.5 -219.5q0 -116 44.5 -218.5t121 -179t179 -121t219.5 -44.5q116 0 218.5 44.5t179 121t121 179t44.5 218.5q0 117 -44.5 219.5t-121 179t-179 121t-218.5 44.5zM1097 185q-28 -11 -61.5 -19.5t-68 -14t-69 -8.5 t-63.5 -3q-102 0 -172 23.5t-113 68.5t-62 111.5t-19 152.5q0 193 99 288.5t288 95.5q55 0 109.5 -9t103.5 -23l-42 -124q-45 13 -83.5 21.5t-80.5 8.5q-24 0 -43.5 -3.5t-39.5 -11.5q-61 -21 -90.5 -79t-29.5 -148q0 -100 24.5 -156.5t76.5 -73.5q20 -8 39 -12t43 -4 q61 0 112.5 14t102.5 31z" />
<glyph unicode="&#xab;" horiz-adv-x="1360" d="M613 959l100 -99l-340 -342l341 -344l-101 -99l-443 443zM1089 959l100 -99l-340 -342l341 -344l-101 -99l-443 443z" />
<glyph unicode="&#xac;" horiz-adv-x="1286" d="M1101 655v-501h-200v311h-716v190h916z" />
<glyph unicode="&#xad;" horiz-adv-x="1224" d="M1020 657v-190h-816v190h816z" />
<glyph unicode="&#xae;" horiz-adv-x="1649" d="M823 1233q151 0 283.5 -57t231.5 -156t156 -231.5t57 -283.5q0 -100 -26 -193t-73.5 -173.5t-114 -147t-147 -114t-174 -73.5t-193.5 -26t-193 26t-173.5 73.5t-147 114t-114 147t-73.5 173.5t-26 193q0 101 26 194t73.5 173.5t114 147t147 114t173.5 73.5t193 26z M824 1069q-117 0 -219.5 -44.5t-179 -121t-121 -179t-44.5 -219.5q0 -116 44.5 -218.5t121 -179t179 -121t219.5 -44.5q116 0 218.5 44.5t179 121t121 179t44.5 218.5q0 117 -44.5 219.5t-121 179t-179 121t-218.5 44.5zM875 872q52 0 97.5 -11.5t79.5 -35.5t53 -61t19 -88 q0 -46 -15.5 -81.5t-42.5 -61t-63.5 -40.5t-78.5 -19q16 -11 32 -24t36 -36q10 -12 21.5 -27t32.5 -43t54 -73t86 -116h-209q-68 99 -105.5 159t-60 92t-36.5 42.5t-34 11.5h-1v-305h-188v717h323zM808 578q65 0 96.5 18t31.5 70t-32 69.5t-96 17.5h-68v-175h68z" />
<glyph unicode="&#xaf;" horiz-adv-x="623" d="M614 1408v-171h-605v171h605z" />
<glyph unicode="&#xb0;" horiz-adv-x="799" d="M399 1518q63 0 118 -23t95.5 -63.5t63.5 -95.5t23 -118t-23 -117.5t-63.5 -95t-95.5 -63.5t-118 -23t-117.5 23t-95 63.5t-63.5 95t-23 117.5t23 118t63.5 95.5t95 63.5t117.5 23zM399 1368q-32 0 -59 -11.5t-47.5 -31.5t-32 -47.5t-11.5 -59.5t11.5 -59t32 -47.5 t47.5 -32t59 -11.5t59.5 11.5t47.5 32t31.5 47.5t11.5 59t-11.5 59.5t-31.5 47.5t-47.5 31.5t-59.5 11.5z" />
<glyph unicode="&#xb1;" horiz-adv-x="1218" d="M704 1021v-363h363v-190h-363v-363h-190v363h-363v190h363v363h190zM1067 -84v-190h-916v190h916z" />
<glyph unicode="&#xb4;" horiz-adv-x="575" d="M247 1612q36 26 78.5 40.5t82.5 14.5q28 0 53 -7.5t44 -23.5t30 -39.5t11 -55.5q0 -38 -11 -72.5t-33.5 -74.5t-56.5 -91t-79 -122h-156l95 262z" />
<glyph unicode="&#xb6;" horiz-adv-x="600" />
<glyph unicode="&#xb7;" horiz-adv-x="582" d="M291 733q32 0 58 -11t44.5 -30.5t28.5 -45t10 -54.5t-11 -54.5t-30.5 -45t-45 -30.5t-54.5 -11t-54.5 11t-45 30.5t-30.5 45t-11 54.5q0 31 11.5 57t31 44.5t45 29t53.5 10.5z" />
<glyph unicode="&#xb8;" horiz-adv-x="756" d="M421 0l-90 -113q80 -26 113.5 -61t33.5 -88q0 -42 -17 -73t-46.5 -51.5t-70.5 -30.5t-89 -10q-45 0 -91.5 9t-92.5 24l54 101q40 -20 73.5 -31t59.5 -11q32 0 49 16t17 50q0 37 -35.5 59.5t-105.5 45.5l100 164h138z" />
<glyph unicode="&#xbb;" horiz-adv-x="1360" d="M271 959l443 -441l-443 -443l-101 99l341 344l-340 342zM747 959l443 -441l-443 -443l-101 99l341 344l-340 342z" />
<glyph unicode="&#xbf;" horiz-adv-x="1061" d="M665 1062q29 0 54.5 -11t45 -30.5t30.5 -45t11 -54.5q0 -31 -11.5 -57t-31 -44.5t-45 -29t-53.5 -10.5q-32 0 -58 11t-44.5 30.5t-28.5 45t-10 54.5t11 54.5t30.5 45t45 30.5t54.5 11zM844 293q-122 -53 -209.5 -87.5t-143.5 -69t-82.5 -76.5t-26.5 -109q0 -48 15 -79.5 t42 -49.5t64.5 -25.5t82.5 -7.5q75 0 162 21.5t168 55.5q11 -51 19.5 -103.5t15.5 -106.5q-94 -37 -192.5 -56t-191.5 -19q-107 0 -191.5 21t-143.5 65t-90.5 112.5t-31.5 164.5q0 86 28 148.5t83 111.5t136.5 90.5t187.5 86.5v239l239 40z" />
<glyph unicode="&#xc0;" horiz-adv-x="1454" d="M649 1578q-45 71 -79 122t-56.5 91t-33.5 74.5t-11 72.5q0 32 11 55.5t30 39.5t44 23.5t53 7.5q40 0 82.5 -14.5t78.5 -40.5l-58 -169l95 -262h-156zM865 1438l543 -1438h-282l-164 442h-474l-164 -442h-282l543 1438h280zM725 1141l-163 -498h326z" />
<glyph unicode="&#xc1;" horiz-adv-x="1454" d="M693 2009q36 26 78.5 40.5t82.5 14.5q28 0 53 -7.5t44 -23.5t30 -39.5t11 -55.5q0 -38 -11 -72.5t-33.5 -74.5t-56.5 -91t-79 -122h-156l95 262zM865 1438l543 -1438h-282l-164 442h-474l-164 -442h-282l543 1438h280zM725 1141l-163 -498h326z" />
<glyph unicode="&#xc2;" horiz-adv-x="1454" d="M727 1919l331 -254l-75 -87l-256 111l-256 -111l-75 87zM865 1438l543 -1438h-282l-164 442h-474l-164 -442h-282l543 1438h280zM725 1141l-163 -498h326z" />
<glyph unicode="&#xc3;" horiz-adv-x="1454" d="M1056 1805q-4 -40 -20 -80t-41.5 -72.5t-60 -52.5t-76.5 -20q-35 0 -68.5 11t-65.5 24t-63 24t-61 11q-37 0 -55.5 -21.5t-27.5 -58.5h-119q4 40 20 80t41.5 72t60 52.5t76.5 20.5q35 0 68.5 -11t65.5 -24t63 -24t61 -11q37 0 55.5 21.5t27.5 58.5h119zM865 1438 l543 -1438h-282l-164 442h-474l-164 -442h-282l543 1438h280zM725 1141l-163 -498h326z" />
<glyph unicode="&#xc4;" horiz-adv-x="1454" d="M488 1853q28 0 53 -11t44 -30t30 -44t11 -53q0 -29 -11 -54.5t-29.5 -44.5t-44 -30t-53.5 -11q-29 0 -55 11t-45.5 30t-30.5 44.5t-11 54.5q0 28 11 53.5t30.5 44t45.5 29.5t55 11zM970 1853q28 0 53 -11t44 -30t30 -44t11 -53q0 -29 -11 -54.5t-29.5 -44.5t-44 -30 t-53.5 -11q-29 0 -55 11t-45.5 30t-30.5 44.5t-11 54.5q0 28 11 53.5t30.5 44t45.5 29.5t55 11zM865 1438l543 -1438h-282l-164 442h-474l-164 -442h-282l543 1438h280zM725 1141l-163 -498h326z" />
<glyph unicode="&#xc5;" horiz-adv-x="1454" d="M727 1957q41 0 76.5 -15t62 -41.5t41.5 -62t15 -76.5t-15 -76.5t-41.5 -62t-62 -41.5t-76.5 -15t-76.5 15t-62 41.5t-41.5 62t-15 76.5t15 76.5t41.5 62t62 41.5t76.5 15zM727 1845q-35 0 -59 -24t-24 -59t24 -59t59 -24t59 24t24 59t-24 59t-59 24zM865 1438l543 -1438 h-282l-164 442h-474l-164 -442h-282l543 1438h280zM725 1141l-163 -498h326z" />
<glyph unicode="&#xc6;" horiz-adv-x="1879" d="M1730 1438v-208h-581v-324h411v-208h-411v-490h602v-208h-881v442h-320l-232 -442h-318l794 1438h936zM870 1050l-215 -408h215v408z" />
<glyph unicode="&#xc7;" horiz-adv-x="1289" d="M781 -113q80 -26 113.5 -61t33.5 -88q0 -42 -17 -73t-46.5 -51.5t-70.5 -30.5t-89 -10q-45 0 -91.5 9t-92.5 24l54 101q40 -20 73.5 -31t59.5 -11q32 0 49 16t17 50q0 37 -35.5 59.5t-105.5 45.5l87 142q-166 9 -281 57t-187 137t-104.5 220t-32.5 305q0 192 35.5 335 t112.5 238t198.5 142.5t294.5 47.5q61 0 120.5 -6t113 -16t100 -23t82.5 -27l-66 -201q-71 26 -151.5 45.5t-169.5 19.5q-107 0 -181 -32t-119.5 -97t-65.5 -164t-20 -232q0 -142 22 -244.5t71 -169t128.5 -98t193.5 -31.5q87 0 174.5 16t162.5 41l56 -201 q-77 -26 -167.5 -42t-186.5 -21z" />
<glyph unicode="&#xc8;" horiz-adv-x="1191" d="M540 1571q-45 71 -79 122t-56.5 91t-33.5 74.5t-11 72.5q0 32 11 55.5t30 39.5t44 23.5t53 7.5q40 0 82.5 -14.5t78.5 -40.5l-58 -169l95 -262h-156zM1042 1438v-205h-581v-326h411v-205h-411v-497h602v-205h-881v1438h860z" />
<glyph unicode="&#xc9;" horiz-adv-x="1191" d="M584 2002q36 26 78.5 40.5t82.5 14.5q28 0 53 -7.5t44 -23.5t30 -39.5t11 -55.5q0 -38 -11 -72.5t-33.5 -74.5t-56.5 -91t-79 -122h-156l95 262zM1042 1438v-205h-581v-326h411v-205h-411v-497h602v-205h-881v1438h860z" />
<glyph unicode="&#xca;" horiz-adv-x="1191" d="M618 1912l331 -254l-75 -87l-256 111l-256 -111l-75 87zM1042 1438v-205h-581v-326h411v-205h-411v-497h602v-205h-881v1438h860z" />
<glyph unicode="&#xcb;" horiz-adv-x="1191" d="M379 1846q28 0 53 -11t44 -30t30 -44t11 -53q0 -29 -11 -54.5t-29.5 -44.5t-44 -30t-53.5 -11q-29 0 -55 11t-45.5 30t-30.5 44.5t-11 54.5q0 28 11 53.5t30.5 44t45.5 29.5t55 11zM861 1846q28 0 53 -11t44 -30t30 -44t11 -53q0 -29 -11 -54.5t-29.5 -44.5t-44 -30 t-53.5 -11q-29 0 -55 11t-45.5 30t-30.5 44.5t-11 54.5q0 28 11 53.5t30.5 44t45.5 29.5t55 11zM1042 1438v-205h-581v-326h411v-205h-411v-497h602v-205h-881v1438h860z" />
<glyph unicode="&#xcc;" horiz-adv-x="687" d="M266 1578q-45 71 -79 122t-56.5 91t-33.5 74.5t-11 72.5q0 32 11 55.5t30 39.5t44 23.5t53 7.5q40 0 82.5 -14.5t78.5 -40.5l-58 -169l95 -262h-156zM483 1438v-1438h-279v1438h279z" />
<glyph unicode="&#xcd;" horiz-adv-x="687" d="M310 2009q36 26 78.5 40.5t82.5 14.5q28 0 53 -7.5t44 -23.5t30 -39.5t11 -55.5q0 -38 -11 -72.5t-33.5 -74.5t-56.5 -91t-79 -122h-156l95 262zM483 1438v-1438h-279v1438h279z" />
<glyph unicode="&#xce;" horiz-adv-x="687" d="M344 1919l331 -254l-75 -87l-256 111l-256 -111l-75 87zM483 1438v-1438h-279v1438h279z" />
<glyph unicode="&#xcf;" horiz-adv-x="687" d="M105 1853q28 0 53 -11t44 -30t30 -44t11 -53q0 -29 -11 -54.5t-29.5 -44.5t-44 -30t-53.5 -11q-29 0 -55 11t-45.5 30t-30.5 44.5t-11 54.5q0 28 11 53.5t30.5 44t45.5 29.5t55 11zM587 1853q28 0 53 -11t44 -30t30 -44t11 -53q0 -29 -11 -54.5t-29.5 -44.5t-44 -30 t-53.5 -11q-29 0 -55 11t-45.5 30t-30.5 44.5t-11 54.5q0 28 11 53.5t30.5 44t45.5 29.5t55 11zM483 1438v-1438h-279v1438h279z" />
<glyph unicode="&#xd0;" horiz-adv-x="1424" d="M571 1438q118 0 218 -12.5t184 -43.5q99 -37 166 -98.5t107 -145.5t57 -188.5t17 -226.5t-17.5 -227t-58.5 -189.5t-107.5 -147t-163.5 -100.5q-84 -32 -184 -45.5t-218 -13.5h-390v633h-241v190h241v615h390zM501 203q165 0 269 24t163 83t81 157.5t22 248.5t-21.5 250 t-76.5 159.5t-149 84.5t-238 25h-90v-412h295v-190h-295v-430h40z" />
<glyph unicode="&#xd1;" horiz-adv-x="1574" d="M1116 1805q-4 -40 -20 -80t-41.5 -72.5t-60 -52.5t-76.5 -20q-35 0 -68.5 11t-65.5 24t-63 24t-61 11q-37 0 -55.5 -21.5t-27.5 -58.5h-119q4 40 20 80t41.5 72t60 52.5t76.5 20.5q35 0 68.5 -11t65.5 -24t63 -24t61 -11q37 0 55.5 21.5t27.5 58.5h119zM1396 1438v-1438 h-309l-629 1075v-1075h-279v1438h309l629 -1075v1075h279z" />
<glyph unicode="&#xd2;" horiz-adv-x="1542" d="M693 1578q-45 71 -79 122t-56.5 91t-33.5 74.5t-11 72.5q0 32 11 55.5t30 39.5t44 23.5t53 7.5q40 0 82.5 -14.5t78.5 -40.5l-58 -169l95 -262h-156zM771 1460q180 0 304 -54.5t201.5 -152.5t111.5 -234.5t34 -300.5t-34 -300.5t-111.5 -234.5t-201.5 -152.5t-304 -54.5 q-177 0 -301 53t-201.5 150t-113 234t-35.5 305t35.5 305t113 234t201.5 150t301 53zM771 1255q-105 0 -175.5 -34t-113 -101.5t-60.5 -168t-18 -233.5t18 -233.5t60.5 -168t113 -101.5t175.5 -34q104 0 174.5 33.5t113 100.5t61 168t18.5 235t-18.5 235t-61 168t-113 100.5 t-174.5 33.5z" />
<glyph unicode="&#xd3;" horiz-adv-x="1542" d="M737 2009q36 26 78.5 40.5t82.5 14.5q28 0 53 -7.5t44 -23.5t30 -39.5t11 -55.5q0 -38 -11 -72.5t-33.5 -74.5t-56.5 -91t-79 -122h-156l95 262zM771 1460q180 0 304 -54.5t201.5 -152.5t111.5 -234.5t34 -300.5t-34 -300.5t-111.5 -234.5t-201.5 -152.5t-304 -54.5 q-177 0 -301 53t-201.5 150t-113 234t-35.5 305t35.5 305t113 234t201.5 150t301 53zM771 1255q-105 0 -175.5 -34t-113 -101.5t-60.5 -168t-18 -233.5t18 -233.5t60.5 -168t113 -101.5t175.5 -34q104 0 174.5 33.5t113 100.5t61 168t18.5 235t-18.5 235t-61 168t-113 100.5 t-174.5 33.5z" />
<glyph unicode="&#xd4;" horiz-adv-x="1542" d="M771 1919l331 -254l-75 -87l-256 111l-256 -111l-75 87zM771 1460q180 0 304 -54.5t201.5 -152.5t111.5 -234.5t34 -300.5t-34 -300.5t-111.5 -234.5t-201.5 -152.5t-304 -54.5q-177 0 -301 53t-201.5 150t-113 234t-35.5 305t35.5 305t113 234t201.5 150t301 53z M771 1255q-105 0 -175.5 -34t-113 -101.5t-60.5 -168t-18 -233.5t18 -233.5t60.5 -168t113 -101.5t175.5 -34q104 0 174.5 33.5t113 100.5t61 168t18.5 235t-18.5 235t-61 168t-113 100.5t-174.5 33.5z" />
<glyph unicode="&#xd5;" horiz-adv-x="1542" d="M1100 1805q-4 -40 -20 -80t-41.5 -72.5t-60 -52.5t-76.5 -20q-35 0 -68.5 11t-65.5 24t-63 24t-61 11q-37 0 -55.5 -21.5t-27.5 -58.5h-119q4 40 20 80t41.5 72t60 52.5t76.5 20.5q35 0 68.5 -11t65.5 -24t63 -24t61 -11q37 0 55.5 21.5t27.5 58.5h119zM771 1460 q180 0 304 -54.5t201.5 -152.5t111.5 -234.5t34 -300.5t-34 -300.5t-111.5 -234.5t-201.5 -152.5t-304 -54.5q-177 0 -301 53t-201.5 150t-113 234t-35.5 305t35.5 305t113 234t201.5 150t301 53zM771 1255q-105 0 -175.5 -34t-113 -101.5t-60.5 -168t-18 -233.5t18 -233.5 t60.5 -168t113 -101.5t175.5 -34q104 0 174.5 33.5t113 100.5t61 168t18.5 235t-18.5 235t-61 168t-113 100.5t-174.5 33.5z" />
<glyph unicode="&#xd6;" horiz-adv-x="1542" d="M532 1853q28 0 53 -11t44 -30t30 -44t11 -53q0 -29 -11 -54.5t-29.5 -44.5t-44 -30t-53.5 -11q-29 0 -55 11t-45.5 30t-30.5 44.5t-11 54.5q0 28 11 53.5t30.5 44t45.5 29.5t55 11zM1014 1853q28 0 53 -11t44 -30t30 -44t11 -53q0 -29 -11 -54.5t-29.5 -44.5t-44 -30 t-53.5 -11q-29 0 -55 11t-45.5 30t-30.5 44.5t-11 54.5q0 28 11 53.5t30.5 44t45.5 29.5t55 11zM771 1460q180 0 304 -54.5t201.5 -152.5t111.5 -234.5t34 -300.5t-34 -300.5t-111.5 -234.5t-201.5 -152.5t-304 -54.5q-177 0 -301 53t-201.5 150t-113 234t-35.5 305 t35.5 305t113 234t201.5 150t301 53zM771 1255q-105 0 -175.5 -34t-113 -101.5t-60.5 -168t-18 -233.5t18 -233.5t60.5 -168t113 -101.5t175.5 -34q104 0 174.5 33.5t113 100.5t61 168t18.5 235t-18.5 235t-61 168t-113 100.5t-174.5 33.5z" />
<glyph unicode="&#xd7;" horiz-adv-x="1082" d="M798 953l134 -134l-257 -257l257 -257l-134 -134l-257 257l-257 -257l-134 134l257 257l-257 257l134 134l257 -257z" />
<glyph unicode="&#xd8;" horiz-adv-x="1542" d="M1243 1291q95 -98 137 -245t42 -328q0 -164 -34 -300.5t-111.5 -234.5t-201.5 -152.5t-304 -54.5q-184 0 -314 59l-22 -35h-229l91 146q-93 97 -135 243t-42 329q0 168 35.5 305t113 234t201.5 150t301 53q94 0 171 -14.5t141 -43.5l23 36h229zM964 1212q-74 43 -193 43 q-105 0 -175.5 -34t-113 -101.5t-60.5 -168t-18 -233.5q0 -103 10.5 -185t33.5 -146zM576 225q77 -44 195 -44q104 0 174.5 33.5t113 100.5t61 168t18.5 235q0 103 -10.5 186.5t-34.5 146.5z" />
<glyph unicode="&#xd9;" horiz-adv-x="1532" d="M688 1578q-45 71 -79 122t-56.5 91t-33.5 74.5t-11 72.5q0 32 11 55.5t30 39.5t44 23.5t53 7.5q40 0 82.5 -14.5t78.5 -40.5l-58 -169l95 -262h-156zM1366 1438v-806q0 -156 -32 -278t-103.5 -206t-186 -127.5t-279.5 -43.5q-168 0 -282.5 45t-185 130t-101 206.5 t-30.5 273.5v806h284v-840q0 -95 16.5 -171.5t54 -130t97.5 -82.5t147 -29q89 0 150 29t98 83t53 130.5t16 170.5v840h284z" />
<glyph unicode="&#xda;" horiz-adv-x="1532" d="M732 2009q36 26 78.5 40.5t82.5 14.5q28 0 53 -7.5t44 -23.5t30 -39.5t11 -55.5q0 -38 -11 -72.5t-33.5 -74.5t-56.5 -91t-79 -122h-156l95 262zM1366 1438v-806q0 -156 -32 -278t-103.5 -206t-186 -127.5t-279.5 -43.5q-168 0 -282.5 45t-185 130t-101 206.5 t-30.5 273.5v806h284v-840q0 -95 16.5 -171.5t54 -130t97.5 -82.5t147 -29q89 0 150 29t98 83t53 130.5t16 170.5v840h284z" />
<glyph unicode="&#xdb;" horiz-adv-x="1532" d="M766 1919l331 -254l-75 -87l-256 111l-256 -111l-75 87zM1366 1438v-806q0 -156 -32 -278t-103.5 -206t-186 -127.5t-279.5 -43.5q-168 0 -282.5 45t-185 130t-101 206.5t-30.5 273.5v806h284v-840q0 -95 16.5 -171.5t54 -130t97.5 -82.5t147 -29q89 0 150 29t98 83 t53 130.5t16 170.5v840h284z" />
<glyph unicode="&#xdc;" horiz-adv-x="1532" d="M527 1853q28 0 53 -11t44 -30t30 -44t11 -53q0 -29 -11 -54.5t-29.5 -44.5t-44 -30t-53.5 -11q-29 0 -55 11t-45.5 30t-30.5 44.5t-11 54.5q0 28 11 53.5t30.5 44t45.5 29.5t55 11zM1009 1853q28 0 53 -11t44 -30t30 -44t11 -53q0 -29 -11 -54.5t-29.5 -44.5t-44 -30 t-53.5 -11q-29 0 -55 11t-45.5 30t-30.5 44.5t-11 54.5q0 28 11 53.5t30.5 44t45.5 29.5t55 11zM1366 1438v-806q0 -156 -32 -278t-103.5 -206t-186 -127.5t-279.5 -43.5q-168 0 -282.5 45t-185 130t-101 206.5t-30.5 273.5v806h284v-840q0 -95 16.5 -171.5t54 -130 t97.5 -82.5t147 -29q89 0 150 29t98 83t53 130.5t16 170.5v840h284z" />
<glyph unicode="&#xdd;" horiz-adv-x="1400" d="M666 2009q36 26 78.5 40.5t82.5 14.5q28 0 53 -7.5t44 -23.5t30 -39.5t11 -55.5q0 -38 -11 -72.5t-33.5 -74.5t-56.5 -91t-79 -122h-156l95 262zM1335 1438l-495 -790v-648h-280v648l-495 790h304l331 -603l331 603h304z" />
<glyph unicode="&#xde;" horiz-adv-x="1295" d="M460 1438v-247h278q105 0 187.5 -28.5t139.5 -83.5t87 -136t30 -186q0 -114 -37 -199.5t-106 -142.5t-167 -86t-219 -29q-56 0 -105.5 3.5t-87.5 7.5v-311h-279v1438h279zM460 502q32 -5 63.5 -7.5t61.5 -2.5q77 0 135.5 13t98 43t59.5 78t20 119q0 70 -15 118.5 t-48 78.5t-85 43.5t-126 13.5h-164v-497z" />
<glyph unicode="&#xdf;" horiz-adv-x="1320" d="M186 1048q0 114 37 192.5t101.5 127.5t151.5 70.5t188 21.5q100 0 186 -21t149 -65.5t98.5 -112t35.5 -160.5q0 -98 -40.5 -173.5t-119.5 -145.5q54 -19 98 -51.5t75 -76.5t47.5 -98.5t16.5 -118.5q0 -133 -44.5 -222t-115.5 -142t-158.5 -75.5t-174.5 -22.5 q-36 0 -71 3.5t-67 9.5l59 194q13 -2 25.5 -2h26.5q45 0 88.5 10t78 36.5t56 74t21.5 122.5q0 77 -33 123.5t-84 73t-112 37.5t-116 18l46 178q25 -2 54 -5.5t51 -7.5q63 47 92.5 104.5t29.5 135.5q0 85 -53 130t-148 45q-92 0 -147 -50.5t-55 -159.5v-1044h-273v1047z" />
<glyph unicode="&#xe0;" horiz-adv-x="1141" d="M518 1191q-45 71 -79 122t-56.5 91t-33.5 74.5t-11 72.5q0 32 11 55.5t30 39.5t44 23.5t53 7.5q40 0 82.5 -14.5t78.5 -40.5l-58 -169l95 -262h-156zM187 989q37 15 84.5 28t101 23.5t111 16.5t116.5 6q83 0 155.5 -13t120.5 -43t75 -81.5t27 -129.5v-406q0 -70 1 -124.5 t4 -106.5q2 -19 4 -34.5t4.5 -30t6 -30.5t8.5 -35q-62 -14 -123.5 -27t-124.5 -25q-11 28 -17.5 57.5t-11.5 67.5h-15q-35 -36 -70 -60t-73 -39t-79 -21t-86 -6q-69 0 -128 16.5t-102.5 50.5t-68 86.5t-24.5 123.5q0 60 12.5 107t35.5 84t55 65t71 49q78 42 174 57.5 t196 15.5h86v130q0 37 -11.5 58.5t-31 32.5t-45.5 14.5t-56 3.5q-81 0 -163.5 -20.5t-157.5 -50.5zM713 484h-20q-71 -1 -135.5 -10.5t-113.5 -32.5t-78.5 -60.5t-29.5 -94.5q0 -63 36.5 -97t102.5 -34q31 0 64 8.5t65 24t60 38.5t49 53v205z" />
<glyph unicode="&#xe1;" horiz-adv-x="1141" d="M562 1622q36 26 78.5 40.5t82.5 14.5q28 0 53 -7.5t44 -23.5t30 -39.5t11 -55.5q0 -38 -11 -72.5t-33.5 -74.5t-56.5 -91t-79 -122h-156l95 262zM187 989q37 15 84.5 28t101 23.5t111 16.5t116.5 6q83 0 155.5 -13t120.5 -43t75 -81.5t27 -129.5v-406q0 -70 1 -124.5 t4 -106.5q2 -19 4 -34.5t4.5 -30t6 -30.5t8.5 -35q-62 -14 -123.5 -27t-124.5 -25q-11 28 -17.5 57.5t-11.5 67.5h-15q-35 -36 -70 -60t-73 -39t-79 -21t-86 -6q-69 0 -128 16.5t-102.5 50.5t-68 86.5t-24.5 123.5q0 60 12.5 107t35.5 84t55 65t71 49q78 42 174 57.5 t196 15.5h86v130q0 37 -11.5 58.5t-31 32.5t-45.5 14.5t-56 3.5q-81 0 -163.5 -20.5t-157.5 -50.5zM713 484h-20q-71 -1 -135.5 -10.5t-113.5 -32.5t-78.5 -60.5t-29.5 -94.5q0 -63 36.5 -97t102.5 -34q31 0 64 8.5t65 24t60 38.5t49 53v205z" />
<glyph unicode="&#xe2;" horiz-adv-x="1141" d="M596 1532l331 -254l-75 -87l-256 111l-256 -111l-75 87zM187 989q37 15 84.5 28t101 23.5t111 16.5t116.5 6q83 0 155.5 -13t120.5 -43t75 -81.5t27 -129.5v-406q0 -70 1 -124.5t4 -106.5q2 -19 4 -34.5t4.5 -30t6 -30.5t8.5 -35q-62 -14 -123.5 -27t-124.5 -25 q-11 28 -17.5 57.5t-11.5 67.5h-15q-35 -36 -70 -60t-73 -39t-79 -21t-86 -6q-69 0 -128 16.5t-102.5 50.5t-68 86.5t-24.5 123.5q0 60 12.5 107t35.5 84t55 65t71 49q78 42 174 57.5t196 15.5h86v130q0 37 -11.5 58.5t-31 32.5t-45.5 14.5t-56 3.5q-81 0 -163.5 -20.5 t-157.5 -50.5zM713 484h-20q-71 -1 -135.5 -10.5t-113.5 -32.5t-78.5 -60.5t-29.5 -94.5q0 -63 36.5 -97t102.5 -34q31 0 64 8.5t65 24t60 38.5t49 53v205z" />
<glyph unicode="&#xe3;" horiz-adv-x="1141" d="M925 1418q-4 -40 -20 -80t-41.5 -72.5t-60 -52.5t-76.5 -20q-35 0 -68.5 11t-65.5 24t-63 24t-61 11q-37 0 -55.5 -21.5t-27.5 -58.5h-119q4 40 20 80t41.5 72t60 52.5t76.5 20.5q35 0 68.5 -11t65.5 -24t63 -24t61 -11q37 0 55.5 21.5t27.5 58.5h119zM187 989 q37 15 84.5 28t101 23.5t111 16.5t116.5 6q83 0 155.5 -13t120.5 -43t75 -81.5t27 -129.5v-406q0 -70 1 -124.5t4 -106.5q2 -19 4 -34.5t4.5 -30t6 -30.5t8.5 -35q-62 -14 -123.5 -27t-124.5 -25q-11 28 -17.5 57.5t-11.5 67.5h-15q-35 -36 -70 -60t-73 -39t-79 -21t-86 -6 q-69 0 -128 16.5t-102.5 50.5t-68 86.5t-24.5 123.5q0 60 12.5 107t35.5 84t55 65t71 49q78 42 174 57.5t196 15.5h86v130q0 37 -11.5 58.5t-31 32.5t-45.5 14.5t-56 3.5q-81 0 -163.5 -20.5t-157.5 -50.5zM713 484h-20q-71 -1 -135.5 -10.5t-113.5 -32.5t-78.5 -60.5 t-29.5 -94.5q0 -63 36.5 -97t102.5 -34q31 0 64 8.5t65 24t60 38.5t49 53v205z" />
<glyph unicode="&#xe4;" horiz-adv-x="1141" d="M357 1466q28 0 53 -11t44 -30t30 -44t11 -53q0 -29 -11 -54.5t-29.5 -44.5t-44 -30t-53.5 -11q-29 0 -55 11t-45.5 30t-30.5 44.5t-11 54.5q0 28 11 53.5t30.5 44t45.5 29.5t55 11zM839 1466q28 0 53 -11t44 -30t30 -44t11 -53q0 -29 -11 -54.5t-29.5 -44.5t-44 -30 t-53.5 -11q-29 0 -55 11t-45.5 30t-30.5 44.5t-11 54.5q0 28 11 53.5t30.5 44t45.5 29.5t55 11zM187 989q37 15 84.5 28t101 23.5t111 16.5t116.5 6q83 0 155.5 -13t120.5 -43t75 -81.5t27 -129.5v-406q0 -70 1 -124.5t4 -106.5q2 -19 4 -34.5t4.5 -30t6 -30.5t8.5 -35 q-62 -14 -123.5 -27t-124.5 -25q-11 28 -17.5 57.5t-11.5 67.5h-15q-35 -36 -70 -60t-73 -39t-79 -21t-86 -6q-69 0 -128 16.5t-102.5 50.5t-68 86.5t-24.5 123.5q0 60 12.5 107t35.5 84t55 65t71 49q78 42 174 57.5t196 15.5h86v130q0 37 -11.5 58.5t-31 32.5t-45.5 14.5 t-56 3.5q-81 0 -163.5 -20.5t-157.5 -50.5zM713 484h-20q-71 -1 -135.5 -10.5t-113.5 -32.5t-78.5 -60.5t-29.5 -94.5q0 -63 36.5 -97t102.5 -34q31 0 64 8.5t65 24t60 38.5t49 53v205z" />
<glyph unicode="&#xe5;" horiz-adv-x="1141" d="M596 1570q41 0 76.5 -15t62 -41.5t41.5 -62t15 -76.5t-15 -76.5t-41.5 -62t-62 -41.5t-76.5 -15t-76.5 15t-62 41.5t-41.5 62t-15 76.5t15 76.5t41.5 62t62 41.5t76.5 15zM596 1458q-35 0 -59 -24t-24 -59t24 -59t59 -24t59 24t24 59t-24 59t-59 24zM187 989 q37 15 84.5 28t101 23.5t111 16.5t116.5 6q83 0 155.5 -13t120.5 -43t75 -81.5t27 -129.5v-406q0 -70 1 -124.5t4 -106.5q2 -19 4 -34.5t4.5 -30t6 -30.5t8.5 -35q-62 -14 -123.5 -27t-124.5 -25q-11 28 -17.5 57.5t-11.5 67.5h-15q-35 -36 -70 -60t-73 -39t-79 -21t-86 -6 q-69 0 -128 16.5t-102.5 50.5t-68 86.5t-24.5 123.5q0 60 12.5 107t35.5 84t55 65t71 49q78 42 174 57.5t196 15.5h86v130q0 37 -11.5 58.5t-31 32.5t-45.5 14.5t-56 3.5q-81 0 -163.5 -20.5t-157.5 -50.5zM713 484h-20q-71 -1 -135.5 -10.5t-113.5 -32.5t-78.5 -60.5 t-29.5 -94.5q0 -63 36.5 -97t102.5 -34q31 0 64 8.5t65 24t60 38.5t49 53v205z" />
<glyph unicode="&#xe6;" horiz-adv-x="1816" d="M187 989q37 15 84.5 28t101 23.5t111 16.5t116.5 6q108 0 186.5 -19.5t123.5 -62.5q56 39 129 60.5t167 21.5q130 0 226 -31.5t159 -97t94 -167t31 -241.5v-79h-737q2 -69 16 -121t45.5 -87.5t84.5 -53.5t133 -18q70 0 151 17.5t169 50.5l64 -188q-41 -17 -89.5 -30 t-101.5 -22t-107.5 -14t-106.5 -5q-156 0 -266.5 43.5t-175.5 134.5q-52 -62 -101.5 -97.5t-97.5 -53.5t-95.5 -22.5t-94.5 -4.5q-69 0 -128 16.5t-102.5 50.5t-68 86.5t-24.5 123.5q0 60 12.5 107t35.5 84t55 65t71 49q78 42 174 57.5t196 15.5h86v130q0 37 -11.5 58.5 t-31 32.5t-45.5 14.5t-56 3.5q-81 0 -163.5 -20.5t-157.5 -50.5zM1442 625q-7 247 -222 247q-111 0 -168.5 -64t-70.5 -183h461zM693 484q-71 -1 -135.5 -10.5t-113.5 -32.5t-78.5 -60.5t-29.5 -94.5q0 -63 36.5 -97t102.5 -34q40 0 76.5 11t68.5 30t59.5 44t49.5 54 q-11 42 -17.5 89t-6.5 101h-12z" />
<glyph unicode="&#xe7;" horiz-adv-x="1063" d="M589 -113q80 -26 113.5 -61t33.5 -88q0 -42 -17 -73t-46.5 -51.5t-70.5 -30.5t-89 -10q-45 0 -91.5 9t-92.5 24l54 101q40 -20 73.5 -31t59.5 -11q32 0 49 16t17 50q0 37 -35.5 59.5t-105.5 45.5l87 142q-124 9 -209.5 47t-138.5 104t-76.5 159t-23.5 212q0 133 34.5 238 t103.5 177t172 110t241 38q80 0 159 -12.5t151 -33.5l-67 -198q-60 20 -116.5 32t-114.5 12q-77 0 -131.5 -25.5t-89.5 -71t-51.5 -108.5t-16.5 -138q0 -174 60.5 -259t200.5 -85q86 0 158.5 18t144.5 43l63 -198q-34 -13 -74 -23t-81.5 -18t-83.5 -13t-81 -7z" />
<glyph unicode="&#xe8;" horiz-adv-x="1202" d="M529 1181q-45 71 -79 122t-56.5 91t-33.5 74.5t-11 72.5q0 32 11 55.5t30 39.5t44 23.5t53 7.5q40 0 82.5 -14.5t78.5 -40.5l-58 -169l95 -262h-156zM1029 47q-41 -17 -89.5 -30t-101.5 -22t-107.5 -14t-106.5 -5q-263 0 -397.5 126.5t-134.5 387.5q0 116 27 220 t87.5 182.5t159 124.5t241.5 46q250 0 373 -132.5t123 -404.5v-79h-739q2 -68 16 -120t46.5 -87.5t85.5 -54t133 -18.5q70 0 151 17.5t169 50.5zM829 625q-7 247 -222 247q-111 0 -168.5 -64t-70.5 -183h461z" />
<glyph unicode="&#xe9;" horiz-adv-x="1202" d="M573 1612q36 26 78.5 40.5t82.5 14.5q28 0 53 -7.5t44 -23.5t30 -39.5t11 -55.5q0 -38 -11 -72.5t-33.5 -74.5t-56.5 -91t-79 -122h-156l95 262zM1029 47q-41 -17 -89.5 -30t-101.5 -22t-107.5 -14t-106.5 -5q-263 0 -397.5 126.5t-134.5 387.5q0 116 27 220t87.5 182.5 t159 124.5t241.5 46q250 0 373 -132.5t123 -404.5v-79h-739q2 -68 16 -120t46.5 -87.5t85.5 -54t133 -18.5q70 0 151 17.5t169 50.5zM829 625q-7 247 -222 247q-111 0 -168.5 -64t-70.5 -183h461z" />
<glyph unicode="&#xea;" horiz-adv-x="1202" d="M607 1522l331 -254l-75 -87l-256 111l-256 -111l-75 87zM1029 47q-41 -17 -89.5 -30t-101.5 -22t-107.5 -14t-106.5 -5q-263 0 -397.5 126.5t-134.5 387.5q0 116 27 220t87.5 182.5t159 124.5t241.5 46q250 0 373 -132.5t123 -404.5v-79h-739q2 -68 16 -120t46.5 -87.5 t85.5 -54t133 -18.5q70 0 151 17.5t169 50.5zM829 625q-7 247 -222 247q-111 0 -168.5 -64t-70.5 -183h461z" />
<glyph unicode="&#xeb;" horiz-adv-x="1202" d="M368 1456q28 0 53 -11t44 -30t30 -44t11 -53q0 -29 -11 -54.5t-29.5 -44.5t-44 -30t-53.5 -11q-29 0 -55 11t-45.5 30t-30.5 44.5t-11 54.5q0 28 11 53.5t30.5 44t45.5 29.5t55 11zM850 1456q28 0 53 -11t44 -30t30 -44t11 -53q0 -29 -11 -54.5t-29.5 -44.5t-44 -30 t-53.5 -11q-29 0 -55 11t-45.5 30t-30.5 44.5t-11 54.5q0 28 11 53.5t30.5 44t45.5 29.5t55 11zM1029 47q-41 -17 -89.5 -30t-101.5 -22t-107.5 -14t-106.5 -5q-263 0 -397.5 126.5t-134.5 387.5q0 116 27 220t87.5 182.5t159 124.5t241.5 46q250 0 373 -132.5t123 -404.5 v-79h-739q2 -68 16 -120t46.5 -87.5t85.5 -54t133 -18.5q70 0 151 17.5t169 50.5zM829 625q-7 247 -222 247q-111 0 -168.5 -64t-70.5 -183h461z" />
<glyph unicode="&#xec;" horiz-adv-x="637" d="M241 1181q-45 71 -79 122t-56.5 91t-33.5 74.5t-11 72.5q0 32 11 55.5t30 39.5t44 23.5t53 7.5q40 0 82.5 -14.5t78.5 -40.5l-58 -169l95 -262h-156zM456 1040v-1040h-275v1040h275z" />
<glyph unicode="&#xed;" horiz-adv-x="635" d="M269 1622q36 26 78.5 40.5t82.5 14.5q28 0 53 -7.5t44 -23.5t30 -39.5t11 -55.5q0 -38 -11 -72.5t-33.5 -74.5t-56.5 -91t-79 -122h-156l95 262zM456 1040v-1040h-275v1040h275z" />
<glyph unicode="&#xee;" horiz-adv-x="665" d="M332 1532l331 -254l-75 -87l-256 111l-256 -111l-75 87zM486 1040v-1040h-275v1040h275z" />
<glyph unicode="&#xef;" horiz-adv-x="637" d="M80 1456q28 0 53 -11t44 -30t30 -44t11 -53q0 -29 -11 -54.5t-29.5 -44.5t-44 -30t-53.5 -11q-29 0 -55 11t-45.5 30t-30.5 44.5t-11 54.5q0 28 11 53.5t30.5 44t45.5 29.5t55 11zM562 1456q28 0 53 -11t44 -30t30 -44t11 -53q0 -29 -11 -54.5t-29.5 -44.5t-44 -30 t-53.5 -11q-29 0 -55 11t-45.5 30t-30.5 44.5t-11 54.5q0 28 11 53.5t30.5 44t45.5 29.5t55 11zM456 1040v-1040h-275v1040h275z" />
<glyph unicode="&#xf0;" horiz-adv-x="1238" d="M877 1635v-230l-67 -54q90 -51 154 -129t105 -177.5t60 -219t19 -254.5q0 -143 -34.5 -254.5t-102 -187.5t-168 -115.5t-232.5 -39.5q-117 0 -213 31t-164.5 93.5t-106 157t-37.5 221.5q0 255 140 372q33 28 72 47t81.5 31t87.5 17t90 5q80 0 152 -14t121 -35 q-24 106 -70.5 183.5t-124.5 128.5l-264 -215v233l73 58q-96 21 -220 24l24 156q48 -2 97 -5.5t95.5 -9t89.5 -13t79 -17.5zM597 767q-66 0 -108.5 -23t-67 -63t-34.5 -92.5t-10 -112.5q0 -69 14 -125.5t42 -96.5t70.5 -62t100.5 -22q59 0 101.5 22t71 57t45.5 78.5t26 87.5 t11.5 83t2.5 66q0 29 -2 58.5t-5 57.5q-63 42 -127.5 64.5t-130.5 22.5z" />
<glyph unicode="&#xf1;" horiz-adv-x="1247" d="M953 1408q-4 -40 -20 -80t-41.5 -72.5t-60 -52.5t-76.5 -20q-35 0 -68.5 11t-65.5 24t-63 24t-61 11q-37 0 -55.5 -21.5t-27.5 -58.5h-119q4 40 20 80t41.5 72t60 52.5t76.5 20.5q35 0 68.5 -11t65.5 -24t63 -24t61 -11q37 0 55.5 21.5t27.5 58.5h119zM448 862 q33 50 68.5 87.5t76 63t89 38t107.5 12.5q66 0 117 -14.5t88 -42t62.5 -68t40.5 -91.5q14 -51 20.5 -110.5t6.5 -128.5v-608h-274v687q0 86 -39.5 131t-107.5 45q-38 0 -74.5 -18t-70.5 -47.5t-63 -66.5t-52 -75v-656h-274v641q0 81 -1.5 135.5t-5.5 96.5q-2 21 -4 37 t-4.5 31t-6 30.5t-8.5 35.5q65 17 129.5 30.5t130.5 25.5q7 -21 13 -41.5t10 -44t7 -51.5t6 -64h13z" />
<glyph unicode="&#xf2;" horiz-adv-x="1213" d="M529 1181q-45 71 -79 122t-56.5 91t-33.5 74.5t-11 72.5q0 32 11 55.5t30 39.5t44 23.5t53 7.5q40 0 82.5 -14.5t78.5 -40.5l-58 -169l95 -262h-156zM609 1063q131 0 227 -41t158.5 -113.5t93 -172t30.5 -216.5t-30.5 -217t-93 -172.5t-158.5 -113.5t-227 -41t-227 41 t-158.5 113.5t-93 172.5t-30.5 217t30.5 216.5t93 172t158.5 113.5t227 41zM609 867q-72 0 -118 -27t-72 -74t-35.5 -110.5t-9.5 -135.5q0 -73 9.5 -136.5t35.5 -110.5t72 -74t118 -27t118 27t72 74t35.5 110.5t9.5 136.5q0 72 -9.5 135.5t-35.5 110.5t-72 74t-118 27z" />
<glyph unicode="&#xf3;" horiz-adv-x="1213" d="M573 1612q36 26 78.5 40.5t82.5 14.5q28 0 53 -7.5t44 -23.5t30 -39.5t11 -55.5q0 -38 -11 -72.5t-33.5 -74.5t-56.5 -91t-79 -122h-156l95 262zM609 1063q131 0 227 -41t158.5 -113.5t93 -172t30.5 -216.5t-30.5 -217t-93 -172.5t-158.5 -113.5t-227 -41t-227 41 t-158.5 113.5t-93 172.5t-30.5 217t30.5 216.5t93 172t158.5 113.5t227 41zM609 867q-72 0 -118 -27t-72 -74t-35.5 -110.5t-9.5 -135.5q0 -73 9.5 -136.5t35.5 -110.5t72 -74t118 -27t118 27t72 74t35.5 110.5t9.5 136.5q0 72 -9.5 135.5t-35.5 110.5t-72 74t-118 27z" />
<glyph unicode="&#xf4;" horiz-adv-x="1213" d="M607 1522l331 -254l-75 -87l-256 111l-256 -111l-75 87zM609 1063q131 0 227 -41t158.5 -113.5t93 -172t30.5 -216.5t-30.5 -217t-93 -172.5t-158.5 -113.5t-227 -41t-227 41t-158.5 113.5t-93 172.5t-30.5 217t30.5 216.5t93 172t158.5 113.5t227 41zM609 867 q-72 0 -118 -27t-72 -74t-35.5 -110.5t-9.5 -135.5q0 -73 9.5 -136.5t35.5 -110.5t72 -74t118 -27t118 27t72 74t35.5 110.5t9.5 136.5q0 72 -9.5 135.5t-35.5 110.5t-72 74t-118 27z" />
<glyph unicode="&#xf5;" horiz-adv-x="1213" d="M936 1408q-4 -40 -20 -80t-41.5 -72.5t-60 -52.5t-76.5 -20q-35 0 -68.5 11t-65.5 24t-63 24t-61 11q-37 0 -55.5 -21.5t-27.5 -58.5h-119q4 40 20 80t41.5 72t60 52.5t76.5 20.5q35 0 68.5 -11t65.5 -24t63 -24t61 -11q37 0 55.5 21.5t27.5 58.5h119zM609 1063 q131 0 227 -41t158.5 -113.5t93 -172t30.5 -216.5t-30.5 -217t-93 -172.5t-158.5 -113.5t-227 -41t-227 41t-158.5 113.5t-93 172.5t-30.5 217t30.5 216.5t93 172t158.5 113.5t227 41zM609 867q-72 0 -118 -27t-72 -74t-35.5 -110.5t-9.5 -135.5q0 -73 9.5 -136.5 t35.5 -110.5t72 -74t118 -27t118 27t72 74t35.5 110.5t9.5 136.5q0 72 -9.5 135.5t-35.5 110.5t-72 74t-118 27z" />
<glyph unicode="&#xf6;" horiz-adv-x="1213" d="M368 1456q28 0 53 -11t44 -30t30 -44t11 -53q0 -29 -11 -54.5t-29.5 -44.5t-44 -30t-53.5 -11q-29 0 -55 11t-45.5 30t-30.5 44.5t-11 54.5q0 28 11 53.5t30.5 44t45.5 29.5t55 11zM850 1456q28 0 53 -11t44 -30t30 -44t11 -53q0 -29 -11 -54.5t-29.5 -44.5t-44 -30 t-53.5 -11q-29 0 -55 11t-45.5 30t-30.5 44.5t-11 54.5q0 28 11 53.5t30.5 44t45.5 29.5t55 11zM609 1063q131 0 227 -41t158.5 -113.5t93 -172t30.5 -216.5t-30.5 -217t-93 -172.5t-158.5 -113.5t-227 -41t-227 41t-158.5 113.5t-93 172.5t-30.5 217t30.5 216.5t93 172 t158.5 113.5t227 41zM609 867q-72 0 -118 -27t-72 -74t-35.5 -110.5t-9.5 -135.5q0 -73 9.5 -136.5t35.5 -110.5t72 -74t118 -27t118 27t72 74t35.5 110.5t9.5 136.5q0 72 -9.5 135.5t-35.5 110.5t-72 74t-118 27z" />
<glyph unicode="&#xf7;" horiz-adv-x="1216" d="M608 1076q32 0 58 -11t44.5 -30.5t28.5 -45t10 -54.5t-11 -54.5t-30.5 -45t-45 -30.5t-54.5 -11t-54.5 11t-45 30.5t-30.5 45t-11 54.5q0 31 11.5 57t31 44.5t45 29t53.5 10.5zM1066 657v-190h-916v190h916zM608 330q32 0 58 -11t44.5 -30.5t28.5 -45t10 -54.5t-11 -54.5 t-30.5 -45t-45 -30.5t-54.5 -11t-54.5 11t-45 30.5t-30.5 45t-11 54.5q0 31 11.5 57t31 44.5t45 29t53.5 10.5z" />
<glyph unicode="&#xf8;" horiz-adv-x="1213" d="M976 928q72 -74 107 -178t35 -230q0 -117 -30.5 -217t-93 -172.5t-158.5 -113.5t-227 -41q-60 0 -111.5 8.5t-96.5 24.5l-130 -208h-229l196 314q-70 73 -104 176.5t-34 228.5q0 117 30.5 216.5t93 172t158.5 113.5t227 41q113 0 203 -32l130 208h229zM700 852 q-39 15 -91 15q-72 0 -118 -27t-72 -74t-35.5 -110.5t-9.5 -135.5q0 -45 3.5 -86.5t11.5 -77.5zM513 188q43 -16 96 -16q72 0 118 27t72 74t35.5 110.5t9.5 136.5q0 47 -3.5 89.5t-13.5 80.5z" />
<glyph unicode="&#xf9;" horiz-adv-x="1258" d="M545 1181q-45 71 -79 122t-56.5 91t-33.5 74.5t-11 72.5q0 32 11 55.5t30 39.5t44 23.5t53 7.5q40 0 82.5 -14.5t78.5 -40.5l-58 -169l95 -262h-156zM1100 1040v-642q0 -81 1.5 -135.5t5.5 -96.5q2 -21 4 -37t4.5 -31t6 -31t8.5 -35q-65 -17 -129.5 -30.5t-130.5 -25.5 q-8 21 -13.5 41.5t-9.5 44t-7 51.5t-6 64h-13q-33 -50 -68.5 -87.5t-76 -63t-89 -38t-107.5 -12.5q-125 0 -196.5 50.5t-103.5 143.5q-19 54 -27 119t-8 142v609h274v-688q0 -86 39.5 -131t107.5 -45q38 0 74.5 18t70.5 47t63 66.5t52 75.5v657h274z" />
<glyph unicode="&#xfa;" horiz-adv-x="1258" d="M589 1612q36 26 78.5 40.5t82.5 14.5q28 0 53 -7.5t44 -23.5t30 -39.5t11 -55.5q0 -38 -11 -72.5t-33.5 -74.5t-56.5 -91t-79 -122h-156l95 262zM1100 1040v-642q0 -81 1.5 -135.5t5.5 -96.5q2 -21 4 -37t4.5 -31t6 -31t8.5 -35q-65 -17 -129.5 -30.5t-130.5 -25.5 q-8 21 -13.5 41.5t-9.5 44t-7 51.5t-6 64h-13q-33 -50 -68.5 -87.5t-76 -63t-89 -38t-107.5 -12.5q-125 0 -196.5 50.5t-103.5 143.5q-19 54 -27 119t-8 142v609h274v-688q0 -86 39.5 -131t107.5 -45q38 0 74.5 18t70.5 47t63 66.5t52 75.5v657h274z" />
<glyph unicode="&#xfb;" horiz-adv-x="1258" d="M623 1522l331 -254l-75 -87l-256 111l-256 -111l-75 87zM1100 1040v-642q0 -81 1.5 -135.5t5.5 -96.5q2 -21 4 -37t4.5 -31t6 -31t8.5 -35q-65 -17 -129.5 -30.5t-130.5 -25.5q-8 21 -13.5 41.5t-9.5 44t-7 51.5t-6 64h-13q-33 -50 -68.5 -87.5t-76 -63t-89 -38 t-107.5 -12.5q-125 0 -196.5 50.5t-103.5 143.5q-19 54 -27 119t-8 142v609h274v-688q0 -86 39.5 -131t107.5 -45q38 0 74.5 18t70.5 47t63 66.5t52 75.5v657h274z" />
<glyph unicode="&#xfc;" horiz-adv-x="1258" d="M384 1456q28 0 53 -11t44 -30t30 -44t11 -53q0 -29 -11 -54.5t-29.5 -44.5t-44 -30t-53.5 -11q-29 0 -55 11t-45.5 30t-30.5 44.5t-11 54.5q0 28 11 53.5t30.5 44t45.5 29.5t55 11zM866 1456q28 0 53 -11t44 -30t30 -44t11 -53q0 -29 -11 -54.5t-29.5 -44.5t-44 -30 t-53.5 -11q-29 0 -55 11t-45.5 30t-30.5 44.5t-11 54.5q0 28 11 53.5t30.5 44t45.5 29.5t55 11zM1100 1040v-642q0 -81 1.5 -135.5t5.5 -96.5q2 -21 4 -37t4.5 -31t6 -31t8.5 -35q-65 -17 -129.5 -30.5t-130.5 -25.5q-8 21 -13.5 41.5t-9.5 44t-7 51.5t-6 64h-13 q-33 -50 -68.5 -87.5t-76 -63t-89 -38t-107.5 -12.5q-125 0 -196.5 50.5t-103.5 143.5q-19 54 -27 119t-8 142v609h274v-688q0 -86 39.5 -131t107.5 -45q38 0 74.5 18t70.5 47t63 66.5t52 75.5v657h274z" />
<glyph unicode="&#xfd;" horiz-adv-x="1286" d="M605 1612q36 26 78.5 40.5t82.5 14.5q28 0 53 -7.5t44 -23.5t30 -39.5t11 -55.5q0 -38 -11 -72.5t-33.5 -74.5t-56.5 -91t-79 -122h-156l95 262zM1113 1040v-1032q0 -117 -37.5 -198.5t-106 -132.5t-164 -74t-210.5 -23q-89 0 -180.5 15.5t-169.5 46.5q21 50 43 98t45 96 q72 -23 146 -39.5t143 -16.5q20 0 43.5 1.5t47.5 7.5t47 18.5t40.5 34t28.5 54t12 78.5v203h-9q-33 -50 -68.5 -87.5t-76.5 -63t-90 -38t-109 -12.5q-98 0 -162 31t-103 89q-38 60 -54 144t-16 191v609h274v-688q0 -86 40 -131t110 -45q38 0 74.5 18t70.5 47t63 66.5 t52 75.5v657h276z" />
<glyph unicode="&#xfe;" horiz-adv-x="1196" d="M411 1440v-547h3q114 170 315 170q105 0 177 -41t116.5 -110.5t64 -161t19.5 -193.5q0 -135 -31 -242.5t-101 -182.5t-183.5 -115.5t-279.5 -40.5q-52 0 -100 3v-379h-273v1840h273zM411 194q43 -8 88 -13t96 -5q52 0 95.5 18.5t75 56t49 94t17.5 131.5q0 85 -7 156 t-28 122.5t-60 80t-103 28.5q-39 0 -70.5 -14t-58 -38.5t-49.5 -59t-45 -74.5v-483z" />
<glyph unicode="&#xff;" horiz-adv-x="1286" d="M400 1456q28 0 53 -11t44 -30t30 -44t11 -53q0 -29 -11 -54.5t-29.5 -44.5t-44 -30t-53.5 -11q-29 0 -55 11t-45.5 30t-30.5 44.5t-11 54.5q0 28 11 53.5t30.5 44t45.5 29.5t55 11zM882 1456q28 0 53 -11t44 -30t30 -44t11 -53q0 -29 -11 -54.5t-29.5 -44.5t-44 -30 t-53.5 -11q-29 0 -55 11t-45.5 30t-30.5 44.5t-11 54.5q0 28 11 53.5t30.5 44t45.5 29.5t55 11zM1113 1040v-1032q0 -117 -37.5 -198.5t-106 -132.5t-164 -74t-210.5 -23q-89 0 -180.5 15.5t-169.5 46.5q21 50 43 98t45 96q72 -23 146 -39.5t143 -16.5q20 0 43.5 1.5 t47.5 7.5t47 18.5t40.5 34t28.5 54t12 78.5v203h-9q-33 -50 -68.5 -87.5t-76.5 -63t-90 -38t-109 -12.5q-98 0 -162 31t-103 89q-38 60 -54 144t-16 191v609h274v-688q0 -86 40 -131t110 -45q38 0 74.5 18t70.5 47t63 66.5t52 75.5v657h276z" />
<glyph unicode="&#x100;" horiz-adv-x="1454" d="M1030 1805v-171h-605v171h605zM865 1438l543 -1438h-282l-164 442h-474l-164 -442h-282l543 1438h280zM725 1141l-163 -498h326z" />
<glyph unicode="&#x101;" horiz-adv-x="1141" d="M899 1418v-171h-605v171h605zM187 989q37 15 84.5 28t101 23.5t111 16.5t116.5 6q83 0 155.5 -13t120.5 -43t75 -81.5t27 -129.5v-406q0 -70 1 -124.5t4 -106.5q2 -19 4 -34.5t4.5 -30t6 -30.5t8.5 -35q-62 -14 -123.5 -27t-124.5 -25q-11 28 -17.5 57.5t-11.5 67.5h-15 q-35 -36 -70 -60t-73 -39t-79 -21t-86 -6q-69 0 -128 16.5t-102.5 50.5t-68 86.5t-24.5 123.5q0 60 12.5 107t35.5 84t55 65t71 49q78 42 174 57.5t196 15.5h86v130q0 37 -11.5 58.5t-31 32.5t-45.5 14.5t-56 3.5q-81 0 -163.5 -20.5t-157.5 -50.5zM713 484h-20 q-71 -1 -135.5 -10.5t-113.5 -32.5t-78.5 -60.5t-29.5 -94.5q0 -63 36.5 -97t102.5 -34q31 0 64 8.5t65 24t60 38.5t49 53v205z" />
<glyph unicode="&#x102;" horiz-adv-x="1454" d="M1055 1904q-18 -145 -101.5 -222t-226.5 -77t-226.5 77t-101.5 222h100q36 -75 93 -104t135 -29t135 29t93 104h100zM865 1438l543 -1438h-282l-164 442h-474l-164 -442h-282l543 1438h280zM725 1141l-163 -498h326z" />
<glyph unicode="&#x103;" horiz-adv-x="1141" d="M924 1517q-18 -145 -101.5 -222t-226.5 -77t-226.5 77t-101.5 222h100q36 -75 93 -104t135 -29t135 29t93 104h100zM187 989q37 15 84.5 28t101 23.5t111 16.5t116.5 6q83 0 155.5 -13t120.5 -43t75 -81.5t27 -129.5v-406q0 -70 1 -124.5t4 -106.5q2 -19 4 -34.5t4.5 -30 t6 -30.5t8.5 -35q-62 -14 -123.5 -27t-124.5 -25q-11 28 -17.5 57.5t-11.5 67.5h-15q-35 -36 -70 -60t-73 -39t-79 -21t-86 -6q-69 0 -128 16.5t-102.5 50.5t-68 86.5t-24.5 123.5q0 60 12.5 107t35.5 84t55 65t71 49q78 42 174 57.5t196 15.5h86v130q0 37 -11.5 58.5 t-31 32.5t-45.5 14.5t-56 3.5q-81 0 -163.5 -20.5t-157.5 -50.5zM713 484h-20q-71 -1 -135.5 -10.5t-113.5 -32.5t-78.5 -60.5t-29.5 -94.5q0 -63 36.5 -97t102.5 -34q31 0 64 8.5t65 24t60 38.5t49 53v205z" />
<glyph unicode="&#x104;" horiz-adv-x="1454" d="M1324 0q-30 -31 -53 -57t-39 -50t-24.5 -48t-8.5 -49q0 -48 21.5 -67.5t60.5 -19.5q24 0 54 7t64 18l-6 -95q-38 -22 -77.5 -34.5t-94.5 -12.5q-37 0 -68.5 11t-54 32.5t-35.5 52.5t-13 70q0 37 10.5 67.5t30 59t46.5 56t61 59.5h-72l-164 442h-474l-164 -442h-282 l543 1438h280l543 -1438h-84zM888 643l-163 498l-163 -498h326z" />
<glyph unicode="&#x105;" horiz-adv-x="1141" d="M978 390q0 -70 1 -124.5t4 -106.5q2 -19 4 -34.5t4.5 -30t6 -30.5t8.5 -35q-37 -8 -73 -16t-73 -16q-59 -60 -91 -105t-32 -96q0 -48 21.5 -67.5t60.5 -19.5q24 0 54 7t64 18l-6 -95q-38 -22 -77.5 -34.5t-94.5 -12.5q-37 0 -68.5 11t-54 32.5t-35.5 52.5t-13 70 t11.5 70.5t32 60.5t50 58.5t65.5 62.5q-12 41 -18 92h-15q-35 -36 -70 -60t-73 -39t-79 -21t-86 -6q-69 0 -128 16.5t-102.5 50.5t-68 86.5t-24.5 123.5q0 60 12.5 107t35.5 84t55 65t71 49q78 42 174 57.5t196 15.5h86v130q0 37 -11.5 58.5t-31 32.5t-45.5 14.5t-56 3.5 q-81 0 -163.5 -20.5t-157.5 -50.5l-61 190q37 15 84.5 28t101 23.5t111 16.5t116.5 6q83 0 155.5 -13t120.5 -43t75 -81.5t27 -129.5v-406zM713 484h-20q-71 -1 -135.5 -10.5t-113.5 -32.5t-78.5 -60.5t-29.5 -94.5q0 -63 36.5 -97t102.5 -34q31 0 64 8.5t65 24t60 38.5 t49 53v205z" />
<glyph unicode="&#x106;" horiz-adv-x="1289" d="M720 2009q36 26 78.5 40.5t82.5 14.5q28 0 53 -7.5t44 -23.5t30 -39.5t11 -55.5q0 -38 -11 -72.5t-33.5 -74.5t-56.5 -91t-79 -122h-156l95 262zM1207 40q-89 -29 -195.5 -46.5t-216.5 -17.5q-187 0 -316.5 43.5t-210.5 133t-117 225t-36 319.5q0 192 35.5 335t112.5 238 t198.5 142.5t294.5 47.5q61 0 120.5 -6t113 -16t100 -23t82.5 -27l-66 -201q-71 26 -151.5 45.5t-169.5 19.5q-107 0 -181 -32t-119.5 -97t-65.5 -164t-20 -232q0 -142 22 -244.5t71 -169t128.5 -98t193.5 -31.5q87 0 174.5 16t162.5 41z" />
<glyph unicode="&#x107;" horiz-adv-x="1063" d="M538 1612q36 26 78.5 40.5t82.5 14.5q28 0 53 -7.5t44 -23.5t30 -39.5t11 -55.5q0 -38 -11 -72.5t-33.5 -74.5t-56.5 -91t-79 -122h-156l95 262zM981 39q-41 -15 -90 -27t-99.5 -20t-99.5 -12t-90 -4q-145 0 -245 34t-161.5 100.5t-88.5 164.5t-27 225q0 133 34.5 238 t103.5 177t172 110t241 38q80 0 159 -12.5t151 -33.5l-67 -198q-60 20 -116.5 32t-114.5 12q-77 0 -131.5 -25.5t-89.5 -71t-51.5 -108.5t-16.5 -138q0 -174 60.5 -259t200.5 -85q86 0 158.5 18t144.5 43z" />
<glyph unicode="&#x10a;" horiz-adv-x="1289" d="M754 1853q28 0 53 -11t44 -30t30 -44t11 -53q0 -29 -11 -54.5t-29.5 -44.5t-44 -30t-53.5 -11q-29 0 -55 11t-45.5 30t-30.5 44.5t-11 54.5q0 28 11 53.5t30.5 44t45.5 29.5t55 11zM1207 40q-89 -29 -195.5 -46.5t-216.5 -17.5q-187 0 -316.5 43.5t-210.5 133t-117 225 t-36 319.5q0 192 35.5 335t112.5 238t198.5 142.5t294.5 47.5q61 0 120.5 -6t113 -16t100 -23t82.5 -27l-66 -201q-71 26 -151.5 45.5t-169.5 19.5q-107 0 -181 -32t-119.5 -97t-65.5 -164t-20 -232q0 -142 22 -244.5t71 -169t128.5 -98t193.5 -31.5q87 0 174.5 16t162.5 41 z" />
<glyph unicode="&#x10b;" horiz-adv-x="1063" d="M572 1456q28 0 53 -11t44 -30t30 -44t11 -53q0 -29 -11 -54.5t-29.5 -44.5t-44 -30t-53.5 -11q-29 0 -55 11t-45.5 30t-30.5 44.5t-11 54.5q0 28 11 53.5t30.5 44t45.5 29.5t55 11zM981 39q-41 -15 -90 -27t-99.5 -20t-99.5 -12t-90 -4q-145 0 -245 34t-161.5 100.5 t-88.5 164.5t-27 225q0 133 34.5 238t103.5 177t172 110t241 38q80 0 159 -12.5t151 -33.5l-67 -198q-60 20 -116.5 32t-114.5 12q-77 0 -131.5 -25.5t-89.5 -71t-51.5 -108.5t-16.5 -138q0 -174 60.5 -259t200.5 -85q86 0 158.5 18t144.5 43z" />
<glyph unicode="&#x10c;" horiz-adv-x="1289" d="M1010 1919l75 -87l-331 -254l-331 254l75 87l256 -111zM1207 40q-89 -29 -195.5 -46.5t-216.5 -17.5q-187 0 -316.5 43.5t-210.5 133t-117 225t-36 319.5q0 192 35.5 335t112.5 238t198.5 142.5t294.5 47.5q61 0 120.5 -6t113 -16t100 -23t82.5 -27l-66 -201 q-71 26 -151.5 45.5t-169.5 19.5q-107 0 -181 -32t-119.5 -97t-65.5 -164t-20 -232q0 -142 22 -244.5t71 -169t128.5 -98t193.5 -31.5q87 0 174.5 16t162.5 41z" />
<glyph unicode="&#x10d;" horiz-adv-x="1063" d="M828 1522l75 -87l-331 -254l-331 254l75 87l256 -111zM981 39q-41 -15 -90 -27t-99.5 -20t-99.5 -12t-90 -4q-145 0 -245 34t-161.5 100.5t-88.5 164.5t-27 225q0 133 34.5 238t103.5 177t172 110t241 38q80 0 159 -12.5t151 -33.5l-67 -198q-60 20 -116.5 32t-114.5 12 q-77 0 -131.5 -25.5t-89.5 -71t-51.5 -108.5t-16.5 -138q0 -174 60.5 -259t200.5 -85q86 0 158.5 18t144.5 43z" />
<glyph unicode="&#x10e;" horiz-adv-x="1424" d="M936 1919l75 -87l-331 -254l-331 254l75 87l256 -111zM571 1438q118 0 218 -12.5t184 -43.5q99 -37 166 -98.5t107 -145.5t57 -188.5t17 -226.5t-17.5 -227t-58.5 -189.5t-107.5 -147t-163.5 -100.5q-84 -32 -184 -45.5t-218 -13.5h-390v1438h390zM501 203q165 0 269 24 t163 83t81 157.5t22 248.5t-21.5 250t-76.5 159.5t-149 84.5t-238 25h-90v-1032h40z" />
<glyph unicode="&#x10f;" horiz-adv-x="1225" d="M1241 1609q40 29 86.5 44.5t90.5 15.5q30 0 57.5 -8.5t48.5 -26t33.5 -43.5t12.5 -61q0 -42 -12 -79.5t-37 -82t-62 -100.5t-87 -134h-172l105 289zM1058 1440v-1101v-43q0 -78 5 -140.5t22 -126.5q-32 -9 -62 -16.5t-59.5 -14t-59.5 -12t-63 -10.5q-8 21 -13.5 40 t-10 41t-7.5 48t-5 61h-11q-116 -190 -328 -190q-105 0 -177 41t-116.5 110.5t-64 161t-19.5 193.5q0 144 38.5 252.5t108.5 181.5t167.5 110t215.5 37q43 0 83.5 -4t81.5 -10v391h274zM787 843q-80 20 -149 20q-59 0 -109.5 -16t-87.5 -52t-57.5 -93t-20.5 -139 q0 -85 6.5 -156t27.5 -122.5t60 -80t104 -28.5q47 0 82.5 19t64.5 53q22 24 41 54.5t38 65.5v475z" />
<glyph unicode="&#x110;" horiz-adv-x="1424" d="M983 1805v-171h-605v171h605zM571 1438q118 0 218 -12.5t184 -43.5q99 -37 166 -98.5t107 -145.5t57 -188.5t17 -226.5t-17.5 -227t-58.5 -189.5t-107.5 -147t-163.5 -100.5q-84 -32 -184 -45.5t-218 -13.5h-390v1438h390zM501 203q165 0 269 24t163 83t81 157.5 t22 248.5t-21.5 250t-76.5 159.5t-149 84.5t-238 25h-90v-1032h40z" />
<glyph unicode="&#x111;" horiz-adv-x="1225" d="M1058 339v-43q0 -78 5 -140.5t22 -126.5q-32 -9 -62 -16.5t-59.5 -14t-59.5 -12t-63 -10.5q-8 21 -13.5 40t-10 41t-7.5 48t-5 61h-11q-116 -190 -328 -190q-105 0 -177 41t-116.5 110.5t-64 161t-19.5 193.5q0 144 38.5 252.5t108.5 181.5t167.5 110t215.5 37 q43 0 83.5 -4t81.5 -10v168h-164v171h164v52h274v-52h167v-171h-167v-878zM787 843q-80 20 -149 20q-59 0 -109.5 -16t-87.5 -52t-57.5 -93t-20.5 -139q0 -85 6.5 -156t27.5 -122.5t60 -80t104 -28.5q47 0 82.5 19t64.5 53q22 24 41 54.5t38 65.5v475z" />
<glyph unicode="&#x112;" horiz-adv-x="1191" d="M921 1798v-171h-605v171h605zM1042 1438v-205h-581v-326h411v-205h-411v-497h602v-205h-881v1438h860z" />
<glyph unicode="&#x113;" horiz-adv-x="1202" d="M910 1408v-171h-605v171h605zM1029 47q-41 -17 -89.5 -30t-101.5 -22t-107.5 -14t-106.5 -5q-263 0 -397.5 126.5t-134.5 387.5q0 116 27 220t87.5 182.5t159 124.5t241.5 46q250 0 373 -132.5t123 -404.5v-79h-739q2 -68 16 -120t46.5 -87.5t85.5 -54t133 -18.5 q70 0 151 17.5t169 50.5zM829 625q-7 247 -222 247q-111 0 -168.5 -64t-70.5 -183h461z" />
<glyph unicode="&#x116;" horiz-adv-x="1191" d="M618 1846q28 0 53 -11t44 -30t30 -44t11 -53q0 -29 -11 -54.5t-29.5 -44.5t-44 -30t-53.5 -11q-29 0 -55 11t-45.5 30t-30.5 44.5t-11 54.5q0 28 11 53.5t30.5 44t45.5 29.5t55 11zM1042 1438v-205h-581v-326h411v-205h-411v-497h602v-205h-881v1438h860z" />
<glyph unicode="&#x117;" horiz-adv-x="1202" d="M607 1456q28 0 53 -11t44 -30t30 -44t11 -53q0 -29 -11 -54.5t-29.5 -44.5t-44 -30t-53.5 -11q-29 0 -55 11t-45.5 30t-30.5 44.5t-11 54.5q0 28 11 53.5t30.5 44t45.5 29.5t55 11zM1029 47q-41 -17 -89.5 -30t-101.5 -22t-107.5 -14t-106.5 -5q-263 0 -397.5 126.5 t-134.5 387.5q0 116 27 220t87.5 182.5t159 124.5t241.5 46q250 0 373 -132.5t123 -404.5v-79h-739q2 -68 16 -120t46.5 -87.5t85.5 -54t133 -18.5q70 0 151 17.5t169 50.5zM829 625q-7 247 -222 247q-111 0 -168.5 -64t-70.5 -183h461z" />
<glyph unicode="&#x118;" horiz-adv-x="1191" d="M878 0q-30 -31 -53 -57t-39 -50t-24.5 -48t-8.5 -49q0 -48 21.5 -67.5t60.5 -19.5q24 0 54 7t64 18l-6 -95q-38 -22 -77.5 -34.5t-94.5 -12.5q-37 0 -68.5 11t-54 32.5t-35.5 52.5t-13 70q0 37 10.5 67.5t30 59t46.5 56t61 59.5h-570v1438h860v-205h-581v-326h411v-205 h-411v-497h602v-205h-185z" />
<glyph unicode="&#x119;" horiz-adv-x="1202" d="M1103 447h-739q2 -68 16 -120t46.5 -87.5t85.5 -54t133 -18.5q70 0 151 17.5t169 50.5l64 -188q-69 -28 -158 -46q-30 -31 -53 -57t-39.5 -50.5t-25 -48t-8.5 -49.5q0 -48 21.5 -67.5t60.5 -19.5q24 0 54 7t64 18l-6 -95q-38 -22 -77.5 -34.5t-94.5 -12.5q-37 0 -68.5 11 t-54 32.5t-35.5 52.5t-13 70q0 34 9 62.5t25.5 55t40 52t52.5 52.5q-26 -2 -50.5 -3t-48.5 -1q-263 0 -397.5 126.5t-134.5 387.5q0 116 27 220t87.5 182.5t159 124.5t241.5 46q250 0 373 -132.5t123 -404.5v-79zM829 625q-7 247 -222 247q-111 0 -168.5 -64t-70.5 -183h461 z" />
<glyph unicode="&#x11a;" horiz-adv-x="1191" d="M874 1912l75 -87l-331 -254l-331 254l75 87l256 -111zM1042 1438v-205h-581v-326h411v-205h-411v-497h602v-205h-881v1438h860z" />
<glyph unicode="&#x11b;" horiz-adv-x="1202" d="M863 1522l75 -87l-331 -254l-331 254l75 87l256 -111zM1029 47q-41 -17 -89.5 -30t-101.5 -22t-107.5 -14t-106.5 -5q-263 0 -397.5 126.5t-134.5 387.5q0 116 27 220t87.5 182.5t159 124.5t241.5 46q250 0 373 -132.5t123 -404.5v-79h-739q2 -68 16 -120t46.5 -87.5 t85.5 -54t133 -18.5q70 0 151 17.5t169 50.5zM829 625q-7 247 -222 247q-111 0 -168.5 -64t-70.5 -183h461z" />
<glyph unicode="&#x11e;" horiz-adv-x="1445" d="M1092 1904q-18 -145 -101.5 -222t-226.5 -77t-226.5 77t-101.5 222h100q36 -75 93 -104t135 -29t135 29t93 104h100zM1303 70q-44 -22 -100 -39.5t-120 -29.5t-133 -18.5t-138 -6.5q-175 0 -306 36t-218 120t-130 222.5t-43 344.5q0 215 45 361t129 235.5t203.5 128.5 t267.5 39q63 0 127.5 -6.5t127.5 -19.5t121.5 -32.5t109.5 -44.5l-77 -195q-101 48 -199.5 69t-186.5 21q-100 0 -172.5 -31.5t-119.5 -96t-69.5 -164t-22.5 -234.5q0 -143 23 -245.5t72.5 -169.5t126 -98.5t184.5 -31.5q54 0 110.5 8t114.5 22v347h-229v203h502v-694z" />
<glyph unicode="&#x11f;" horiz-adv-x="1232" d="M877 1507q-18 -145 -101.5 -222t-226.5 -77t-226.5 77t-101.5 222h100q36 -75 93 -104t135 -29t135 29t93 104h100zM837 1041q48 0 82 1t65 5t65 12t82 21q15 -46 31 -95.5t30 -98.5q-33 -12 -60.5 -20t-53 -13.5t-50 -8t-52.5 -3.5q19 -43 26 -84.5t7 -87.5 q0 -96 -29 -167.5t-83 -121.5q-33 -30 -75 -50t-88 -32.5t-93.5 -17.5t-91.5 -5q-81 0 -148 12q-17 -48 -17 -76q0 -19 7.5 -32.5t24.5 -23.5q26 -14 62.5 -18t80.5 -4h33.5t42.5 0.5t42.5 0.5h35.5q80 0 145 -14.5t111.5 -46.5t72 -85t25.5 -129q0 -87 -42.5 -146.5 t-112.5 -96.5t-160 -53.5t-186 -16.5q-69 0 -137.5 7.5t-132.5 19.5q-50 10 -94.5 22.5t-82.5 26.5q13 31 38.5 79t56.5 103q102 -36 194 -53t168 -17q47 0 88 6t71 20t47.5 37.5t17.5 59.5q0 28 -12 44.5t-33 25.5t-49.5 11.5t-61.5 2.5q-14 0 -29 -0.5t-30 -0.5h-32 q-46 0 -91.5 1.5t-87.5 8.5t-78 20.5t-62.5 37t-42 59t-15.5 85.5q0 49 19 99.5t48 100.5q-27 18 -53.5 47t-47 68.5t-33 89.5t-12.5 112q0 94 29.5 166.5t83.5 123.5q32 30 72 50t84 32t91 17t92 5q57 0 107 -6.5t88 -15.5h93zM553 878q-88 0 -139 -53t-51 -156 q0 -106 51.5 -157.5t138.5 -51.5q88 0 139 53t51 156q0 104 -52.5 156.5t-137.5 52.5z" />
<glyph unicode="&#x120;" horiz-adv-x="1445" d="M764 1853q28 0 53 -11t44 -30t30 -44t11 -53q0 -29 -11 -54.5t-29.5 -44.5t-44 -30t-53.5 -11q-29 0 -55 11t-45.5 30t-30.5 44.5t-11 54.5q0 28 11 53.5t30.5 44t45.5 29.5t55 11zM1303 70q-44 -22 -100 -39.5t-120 -29.5t-133 -18.5t-138 -6.5q-175 0 -306 36t-218 120 t-130 222.5t-43 344.5q0 215 45 361t129 235.5t203.5 128.5t267.5 39q63 0 127.5 -6.5t127.5 -19.5t121.5 -32.5t109.5 -44.5l-77 -195q-101 48 -199.5 69t-186.5 21q-100 0 -172.5 -31.5t-119.5 -96t-69.5 -164t-22.5 -234.5q0 -143 23 -245.5t72.5 -169.5t126 -98.5 t184.5 -31.5q54 0 110.5 8t114.5 22v347h-229v203h502v-694z" />
<glyph unicode="&#x121;" horiz-adv-x="1232" d="M549 1456q28 0 53 -11t44 -30t30 -44t11 -53q0 -29 -11 -54.5t-29.5 -44.5t-44 -30t-53.5 -11q-29 0 -55 11t-45.5 30t-30.5 44.5t-11 54.5q0 28 11 53.5t30.5 44t45.5 29.5t55 11zM837 1041q48 0 82 1t65 5t65 12t82 21q15 -46 31 -95.5t30 -98.5q-33 -12 -60.5 -20 t-53 -13.5t-50 -8t-52.5 -3.5q19 -43 26 -84.5t7 -87.5q0 -96 -29 -167.5t-83 -121.5q-33 -30 -75 -50t-88 -32.5t-93.5 -17.5t-91.5 -5q-81 0 -148 12q-17 -48 -17 -76q0 -19 7.5 -32.5t24.5 -23.5q26 -14 62.5 -18t80.5 -4h33.5t42.5 0.5t42.5 0.5h35.5q80 0 145 -14.5 t111.5 -46.5t72 -85t25.5 -129q0 -87 -42.5 -146.5t-112.5 -96.5t-160 -53.5t-186 -16.5q-69 0 -137.5 7.5t-132.5 19.5q-50 10 -94.5 22.5t-82.5 26.5q13 31 38.5 79t56.5 103q102 -36 194 -53t168 -17q47 0 88 6t71 20t47.5 37.5t17.5 59.5q0 28 -12 44.5t-33 25.5 t-49.5 11.5t-61.5 2.5q-14 0 -29 -0.5t-30 -0.5h-32q-46 0 -91.5 1.5t-87.5 8.5t-78 20.5t-62.5 37t-42 59t-15.5 85.5q0 49 19 99.5t48 100.5q-27 18 -53.5 47t-47 68.5t-33 89.5t-12.5 112q0 94 29.5 166.5t83.5 123.5q32 30 72 50t84 32t91 17t92 5q57 0 107 -6.5 t88 -15.5h93zM553 878q-88 0 -139 -53t-51 -156q0 -106 51.5 -157.5t138.5 -51.5q88 0 139 53t51 156q0 104 -52.5 156.5t-137.5 52.5z" />
<glyph unicode="&#x122;" horiz-adv-x="1445" d="M1303 70q-44 -22 -100 -39.5t-120 -29.5t-133 -18.5t-138 -6.5q-175 0 -306 36t-218 120t-130 222.5t-43 344.5q0 215 45 361t129 235.5t203.5 128.5t267.5 39q63 0 127.5 -6.5t127.5 -19.5t121.5 -32.5t109.5 -44.5l-77 -195q-101 48 -199.5 69t-186.5 21 q-100 0 -172.5 -31.5t-119.5 -96t-69.5 -164t-22.5 -234.5q0 -143 23 -245.5t72.5 -169.5t126 -98.5t184.5 -31.5q54 0 110.5 8t114.5 22v347h-229v203h502v-694zM677 -182q36 26 78.5 40.5t82.5 14.5q28 0 53 -7.5t44 -23.5t30 -39.5t11 -55.5q0 -38 -11 -72.5t-33.5 -74.5 t-56.5 -91t-79 -122h-156l95 262z" />
<glyph unicode="&#x123;" horiz-adv-x="1232" d="M739 1703l-95 -262l58 -169q-36 -26 -78.5 -40.5t-82.5 -14.5q-28 0 -53 7.5t-44 23.5t-30 39.5t-11 55.5q0 38 11 72.5t33.5 74.5t56.5 91t79 122h156zM837 1041q48 0 82 1t65 5t65 12t82 21q15 -46 31 -95.5t30 -98.5q-33 -12 -60.5 -20t-53 -13.5t-50 -8t-52.5 -3.5 q19 -43 26 -84.5t7 -87.5q0 -96 -29 -167.5t-83 -121.5q-33 -30 -75 -50t-88 -32.5t-93.5 -17.5t-91.5 -5q-81 0 -148 12q-17 -48 -17 -76q0 -19 7.5 -32.5t24.5 -23.5q26 -14 62.5 -18t80.5 -4h33.5t42.5 0.5t42.5 0.5h35.5q80 0 145 -14.5t111.5 -46.5t72 -85t25.5 -129 q0 -87 -42.5 -146.5t-112.5 -96.5t-160 -53.5t-186 -16.5q-69 0 -137.5 7.5t-132.5 19.5q-50 10 -94.5 22.5t-82.5 26.5q13 31 38.5 79t56.5 103q102 -36 194 -53t168 -17q47 0 88 6t71 20t47.5 37.5t17.5 59.5q0 28 -12 44.5t-33 25.5t-49.5 11.5t-61.5 2.5q-14 0 -29 -0.5 t-30 -0.5h-32q-46 0 -91.5 1.5t-87.5 8.5t-78 20.5t-62.5 37t-42 59t-15.5 85.5q0 49 19 99.5t48 100.5q-27 18 -53.5 47t-47 68.5t-33 89.5t-12.5 112q0 94 29.5 166.5t83.5 123.5q32 30 72 50t84 32t91 17t92 5q57 0 107 -6.5t88 -15.5h93zM553 878q-88 0 -139 -53 t-51 -156q0 -106 51.5 -157.5t138.5 -51.5q88 0 139 53t51 156q0 104 -52.5 156.5t-137.5 52.5z" />
<glyph unicode="&#x126;" horiz-adv-x="1746" d="M1476 1438v-210h170v-161h-170v-1067h-279v701h-636v-701h-279v1067h-182v161h182v210h279v-210h636v210h279zM1197 1067h-636v-161h636v161z" />
<glyph unicode="&#x127;" horiz-adv-x="1259" d="M447 1440v-172h181v-170h-181v-236h7q31 46 64 83t73.5 63.5t89.5 40.5t111 14q119 0 191.5 -47.5t107.5 -144.5q19 -52 27.5 -117t8.5 -146v-608h-274v687q0 81 -38 128.5t-109 47.5q-40 0 -78 -20t-72 -50t-62 -66t-47 -69v-658h-275v1098h-171v170h171v172h275z" />
<glyph unicode="&#x12a;" horiz-adv-x="687" d="M647 1805v-171h-605v171h605zM483 1438v-1438h-279v1438h279z" />
<glyph unicode="&#x12b;" horiz-adv-x="637" d="M622 1408v-171h-605v171h605zM456 1040v-1040h-275v1040h275z" />
<glyph unicode="&#x12e;" horiz-adv-x="687" d="M428 0q-30 -31 -53 -57t-39 -50t-24.5 -48t-8.5 -49q0 -48 21.5 -67.5t60.5 -19.5q24 0 54 7t64 18l-6 -95q-38 -22 -77.5 -34.5t-94.5 -12.5q-37 0 -68.5 11t-54 32.5t-35.5 52.5t-13 70q0 37 10.5 67.5t30 59t46.5 56t61 59.5h-98v1438h279v-1438h-55z" />
<glyph unicode="&#x12f;" horiz-adv-x="637" d="M319 1178q-29 0 -55 11t-45.5 30t-30.5 44.5t-11 54.5q0 28 11 53.5t30.5 44t45.5 29.5t55 11q28 0 53 -11t44 -30t30 -44t11 -53q0 -29 -11 -54.5t-29.5 -44.5t-44 -30t-53.5 -11zM384 0q-30 -31 -53 -57t-39 -50t-24.5 -48t-8.5 -49q0 -48 21.5 -67.5t60.5 -19.5 q24 0 54 7t64 18l-6 -95q-38 -22 -77.5 -34.5t-94.5 -12.5q-37 0 -68.5 11t-54 32.5t-35.5 52.5t-13 70q0 37 10.5 67.5t30 59t46.5 56t61 59.5h-77v1040h275v-1040h-72z" />
<glyph unicode="&#x130;" horiz-adv-x="687" d="M344 1853q28 0 53 -11t44 -30t30 -44t11 -53q0 -29 -11 -54.5t-29.5 -44.5t-44 -30t-53.5 -11q-29 0 -55 11t-45.5 30t-30.5 44.5t-11 54.5q0 28 11 53.5t30.5 44t45.5 29.5t55 11zM483 1438v-1438h-279v1438h279z" />
<glyph unicode="&#x131;" horiz-adv-x="637" d="M456 1040v-1040h-275v1040h275z" />
<glyph unicode="&#x132;" horiz-adv-x="1225" d="M160 1438h279v-1438h-279v1438zM1065 327q0 -121 -16 -208t-48.5 -155t-82 -124.5t-117.5 -115.5q-47 36 -98 75.5t-94 81.5q49 52 82.5 94t54.5 88.5t30.5 105.5t9.5 145v1124h279v-1111z" />
<glyph unicode="&#x133;" horiz-adv-x="1119" d="M277 1547q34 0 64.5 -13t53 -35.5t35.5 -53t13 -64.5q0 -35 -13 -65t-35.5 -53t-53 -36t-64.5 -13q-35 0 -65 13t-53 36t-36 53t-13 65q0 34 13 64.5t36 53t53 35.5t65 13zM843 1547q34 0 64.5 -13t53 -35.5t35.5 -53t13 -64.5q0 -35 -13 -65t-35.5 -53t-53 -36 t-64.5 -13q-35 0 -65 13t-53 36t-36 53t-13 65q0 34 13 64.5t36 53t53 35.5t65 13zM139 1040h274v-1040h-274v1040zM980 144q0 -119 -15.5 -204t-47.5 -152t-80.5 -122t-115.5 -113q-47 35 -96.5 74t-91.5 80q47 51 80 91.5t53.5 86.5t30 104t9.5 142v909h274v-896z" />
<glyph unicode="&#x136;" horiz-adv-x="1310" d="M990 1460l180 -150l-486 -576l586 -734h-352l-455 615v-615h-279v1438h279v-602zM524 -182q36 26 78.5 40.5t82.5 14.5q28 0 53 -7.5t44 -23.5t30 -39.5t11 -55.5q0 -38 -11 -72.5t-33.5 -74.5t-56.5 -91t-79 -122h-156l95 262z" />
<glyph unicode="&#x137;" horiz-adv-x="1138" d="M441 1440v-761l417 384l152 -165l-370 -340l478 -558h-334l-343 415v-415h-274v1440h274zM472 -182q36 26 78.5 40.5t82.5 14.5q28 0 53 -7.5t44 -23.5t30 -39.5t11 -55.5q0 -38 -11 -72.5t-33.5 -74.5t-56.5 -91t-79 -122h-156l95 262z" />
<glyph unicode="&#x139;" horiz-adv-x="1133" d="M300 2009q36 26 78.5 40.5t82.5 14.5q28 0 53 -7.5t44 -23.5t30 -39.5t11 -55.5q0 -38 -11 -72.5t-33.5 -74.5t-56.5 -91t-79 -122h-156l95 262zM475 1438v-1233h561v-205h-840v1438h279z" />
<glyph unicode="&#x13a;" horiz-adv-x="513" d="M223 2012q36 26 78.5 40.5t82.5 14.5q28 0 53 -7.5t44 -23.5t30 -39.5t11 -55.5q0 -38 -11 -72.5t-33.5 -74.5t-56.5 -91t-79 -122h-156l95 262zM384 408q0 -83 1.5 -139t5.5 -98q2 -22 4 -38.5t4 -32t5.5 -31t8.5 -34.5q-66 -20 -132 -34.5t-135 -24.5 q-15 45 -25.5 95.5t-10.5 110.5v1258h274v-1032z" />
<glyph unicode="&#x13b;" horiz-adv-x="1133" d="M475 1438v-1233h561v-205h-840v1438h279zM481 -182q36 26 78.5 40.5t82.5 14.5q28 0 53 -7.5t44 -23.5t30 -39.5t11 -55.5q0 -38 -11 -72.5t-33.5 -74.5t-56.5 -91t-79 -122h-156l95 262z" />
<glyph unicode="&#x13c;" horiz-adv-x="513" d="M384 408q0 -83 1.5 -139t5.5 -98q2 -22 4 -38.5t4 -32t5.5 -31t8.5 -34.5q-66 -20 -132 -34.5t-135 -24.5q-15 45 -25.5 95.5t-10.5 110.5v1258h274v-1032zM96 -182q36 26 78.5 40.5t82.5 14.5q28 0 53 -7.5t44 -23.5t30 -39.5t11 -55.5q0 -38 -11 -72.5t-33.5 -74.5 t-56.5 -91t-79 -122h-156l95 262z" />
<glyph unicode="&#x13d;" horiz-adv-x="1133" d="M759 1622q40 29 86.5 44.5t90.5 15.5q30 0 57.5 -8.5t48.5 -26t33.5 -43.5t12.5 -61q0 -42 -12 -79.5t-37 -82t-62 -100.5t-87 -134h-172l105 289zM475 1438v-1233h561v-205h-840v1438h279z" />
<glyph unicode="&#x13e;" horiz-adv-x="513" d="M567 1557q40 29 86.5 44.5t90.5 15.5q30 0 57.5 -8.5t48.5 -26t33.5 -43.5t12.5 -61q0 -42 -12 -79.5t-37 -82t-62 -100.5t-87 -134h-172l105 289zM384 408q0 -83 1.5 -139t5.5 -98q2 -22 4 -38.5t4 -32t5.5 -31t8.5 -34.5q-66 -20 -132 -34.5t-135 -24.5 q-15 45 -25.5 95.5t-10.5 110.5v1258h274v-1032z" />
<glyph unicode="&#x13f;" horiz-adv-x="1035" d="M970 0h-840v1438h279v-1233h561v-205zM759 930q28 0 53 -11t44 -30t30 -44t11 -53q0 -29 -11 -54.5t-29.5 -44.5t-44 -30t-53.5 -11q-29 0 -55 11t-45.5 30t-30.5 44.5t-11 54.5q0 28 11 53.5t30.5 44t45.5 29.5t55 11z" />
<glyph unicode="&#x140;" horiz-adv-x="493" d="M384 408q0 -83 1.5 -139t5.5 -98q2 -22 4 -38.5t4 -32t5.5 -31t8.5 -34.5q-66 -20 -132 -34.5t-135 -24.5q-15 45 -25.5 95.5t-10.5 110.5v1258h274v-1032zM667 868q28 0 53 -11t44 -30t30 -44t11 -53q0 -29 -11 -54.5t-29.5 -44.5t-44 -30t-53.5 -11q-29 0 -55 11 t-45.5 30t-30.5 44.5t-11 54.5q0 28 11 53.5t30.5 44t45.5 29.5t55 11z" />
<glyph unicode="&#x141;" horiz-adv-x="1144" d="M485 1438v-492l328 184v-207l-328 -184v-534h561v-205h-840v582l-196 -110v207l196 110v649h279z" />
<glyph unicode="&#x142;" horiz-adv-x="685" d="M480 1440v-508l175 98v-207l-175 -98v-725h-275v570l-175 -98v207l175 98v663h275z" />
<glyph unicode="&#x143;" horiz-adv-x="1574" d="M753 2009q36 26 78.5 40.5t82.5 14.5q28 0 53 -7.5t44 -23.5t30 -39.5t11 -55.5q0 -38 -11 -72.5t-33.5 -74.5t-56.5 -91t-79 -122h-156l95 262zM1396 1438v-1438h-309l-629 1075v-1075h-279v1438h309l629 -1075v1075h279z" />
<glyph unicode="&#x144;" horiz-adv-x="1247" d="M590 1612q36 26 78.5 40.5t82.5 14.5q28 0 53 -7.5t44 -23.5t30 -39.5t11 -55.5q0 -38 -11 -72.5t-33.5 -74.5t-56.5 -91t-79 -122h-156l95 262zM448 862q33 50 68.5 87.5t76 63t89 38t107.5 12.5q66 0 117 -14.5t88 -42t62.5 -68t40.5 -91.5q14 -51 20.5 -110.5 t6.5 -128.5v-608h-274v687q0 86 -39.5 131t-107.5 45q-38 0 -74.5 -18t-70.5 -47.5t-63 -66.5t-52 -75v-656h-274v641q0 81 -1.5 135.5t-5.5 96.5q-2 21 -4 37t-4.5 31t-6 30.5t-8.5 35.5q65 17 129.5 30.5t130.5 25.5q7 -21 13 -41.5t10 -44t7 -51.5t6 -64h13z" />
<glyph unicode="&#x145;" horiz-adv-x="1574" d="M1396 1438v-1438h-309l-629 1075v-1075h-279v1438h309l629 -1075v1075h279zM656 -182q36 26 78.5 40.5t82.5 14.5q28 0 53 -7.5t44 -23.5t30 -39.5t11 -55.5q0 -38 -11 -72.5t-33.5 -74.5t-56.5 -91t-79 -122h-156l95 262z" />
<glyph unicode="&#x146;" horiz-adv-x="1247" d="M448 862q33 50 68.5 87.5t76 63t89 38t107.5 12.5q66 0 117 -14.5t88 -42t62.5 -68t40.5 -91.5q14 -51 20.5 -110.5t6.5 -128.5v-608h-274v687q0 86 -39.5 131t-107.5 45q-38 0 -74.5 -18t-70.5 -47.5t-63 -66.5t-52 -75v-656h-274v641q0 81 -1.5 135.5t-5.5 96.5 q-2 21 -4 37t-4.5 31t-6 30.5t-8.5 35.5q65 17 129.5 30.5t130.5 25.5q7 -21 13 -41.5t10 -44t7 -51.5t6 -64h13zM513 -182q36 26 78.5 40.5t82.5 14.5q28 0 53 -7.5t44 -23.5t30 -39.5t11 -55.5q0 -38 -11 -72.5t-33.5 -74.5t-56.5 -91t-79 -122h-156l95 262z" />
<glyph unicode="&#x147;" horiz-adv-x="1574" d="M1043 1919l75 -87l-331 -254l-331 254l75 87l256 -111zM1396 1438v-1438h-309l-629 1075v-1075h-279v1438h309l629 -1075v1075h279z" />
<glyph unicode="&#x148;" horiz-adv-x="1247" d="M880 1522l75 -87l-331 -254l-331 254l75 87l256 -111zM448 862q33 50 68.5 87.5t76 63t89 38t107.5 12.5q66 0 117 -14.5t88 -42t62.5 -68t40.5 -91.5q14 -51 20.5 -110.5t6.5 -128.5v-608h-274v687q0 86 -39.5 131t-107.5 45q-38 0 -74.5 -18t-70.5 -47.5t-63 -66.5 t-52 -75v-656h-274v641q0 81 -1.5 135.5t-5.5 96.5q-2 21 -4 37t-4.5 31t-6 30.5t-8.5 35.5q65 17 129.5 30.5t130.5 25.5q7 -21 13 -41.5t10 -44t7 -51.5t6 -64h13z" />
<glyph unicode="&#x14a;" horiz-adv-x="1576" d="M1396 1438v-1263q0 -129 -10.5 -227t-43.5 -174q-18 -40 -45 -79t-67.5 -76.5t-95 -73.5t-127.5 -72l-112 154q53 47 94.5 86.5t70.5 89.5q23 41 36.5 92.5t18.5 124.5l-657 1055v-1075h-279v1438h309l629 -1011v1011h279z" />
<glyph unicode="&#x14b;" horiz-adv-x="1304" d="M448 862q33 50 68.5 87.5t76 63t89 38t107.5 12.5q83 0 141.5 -22.5t97.5 -64.5q54 -59 75 -152t21 -216v-464q0 -71 -5.5 -128.5t-18.5 -107.5t-35.5 -94.5t-56.5 -87.5q-25 -32 -61 -72.5t-92 -95.5l-178 138l40 51q31 40 55.5 77t41.5 80.5t26.5 97.5t9.5 129v556 q0 86 -39.5 131t-107.5 45q-38 0 -74.5 -18t-70.5 -47.5t-63 -66.5t-52 -75v-656h-274v641q0 81 -1.5 135.5t-5.5 96.5q-2 21 -4 37t-4.5 31t-6 30.5t-8.5 35.5q65 17 129.5 30.5t130.5 25.5q7 -21 13 -41.5t10 -44t7 -51.5t6 -64h13z" />
<glyph unicode="&#x14c;" horiz-adv-x="1542" d="M1074 1805v-171h-605v171h605zM771 1460q180 0 304 -54.5t201.5 -152.5t111.5 -234.5t34 -300.5t-34 -300.5t-111.5 -234.5t-201.5 -152.5t-304 -54.5q-177 0 -301 53t-201.5 150t-113 234t-35.5 305t35.5 305t113 234t201.5 150t301 53zM771 1255q-105 0 -175.5 -34 t-113 -101.5t-60.5 -168t-18 -233.5t18 -233.5t60.5 -168t113 -101.5t175.5 -34q104 0 174.5 33.5t113 100.5t61 168t18.5 235t-18.5 235t-61 168t-113 100.5t-174.5 33.5z" />
<glyph unicode="&#x14d;" horiz-adv-x="1213" d="M910 1408v-171h-605v171h605zM609 1063q131 0 227 -41t158.5 -113.5t93 -172t30.5 -216.5t-30.5 -217t-93 -172.5t-158.5 -113.5t-227 -41t-227 41t-158.5 113.5t-93 172.5t-30.5 217t30.5 216.5t93 172t158.5 113.5t227 41zM609 867q-72 0 -118 -27t-72 -74 t-35.5 -110.5t-9.5 -135.5q0 -73 9.5 -136.5t35.5 -110.5t72 -74t118 -27t118 27t72 74t35.5 110.5t9.5 136.5q0 72 -9.5 135.5t-35.5 110.5t-72 74t-118 27z" />
<glyph unicode="&#x150;" horiz-adv-x="1542" d="M552 2009q36 26 78.5 40.5t82.5 14.5q28 0 53 -7.5t44 -23.5t30 -39.5t11 -55.5q0 -38 -11 -72.5t-33.5 -74.5t-56.5 -91t-79 -122h-156l95 262zM952 2009q36 26 78.5 40.5t82.5 14.5q28 0 53 -7.5t44 -23.5t30 -39.5t11 -55.5q0 -38 -11 -72.5t-33.5 -74.5t-56.5 -91 t-79 -122h-156l95 262zM771 1460q180 0 304 -54.5t201.5 -152.5t111.5 -234.5t34 -300.5t-34 -300.5t-111.5 -234.5t-201.5 -152.5t-304 -54.5q-177 0 -301 53t-201.5 150t-113 234t-35.5 305t35.5 305t113 234t201.5 150t301 53zM771 1255q-105 0 -175.5 -34t-113 -101.5 t-60.5 -168t-18 -233.5t18 -233.5t60.5 -168t113 -101.5t175.5 -34q104 0 174.5 33.5t113 100.5t61 168t18.5 235t-18.5 235t-61 168t-113 100.5t-174.5 33.5z" />
<glyph unicode="&#x151;" horiz-adv-x="1213" d="M388 1612q36 26 78.5 40.5t82.5 14.5q28 0 53 -7.5t44 -23.5t30 -39.5t11 -55.5q0 -38 -11 -72.5t-33.5 -74.5t-56.5 -91t-79 -122h-156l95 262zM788 1612q36 26 78.5 40.5t82.5 14.5q28 0 53 -7.5t44 -23.5t30 -39.5t11 -55.5q0 -38 -11 -72.5t-33.5 -74.5t-56.5 -91 t-79 -122h-156l95 262zM609 1063q131 0 227 -41t158.5 -113.5t93 -172t30.5 -216.5t-30.5 -217t-93 -172.5t-158.5 -113.5t-227 -41t-227 41t-158.5 113.5t-93 172.5t-30.5 217t30.5 216.5t93 172t158.5 113.5t227 41zM609 867q-72 0 -118 -27t-72 -74t-35.5 -110.5 t-9.5 -135.5q0 -73 9.5 -136.5t35.5 -110.5t72 -74t118 -27t118 27t72 74t35.5 110.5t9.5 136.5q0 72 -9.5 135.5t-35.5 110.5t-72 74t-118 27z" />
<glyph unicode="&#x152;" horiz-adv-x="2152" d="M1032 48q-58 -37 -123.5 -54.5t-137.5 -17.5q-177 0 -301 53t-201.5 150t-113 234t-35.5 305t35.5 304t113 232.5t201.5 150t301 55.5q72 0 137.5 -17.5t123.5 -54.5v50h860v-205h-581v-326h411v-205h-411v-497h602v-205h-881v48zM1032 1157q-44 49 -107.5 73.5 t-153.5 24.5q-105 0 -175.5 -34t-113 -101.5t-60.5 -168t-18 -233.5t18 -233.5t60.5 -168t113 -101.5t175.5 -34q90 0 153.5 24.5t107.5 73.5v878z" />
<glyph unicode="&#x153;" horiz-adv-x="1952" d="M1780 48q-41 -17 -89.5 -30t-101.5 -22t-107.5 -14t-106.5 -5q-134 0 -234.5 36.5t-167.5 125.5q-63 -85 -153 -123.5t-211 -38.5q-131 0 -227 41t-158.5 113.5t-93 172.5t-30.5 217t30.5 217t93 172.5t158.5 113.5t227 41q125 0 217.5 -39.5t155.5 -121.5 q60 81 148.5 121t213.5 40q130 0 225.5 -32t158.5 -98t93.5 -167.5t30.5 -241.5v-76h-735q2 -66 16 -117.5t45.5 -86.5t84.5 -53.5t133 -18.5q70 0 151 17.5t169 50.5zM1580 628q-7 247 -222 247q-111 0 -168.5 -64t-70.5 -183h461zM609 866q-72 0 -118 -27t-72 -74 t-35.5 -109.5t-9.5 -134.5t9.5 -134.5t35.5 -109.5t72 -74t118 -27t118 27t72 74t35.5 109.5t9.5 134.5t-9.5 134.5t-35.5 109.5t-72 74t-118 27z" />
<glyph unicode="&#x154;" horiz-adv-x="1323" d="M608 2009q36 26 78.5 40.5t82.5 14.5q28 0 53 -7.5t44 -23.5t30 -39.5t11 -55.5q0 -38 -11 -72.5t-33.5 -74.5t-56.5 -91t-79 -122h-156l95 262zM711 1438q97 0 179 -24.5t142 -73.5t93.5 -124t33.5 -175q0 -81 -27 -148t-76 -116.5t-116 -80.5t-148 -41l-1 -3 q40 -23 78 -64.5t73.5 -90.5t68 -100t59.5 -94l198 -303h-315q-35 58 -78.5 132.5t-87 148.5t-82 137.5t-62.5 99.5q-23 33 -42.5 56t-39.5 37t-42.5 20t-50.5 7h-8v-638h-279v1438h530zM604 830q65 0 115.5 10.5t85 35t52.5 64.5t18 98t-18 98t-52.5 64.5t-85 35 t-115.5 10.5h-144v-416h144z" />
<glyph unicode="&#x155;" horiz-adv-x="950" d="M460 1612q36 26 78.5 40.5t82.5 14.5q28 0 53 -7.5t44 -23.5t30 -39.5t11 -55.5q0 -38 -11 -72.5t-33.5 -74.5t-56.5 -91t-79 -122h-156l95 262zM455 862q36 53 67 87q30 33 63 54.5t66.5 35t67.5 19t67 5.5q28 0 54.5 -3.5t49.5 -8.5q-3 -28 -8 -59.5t-11 -63.5 t-13.5 -63t-15.5 -58q-57 11 -99 18.5t-75 7.5q-31 0 -56.5 -8.5t-50.5 -29.5t-51.5 -55.5t-59.5 -86.5v-653h-274v641q0 58 -1 108.5t-4 95t-9 84.5t-16 78q65 17 129.5 31t130.5 25q7 -21 13 -41.5t10 -44t7 -51.5t6 -64h13z" />
<glyph unicode="&#x156;" horiz-adv-x="1323" d="M711 1438q97 0 179 -24.5t142 -73.5t93.5 -124t33.5 -175q0 -81 -27 -148t-76 -116.5t-116 -80.5t-148 -41l-1 -3q40 -23 78 -64.5t73.5 -90.5t68 -100t59.5 -94l198 -303h-315q-35 58 -78.5 132.5t-87 148.5t-82 137.5t-62.5 99.5q-23 33 -42.5 56t-39.5 37t-42.5 20 t-50.5 7h-8v-638h-279v1438h530zM604 830q65 0 115.5 10.5t85 35t52.5 64.5t18 98t-18 98t-52.5 64.5t-85 35t-115.5 10.5h-144v-416h144zM551 -182q36 26 78.5 40.5t82.5 14.5q28 0 53 -7.5t44 -23.5t30 -39.5t11 -55.5q0 -38 -11 -72.5t-33.5 -74.5t-56.5 -91t-79 -122 h-156l95 262z" />
<glyph unicode="&#x157;" horiz-adv-x="950" d="M455 862q36 53 67 87q30 33 63 54.5t66.5 35t67.5 19t67 5.5q28 0 54.5 -3.5t49.5 -8.5q-3 -28 -8 -59.5t-11 -63.5t-13.5 -63t-15.5 -58q-57 11 -99 18.5t-75 7.5q-31 0 -56.5 -8.5t-50.5 -29.5t-51.5 -55.5t-59.5 -86.5v-653h-274v641q0 58 -1 108.5t-4 95t-9 84.5 t-16 78q65 17 129.5 31t130.5 25q7 -21 13 -41.5t10 -44t7 -51.5t6 -64h13zM183 -182q36 26 78.5 40.5t82.5 14.5q28 0 53 -7.5t44 -23.5t30 -39.5t11 -55.5q0 -38 -11 -72.5t-33.5 -74.5t-56.5 -91t-79 -122h-156l95 262z" />
<glyph unicode="&#x158;" horiz-adv-x="1323" d="M898 1919l75 -87l-331 -254l-331 254l75 87l256 -111zM711 1438q97 0 179 -24.5t142 -73.5t93.5 -124t33.5 -175q0 -81 -27 -148t-76 -116.5t-116 -80.5t-148 -41l-1 -3q40 -23 78 -64.5t73.5 -90.5t68 -100t59.5 -94l198 -303h-315q-35 58 -78.5 132.5t-87 148.5 t-82 137.5t-62.5 99.5q-23 33 -42.5 56t-39.5 37t-42.5 20t-50.5 7h-8v-638h-279v1438h530zM604 830q65 0 115.5 10.5t85 35t52.5 64.5t18 98t-18 98t-52.5 64.5t-85 35t-115.5 10.5h-144v-416h144z" />
<glyph unicode="&#x159;" horiz-adv-x="950" d="M750 1522l75 -87l-331 -254l-331 254l75 87l256 -111zM455 862q36 53 67 87q30 33 63 54.5t66.5 35t67.5 19t67 5.5q28 0 54.5 -3.5t49.5 -8.5q-3 -28 -8 -59.5t-11 -63.5t-13.5 -63t-15.5 -58q-57 11 -99 18.5t-75 7.5q-31 0 -56.5 -8.5t-50.5 -29.5t-51.5 -55.5 t-59.5 -86.5v-653h-274v641q0 58 -1 108.5t-4 95t-9 84.5t-16 78q65 17 129.5 31t130.5 25q7 -21 13 -41.5t10 -44t7 -51.5t6 -64h13z" />
<glyph unicode="&#x15a;" horiz-adv-x="1271" d="M593 2009q36 26 78.5 40.5t82.5 14.5q28 0 53 -7.5t44 -23.5t30 -39.5t11 -55.5q0 -38 -11 -72.5t-33.5 -74.5t-56.5 -91t-79 -122h-156l95 262zM176 249q83 -32 177.5 -53.5t205.5 -21.5q72 0 132 13t103.5 41t68 71.5t24.5 104.5q0 66 -26.5 105t-74.5 64t-116 42 t-151 38q-93 24 -169.5 55t-130.5 80t-84 121t-30 178q0 71 23.5 127t63.5 97.5t92.5 70.5t110 47t117.5 26t114 8q38 0 91.5 -4t114 -14.5t125 -27.5t124.5 -43l-71 -174q-80 29 -166.5 47t-181.5 18q-60 0 -110 -9.5t-86.5 -30.5t-56.5 -55t-20 -82q0 -62 24.5 -97 t70.5 -57t112.5 -37.5t150.5 -37.5q92 -24 169.5 -56.5t134 -84t88.5 -127.5t32 -187q0 -98 -31 -168t-81 -117.5t-114 -75.5t-130 -43t-128 -19.5t-109 -4.5q-46 1 -103.5 6t-120.5 16t-127.5 29.5t-124.5 45.5z" />
<glyph unicode="&#x15b;" horiz-adv-x="1055" d="M501 1612q36 26 78.5 40.5t82.5 14.5q28 0 53 -7.5t44 -23.5t30 -39.5t11 -55.5q0 -38 -11 -72.5t-33.5 -74.5t-56.5 -91t-79 -122h-156l95 262zM536 1062q96 0 188 -17t161 -45q-14 -40 -32.5 -81t-37.5 -78q-51 17 -118.5 29t-133.5 12q-38 0 -72.5 -5.5t-60 -17.5 t-40.5 -31.5t-15 -47.5q0 -39 19.5 -61.5t52 -36.5t75.5 -23t90 -20q73 -17 136.5 -43t110 -66.5t72 -99t24.5 -140.5q-2 -88 -41.5 -148t-104 -97t-147 -53t-168.5 -16q-57 0 -114 6t-109 17.5t-97 27t-79 34.5q17 39 38 81t41 78q28 -12 64.5 -23.5t77 -20t83 -14 t83.5 -5.5q42 0 80 7t66.5 22.5t45 41t16.5 62.5q0 42 -19.5 67t-52.5 40t-76 24t-89 18q-70 14 -133 40t-110 67t-74.5 99.5t-25.5 137.5q1 78 38 131.5t96 86t135 47t157 14.5z" />
<glyph unicode="&#x15e;" horiz-adv-x="1271" d="M1010 1200q-80 29 -166.5 47t-181.5 18q-60 0 -110 -9.5t-86.5 -30.5t-56.5 -55t-20 -82q0 -62 24.5 -97t70.5 -57t112.5 -37.5t150.5 -37.5q92 -24 169.5 -56.5t134 -84t88.5 -127.5t32 -187q0 -80 -21 -141.5t-56.5 -106.5t-83 -76t-100 -51.5t-107.5 -31t-105 -15.5 l-75 -95q80 -26 113.5 -61t33.5 -88q0 -42 -17 -73t-46.5 -51.5t-70.5 -30.5t-89 -10q-45 0 -91.5 9t-92.5 24l54 101q40 -20 73.5 -31t59.5 -11q32 0 49 16t17 50q0 37 -35.5 59.5t-105.5 45.5l86 140q-46 1 -102 7t-116.5 17t-122 29t-118.5 44l74 176q83 -32 177.5 -53.5 t205.5 -21.5q72 0 132 13t103.5 41t68 71.5t24.5 104.5q0 66 -26.5 105t-74.5 64t-116 42t-151 38q-93 24 -169.5 55t-130.5 80t-84 121t-30 178q0 71 23.5 127t63.5 97.5t92.5 70.5t110 47t117.5 26t114 8q38 0 91.5 -4t114 -14.5t125 -27.5t124.5 -43z" />
<glyph unicode="&#x15f;" horiz-adv-x="1055" d="M441 -23q-51 3 -100 10t-93.5 18t-83.5 25t-69 31q17 39 38 81t41 78q28 -12 64.5 -23.5t77 -20t83 -14t83.5 -5.5q42 0 80 7t66.5 22.5t45 41t16.5 62.5q0 42 -19.5 67t-52.5 40t-76 24t-89 18q-70 14 -133 40t-110 67t-74.5 99.5t-25.5 137.5q1 78 38 131.5t96 86 t135 47t157 14.5q96 0 188 -17t161 -45q-14 -40 -32.5 -81t-37.5 -78q-51 17 -118.5 29t-133.5 12q-38 0 -72.5 -5.5t-60 -17.5t-40.5 -31.5t-15 -47.5q0 -39 19.5 -61.5t52 -36.5t75.5 -23t90 -20q73 -17 136.5 -43t110 -66.5t72 -99t24.5 -140.5q-2 -77 -33 -132.5 t-83 -93t-119.5 -57.5t-142.5 -27l-74 -93q80 -26 113.5 -61t33.5 -88q0 -42 -17 -73t-46.5 -51.5t-70.5 -30.5t-89 -10q-45 0 -91.5 9t-92.5 24l54 101q40 -20 73.5 -31t59.5 -11q32 0 49 16t17 50q0 37 -35.5 59.5t-105.5 45.5z" />
<glyph unicode="&#x160;" horiz-adv-x="1271" d="M883 1919l75 -87l-331 -254l-331 254l75 87l256 -111zM176 249q83 -32 177.5 -53.5t205.5 -21.5q72 0 132 13t103.5 41t68 71.5t24.5 104.5q0 66 -26.5 105t-74.5 64t-116 42t-151 38q-93 24 -169.5 55t-130.5 80t-84 121t-30 178q0 71 23.5 127t63.5 97.5t92.5 70.5 t110 47t117.5 26t114 8q38 0 91.5 -4t114 -14.5t125 -27.5t124.5 -43l-71 -174q-80 29 -166.5 47t-181.5 18q-60 0 -110 -9.5t-86.5 -30.5t-56.5 -55t-20 -82q0 -62 24.5 -97t70.5 -57t112.5 -37.5t150.5 -37.5q92 -24 169.5 -56.5t134 -84t88.5 -127.5t32 -187 q0 -98 -31 -168t-81 -117.5t-114 -75.5t-130 -43t-128 -19.5t-109 -4.5q-46 1 -103.5 6t-120.5 16t-127.5 29.5t-124.5 45.5z" />
<glyph unicode="&#x161;" horiz-adv-x="1055" d="M791 1522l75 -87l-331 -254l-331 254l75 87l256 -111zM536 1062q96 0 188 -17t161 -45q-14 -40 -32.5 -81t-37.5 -78q-51 17 -118.5 29t-133.5 12q-38 0 -72.5 -5.5t-60 -17.5t-40.5 -31.5t-15 -47.5q0 -39 19.5 -61.5t52 -36.5t75.5 -23t90 -20q73 -17 136.5 -43 t110 -66.5t72 -99t24.5 -140.5q-2 -88 -41.5 -148t-104 -97t-147 -53t-168.5 -16q-57 0 -114 6t-109 17.5t-97 27t-79 34.5q17 39 38 81t41 78q28 -12 64.5 -23.5t77 -20t83 -14t83.5 -5.5q42 0 80 7t66.5 22.5t45 41t16.5 62.5q0 42 -19.5 67t-52.5 40t-76 24t-89 18 q-70 14 -133 40t-110 67t-74.5 99.5t-25.5 137.5q1 78 38 131.5t96 86t135 47t157 14.5z" />
<glyph unicode="&#x162;" horiz-adv-x="1303" d="M1213 1438v-205h-420v-1233h-90l-90 -113q80 -26 113.5 -61t33.5 -88q0 -42 -17 -73t-46.5 -51.5t-70.5 -30.5t-89 -10q-45 0 -91.5 9t-92.5 24l54 101q40 -20 73.5 -31t59.5 -11q32 0 49 16t17 50q0 37 -35.5 59.5t-105.5 45.5l100 164h-51v1233h-424v205h1123z" />
<glyph unicode="&#x163;" horiz-adv-x="961" d="M531 840v-499q0 -49 4.5 -81t16.5 -50.5t33 -26t54 -7.5q32 0 74.5 7t100.5 20q6 -18 13.5 -42t15 -49.5t14.5 -49t13 -41.5q-23 -8 -52 -15t-61 -12.5t-66 -9.5t-67 -6l-72 -91q80 -26 113.5 -61t33.5 -88q0 -42 -17 -73t-46.5 -51.5t-70.5 -30.5t-89 -10q-45 0 -91.5 9 t-92.5 24l54 101q40 -20 73.5 -31t59.5 -11q32 0 49 16t17 50q0 37 -35.5 59.5t-105.5 45.5l87 143q-49 5 -91 19t-71 42q-44 43 -58 118.5t-14 192.5v489h-150v200h150v238h274v-238h350v-200h-350z" />
<glyph unicode="&#x164;" horiz-adv-x="1303" d="M908 1919l75 -87l-331 -254l-331 254l75 87l256 -111zM1213 1438v-205h-420v-1233h-279v1233h-424v205h1123z" />
<glyph unicode="&#x165;" horiz-adv-x="961" d="M1026 1492q40 29 86.5 44.5t90.5 15.5q30 0 57.5 -8.5t48.5 -26t33.5 -43.5t12.5 -61q0 -42 -12 -79.5t-37 -82t-62 -100.5t-87 -134h-172l105 289zM531 1278v-238h350v-200h-350v-499q0 -49 4.5 -81t16.5 -50.5t33 -26t54 -7.5q32 0 74.5 7t100.5 20q6 -18 13.5 -42 t15 -49.5t14.5 -49t13 -41.5q-28 -10 -65.5 -18.5t-78.5 -14.5t-83 -9t-79 -3q-35 0 -69 3t-64.5 10.5t-56.5 19.5t-45 31q-44 43 -58 118.5t-14 192.5v489h-150v200h150v238h274z" />
<glyph unicode="&#x166;" horiz-adv-x="1303" d="M955 1805v-171h-605v171h605zM1213 1438v-205h-420v-1233h-279v1233h-424v205h1123z" />
<glyph unicode="&#x167;" horiz-adv-x="961" d="M531 840v-156h183v-171h-183v-172q0 -49 4.5 -81t16.5 -50.5t33 -26t54 -7.5q32 0 74.5 7t100.5 20q6 -18 13.5 -42t15 -49.5t14.5 -49t13 -41.5q-28 -10 -65.5 -18.5t-78.5 -14.5t-83 -9t-79 -3q-35 0 -69 3t-64.5 10.5t-56.5 19.5t-45 31q-44 43 -58 118.5t-14 192.5 v162h-148v171h148v156h-150v200h150v238h274v-238h350v-200h-350z" />
<glyph unicode="&#x16a;" horiz-adv-x="1532" d="M1069 1805v-171h-605v171h605zM1366 1438v-806q0 -156 -32 -278t-103.5 -206t-186 -127.5t-279.5 -43.5q-168 0 -282.5 45t-185 130t-101 206.5t-30.5 273.5v806h284v-840q0 -95 16.5 -171.5t54 -130t97.5 -82.5t147 -29q89 0 150 29t98 83t53 130.5t16 170.5v840h284z " />
<glyph unicode="&#x16b;" horiz-adv-x="1258" d="M926 1408v-171h-605v171h605zM1100 1040v-642q0 -81 1.5 -135.5t5.5 -96.5q2 -21 4 -37t4.5 -31t6 -31t8.5 -35q-65 -17 -129.5 -30.5t-130.5 -25.5q-8 21 -13.5 41.5t-9.5 44t-7 51.5t-6 64h-13q-33 -50 -68.5 -87.5t-76 -63t-89 -38t-107.5 -12.5q-125 0 -196.5 50.5 t-103.5 143.5q-19 54 -27 119t-8 142v609h274v-688q0 -86 39.5 -131t107.5 -45q38 0 74.5 18t70.5 47t63 66.5t52 75.5v657h274z" />
<glyph unicode="&#x16e;" horiz-adv-x="1532" d="M766 1957q41 0 76.5 -15t62 -41.5t41.5 -62t15 -76.5t-15 -76.5t-41.5 -62t-62 -41.5t-76.5 -15t-76.5 15t-62 41.5t-41.5 62t-15 76.5t15 76.5t41.5 62t62 41.5t76.5 15zM766 1845q-35 0 -59 -24t-24 -59t24 -59t59 -24t59 24t24 59t-24 59t-59 24zM1366 1438v-806 q0 -156 -32 -278t-103.5 -206t-186 -127.5t-279.5 -43.5q-168 0 -282.5 45t-185 130t-101 206.5t-30.5 273.5v806h284v-840q0 -95 16.5 -171.5t54 -130t97.5 -82.5t147 -29q89 0 150 29t98 83t53 130.5t16 170.5v840h284z" />
<glyph unicode="&#x16f;" horiz-adv-x="1258" d="M623 1560q41 0 76.5 -15t62 -41.5t41.5 -62t15 -76.5t-15 -76.5t-41.5 -62t-62 -41.5t-76.5 -15t-76.5 15t-62 41.5t-41.5 62t-15 76.5t15 76.5t41.5 62t62 41.5t76.5 15zM623 1448q-35 0 -59 -24t-24 -59t24 -59t59 -24t59 24t24 59t-24 59t-59 24zM1100 1040v-642 q0 -81 1.5 -135.5t5.5 -96.5q2 -21 4 -37t4.5 -31t6 -31t8.5 -35q-65 -17 -129.5 -30.5t-130.5 -25.5q-8 21 -13.5 41.5t-9.5 44t-7 51.5t-6 64h-13q-33 -50 -68.5 -87.5t-76 -63t-89 -38t-107.5 -12.5q-125 0 -196.5 50.5t-103.5 143.5q-19 54 -27 119t-8 142v609h274v-688 q0 -86 39.5 -131t107.5 -45q38 0 74.5 18t70.5 47t63 66.5t52 75.5v657h274z" />
<glyph unicode="&#x170;" horiz-adv-x="1532" d="M547 2009q36 26 78.5 40.5t82.5 14.5q28 0 53 -7.5t44 -23.5t30 -39.5t11 -55.5q0 -38 -11 -72.5t-33.5 -74.5t-56.5 -91t-79 -122h-156l95 262zM947 2009q36 26 78.5 40.5t82.5 14.5q28 0 53 -7.5t44 -23.5t30 -39.5t11 -55.5q0 -38 -11 -72.5t-33.5 -74.5t-56.5 -91 t-79 -122h-156l95 262zM1366 1438v-806q0 -156 -32 -278t-103.5 -206t-186 -127.5t-279.5 -43.5q-168 0 -282.5 45t-185 130t-101 206.5t-30.5 273.5v806h284v-840q0 -95 16.5 -171.5t54 -130t97.5 -82.5t147 -29q89 0 150 29t98 83t53 130.5t16 170.5v840h284z" />
<glyph unicode="&#x171;" horiz-adv-x="1258" d="M404 1612q36 26 78.5 40.5t82.5 14.5q28 0 53 -7.5t44 -23.5t30 -39.5t11 -55.5q0 -38 -11 -72.5t-33.5 -74.5t-56.5 -91t-79 -122h-156l95 262zM804 1612q36 26 78.5 40.5t82.5 14.5q28 0 53 -7.5t44 -23.5t30 -39.5t11 -55.5q0 -38 -11 -72.5t-33.5 -74.5t-56.5 -91 t-79 -122h-156l95 262zM1100 1040v-642q0 -81 1.5 -135.5t5.5 -96.5q2 -21 4 -37t4.5 -31t6 -31t8.5 -35q-65 -17 -129.5 -30.5t-130.5 -25.5q-8 21 -13.5 41.5t-9.5 44t-7 51.5t-6 64h-13q-33 -50 -68.5 -87.5t-76 -63t-89 -38t-107.5 -12.5q-125 0 -196.5 50.5 t-103.5 143.5q-19 54 -27 119t-8 142v609h274v-688q0 -86 39.5 -131t107.5 -45q38 0 74.5 18t70.5 47t63 66.5t52 75.5v657h274z" />
<glyph unicode="&#x172;" horiz-adv-x="1532" d="M1366 1438v-806q0 -153 -31 -273.5t-99.5 -204.5t-178.5 -129t-268 -48q-49 -52 -76 -93t-27 -88q0 -48 21.5 -67.5t60.5 -19.5q24 0 54 7t64 18l-6 -95q-38 -22 -77.5 -34.5t-94.5 -12.5q-37 0 -68.5 11t-54 32.5t-35.5 52.5t-13 70q0 34 9 63t25.5 55t40.5 51.5 t53 53.5q-139 13 -234 64t-154 134.5t-85 198t-26 254.5v806h284v-840q0 -95 16.5 -171.5t54 -130t97.5 -82.5t147 -29q89 0 150 29t98 83t53 130.5t16 170.5v840h284z" />
<glyph unicode="&#x173;" horiz-adv-x="1258" d="M1100 398q0 -81 1.5 -135.5t5.5 -96.5q2 -21 4 -37t4.5 -31t6 -31t8.5 -35q-33 -8 -66 -15.5t-66 -15.5q-30 -31 -53 -57t-39.5 -50.5t-25 -48t-8.5 -49.5q0 -48 21.5 -67.5t60.5 -19.5q24 0 54 7t64 18l-6 -95q-38 -22 -77.5 -34.5t-94.5 -12.5q-37 0 -68.5 11t-54 32.5 t-35.5 52.5t-13 70q0 36 10 66t28.5 57.5t44.5 54.5t58 57q-6 19 -10.5 38t-8 41t-6.5 47.5t-5 57.5h-13q-33 -50 -68.5 -87.5t-76 -63t-89 -38t-107.5 -12.5q-125 0 -196.5 50.5t-103.5 143.5q-19 54 -27 119t-8 142v609h274v-688q0 -86 39.5 -131t107.5 -45q38 0 74.5 18 t70.5 47t63 66.5t52 75.5v657h274v-642z" />
<glyph unicode="&#x174;" horiz-adv-x="1868" d="M934 1919l331 -254l-75 -87l-256 111l-256 -111l-75 87zM1795 1437l-164 -1437h-366l-331 1152l-331 -1152h-366l-164 1437h274l118 -1079h2l310 1079h314l310 -1079h2l118 1079h274z" />
<glyph unicode="&#x175;" horiz-adv-x="1577" d="M722 1522l331 -254l-75 -87l-256 111l-256 -111l-75 87zM1086 194q28 67 54.5 127t47 118.5t32.5 120t12 132.5q0 36 -4 69t-12.5 69t-21 78.5t-30.5 97.5q35 11 67 20t63 17t62 15t66 14q23 -48 38 -83t25 -68q11 -34 16.5 -68.5t5.5 -72.5q0 -66 -14.5 -134.5 t-37.5 -138.5q-24 -70 -56 -139.5t-66.5 -136t-69.5 -128.5t-66 -117h-320l-94 364l-152 -364h-316l-270 1055h267l212 -847l189 441l-106 406h272z" />
<glyph unicode="&#x176;" horiz-adv-x="1400" d="M700 1919l331 -254l-75 -87l-256 111l-256 -111l-75 87zM1335 1438l-495 -790v-648h-280v648l-495 790h304l331 -603l331 603h304z" />
<glyph unicode="&#x177;" horiz-adv-x="1286" d="M639 1522l331 -254l-75 -87l-256 111l-256 -111l-75 87zM1113 1040v-1032q0 -117 -37.5 -198.5t-106 -132.5t-164 -74t-210.5 -23q-89 0 -180.5 15.5t-169.5 46.5q21 50 43 98t45 96q72 -23 146 -39.5t143 -16.5q20 0 43.5 1.5t47.5 7.5t47 18.5t40.5 34t28.5 54t12 78.5 v203h-9q-33 -50 -68.5 -87.5t-76.5 -63t-90 -38t-109 -12.5q-98 0 -162 31t-103 89q-38 60 -54 144t-16 191v609h274v-688q0 -86 40 -131t110 -45q38 0 74.5 18t70.5 47t63 66.5t52 75.5v657h276z" />
<glyph unicode="&#x178;" horiz-adv-x="1400" d="M461 1853q28 0 53 -11t44 -30t30 -44t11 -53q0 -29 -11 -54.5t-29.5 -44.5t-44 -30t-53.5 -11q-29 0 -55 11t-45.5 30t-30.5 44.5t-11 54.5q0 28 11 53.5t30.5 44t45.5 29.5t55 11zM943 1853q28 0 53 -11t44 -30t30 -44t11 -53q0 -29 -11 -54.5t-29.5 -44.5t-44 -30 t-53.5 -11q-29 0 -55 11t-45.5 30t-30.5 44.5t-11 54.5q0 28 11 53.5t30.5 44t45.5 29.5t55 11zM1335 1438l-495 -790v-648h-280v648l-495 790h304l331 -603l331 603h304z" />
<glyph unicode="&#x179;" horiz-adv-x="1291" d="M612 2009q36 26 78.5 40.5t82.5 14.5q28 0 53 -7.5t44 -23.5t30 -39.5t11 -55.5q0 -38 -11 -72.5t-33.5 -74.5t-56.5 -91t-79 -122h-156l95 262zM1137 1438v-167l-658 -1066h664v-205h-996v161l660 1072h-637v205h967z" />
<glyph unicode="&#x17a;" horiz-adv-x="1091" d="M532 1612q36 26 78.5 40.5t82.5 14.5q28 0 53 -7.5t44 -23.5t30 -39.5t11 -55.5q0 -38 -11 -72.5t-33.5 -74.5t-56.5 -91t-79 -122h-156l95 262zM402 840q-47 0 -83 1.5t-69.5 6t-68 13.5t-78.5 25q14 49 30 98.5t31 95.5q48 -13 82 -21t65 -12t65 -5t82 -1h508v-151 l-495 -690h504v-200h-846v151l494 689h-221z" />
<glyph unicode="&#x17b;" horiz-adv-x="1291" d="M646 1853q28 0 53 -11t44 -30t30 -44t11 -53q0 -29 -11 -54.5t-29.5 -44.5t-44 -30t-53.5 -11q-29 0 -55 11t-45.5 30t-30.5 44.5t-11 54.5q0 28 11 53.5t30.5 44t45.5 29.5t55 11zM1137 1438v-167l-658 -1066h664v-205h-996v161l660 1072h-637v205h967z" />
<glyph unicode="&#x17c;" horiz-adv-x="1091" d="M566 1456q28 0 53 -11t44 -30t30 -44t11 -53q0 -29 -11 -54.5t-29.5 -44.5t-44 -30t-53.5 -11q-29 0 -55 11t-45.5 30t-30.5 44.5t-11 54.5q0 28 11 53.5t30.5 44t45.5 29.5t55 11zM402 840q-47 0 -83 1.5t-69.5 6t-68 13.5t-78.5 25q14 49 30 98.5t31 95.5 q48 -13 82 -21t65 -12t65 -5t82 -1h508v-151l-495 -690h504v-200h-846v151l494 689h-221z" />
<glyph unicode="&#x17d;" horiz-adv-x="1291" d="M902 1919l75 -87l-331 -254l-331 254l75 87l256 -111zM1137 1438v-167l-658 -1066h664v-205h-996v161l660 1072h-637v205h967z" />
<glyph unicode="&#x17e;" horiz-adv-x="1091" d="M822 1522l75 -87l-331 -254l-331 254l75 87l256 -111zM402 840q-47 0 -83 1.5t-69.5 6t-68 13.5t-78.5 25q14 49 30 98.5t31 95.5q48 -13 82 -21t65 -12t65 -5t82 -1h508v-151l-495 -690h504v-200h-846v151l494 689h-221z" />
<glyph unicode="&#x218;" horiz-adv-x="1271" d="M176 249q83 -32 177.5 -53.5t205.5 -21.5q72 0 132 13t103.5 41t68 71.5t24.5 104.5q0 66 -26.5 105t-74.5 64t-116 42t-151 38q-93 24 -169.5 55t-130.5 80t-84 121t-30 178q0 71 23.5 127t63.5 97.5t92.5 70.5t110 47t117.5 26t114 8q38 0 91.5 -4t114 -14.5t125 -27.5 t124.5 -43l-71 -174q-80 29 -166.5 47t-181.5 18q-60 0 -110 -9.5t-86.5 -30.5t-56.5 -55t-20 -82q0 -62 24.5 -97t70.5 -57t112.5 -37.5t150.5 -37.5q92 -24 169.5 -56.5t134 -84t88.5 -127.5t32 -187q0 -98 -31 -168t-81 -117.5t-114 -75.5t-130 -43t-128 -19.5t-109 -4.5 q-46 1 -103.5 6t-120.5 16t-127.5 29.5t-124.5 45.5zM505 -182q36 26 78.5 40.5t82.5 14.5q28 0 53 -7.5t44 -23.5t30 -39.5t11 -55.5q0 -38 -11 -72.5t-33.5 -74.5t-56.5 -91t-79 -122h-156l95 262z" />
<glyph unicode="&#x219;" horiz-adv-x="1055" d="M536 1062q96 0 188 -17t161 -45q-14 -40 -32.5 -81t-37.5 -78q-51 17 -118.5 29t-133.5 12q-38 0 -72.5 -5.5t-60 -17.5t-40.5 -31.5t-15 -47.5q0 -39 19.5 -61.5t52 -36.5t75.5 -23t90 -20q73 -17 136.5 -43t110 -66.5t72 -99t24.5 -140.5q-2 -88 -41.5 -148t-104 -97 t-147 -53t-168.5 -16q-57 0 -114 6t-109 17.5t-97 27t-79 34.5q17 39 38 81t41 78q28 -12 64.5 -23.5t77 -20t83 -14t83.5 -5.5q42 0 80 7t66.5 22.5t45 41t16.5 62.5q0 42 -19.5 67t-52.5 40t-76 24t-89 18q-70 14 -133 40t-110 67t-74.5 99.5t-25.5 137.5q1 78 38 131.5 t96 86t135 47t157 14.5zM385 -182q36 26 78.5 40.5t82.5 14.5q28 0 53 -7.5t44 -23.5t30 -39.5t11 -55.5q0 -38 -11 -72.5t-33.5 -74.5t-56.5 -91t-79 -122h-156l95 262z" />
<glyph unicode="&#x21a;" horiz-adv-x="1303" d="M1213 1438v-205h-420v-1233h-279v1233h-424v205h1123zM495 -182q36 26 78.5 40.5t82.5 14.5q28 0 53 -7.5t44 -23.5t30 -39.5t11 -55.5q0 -38 -11 -72.5t-33.5 -74.5t-56.5 -91t-79 -122h-156l95 262z" />
<glyph unicode="&#x21b;" horiz-adv-x="961" d="M531 1278v-238h350v-200h-350v-499q0 -49 4.5 -81t16.5 -50.5t33 -26t54 -7.5q32 0 74.5 7t100.5 20q6 -18 13.5 -42t15 -49.5t14.5 -49t13 -41.5q-28 -10 -65.5 -18.5t-78.5 -14.5t-83 -9t-79 -3q-35 0 -69 3t-64.5 10.5t-56.5 19.5t-45 31q-44 43 -58 118.5t-14 192.5 v489h-150v200h150v238h274zM434 -182q36 26 78.5 40.5t82.5 14.5q28 0 53 -7.5t44 -23.5t30 -39.5t11 -55.5q0 -38 -11 -72.5t-33.5 -74.5t-56.5 -91t-79 -122h-156l95 262z" />
<glyph unicode="&#x2c6;" horiz-adv-x="830" d="M415 1522l331 -254l-75 -87l-256 111l-256 -111l-75 87z" />
<glyph unicode="&#x2c7;" horiz-adv-x="830" d="M671 1522l75 -87l-331 -254l-331 254l75 87l256 -111z" />
<glyph unicode="&#x2d8;" horiz-adv-x="724" d="M690 1507q-18 -145 -101.5 -222t-226.5 -77t-226.5 77t-101.5 222h100q36 -75 93 -104t135 -29t135 29t93 104h100z" />
<glyph unicode="&#x2d9;" horiz-adv-x="600" d="M300 1456q28 0 53 -11t44 -30t30 -44t11 -53q0 -29 -11 -54.5t-29.5 -44.5t-44 -30t-53.5 -11q-29 0 -55 11t-45.5 30t-30.5 44.5t-11 54.5q0 28 11 53.5t30.5 44t45.5 29.5t55 11z" />
<glyph unicode="&#x2da;" horiz-adv-x="710" d="M355 1560q41 0 76.5 -15t62 -41.5t41.5 -62t15 -76.5t-15 -76.5t-41.5 -62t-62 -41.5t-76.5 -15t-76.5 15t-62 41.5t-41.5 62t-15 76.5t15 76.5t41.5 62t62 41.5t76.5 15zM355 1448q-35 0 -59 -24t-24 -59t24 -59t59 -24t59 24t24 59t-24 59t-59 24z" />
<glyph unicode="&#x2db;" horiz-adv-x="600" d="M484 -361q-38 -22 -77.5 -34.5t-94.5 -12.5q-37 0 -68.5 11t-54 32.5t-35.5 52.5t-13 70t11.5 71t32.5 61.5t51 58.5t66 63l115 -10q-30 -31 -53.5 -57.5t-40 -51t-25 -48t-8.5 -49.5q0 -48 21.5 -67.5t60.5 -19.5q24 0 54 7t64 18z" />
<glyph unicode="&#x2dc;" horiz-adv-x="868" d="M763 1408q-4 -40 -20 -80t-41.5 -72.5t-60 -52.5t-76.5 -20q-35 0 -68.5 11t-65.5 24t-63 24t-61 11q-37 0 -55.5 -21.5t-27.5 -58.5h-119q4 40 20 80t41.5 72t60 52.5t76.5 20.5q35 0 68.5 -11t65.5 -24t63 -24t61 -11q37 0 55.5 21.5t27.5 58.5h119z" />
<glyph unicode="&#x2dd;" horiz-adv-x="881" d="M183 1612q36 26 78.5 40.5t82.5 14.5q28 0 53 -7.5t44 -23.5t30 -39.5t11 -55.5q0 -38 -11 -72.5t-33.5 -74.5t-56.5 -91t-79 -122h-156l95 262zM583 1612q36 26 78.5 40.5t82.5 14.5q28 0 53 -7.5t44 -23.5t30 -39.5t11 -55.5q0 -38 -11 -72.5t-33.5 -74.5t-56.5 -91 t-79 -122h-156l95 262z" />
<glyph unicode="&#x5b0;" d="M440 -127q35 0 59.5 -24.5t24.5 -59.5q0 -19 -7 -34t-19 -25.5t-27 -16.5t-31 -6q-34 0 -58 23.5t-24 58.5q0 37 25 60.5t57 23.5zM440 -418q35 0 59.5 -24.5t24.5 -59.5q0 -19 -7 -34t-19 -25.5t-27 -16.5t-31 -6q-34 0 -58 23.5t-24 58.5q0 37 25 60.5t57 23.5z" />
<glyph unicode="&#x5b1;" d="M149 -127q37 0 60.5 -25t23.5 -57q0 -34 -24.5 -59t-59.5 -25t-58.5 25t-23.5 59t23.5 58t58.5 24zM440 -127q37 0 60.5 -25t23.5 -57q0 -34 -24.5 -59t-59.5 -25t-58.5 25t-23.5 59t23.5 58t58.5 24zM727 -127q37 0 60.5 -25t23.5 -57q0 -34 -24.5 -59t-59.5 -25 t-58.5 25t-23.5 59t23.5 58t58.5 24zM292 -362q37 0 60.5 -25t23.5 -57q0 -34 -24.5 -59t-59.5 -25t-58.5 25t-23.5 59t23.5 58t58.5 24zM726 -418q37 0 60.5 -25t23.5 -57q0 -34 -24.5 -59t-59.5 -25t-58.5 25t-23.5 59t23.5 58t58.5 24z" />
<glyph unicode="&#x5b2;" d="M712 -127q37 0 60.5 -25t23.5 -57q0 -34 -24.5 -59t-59.5 -25t-58.5 25t-23.5 59t23.5 58t58.5 24zM546 -152v-118h-469v118h469zM711 -418q37 0 60.5 -25t23.5 -57q0 -34 -24.5 -59t-59.5 -25t-58.5 25t-23.5 59t23.5 58t58.5 24z" />
<glyph unicode="&#x5b3;" d="M711 -127q37 0 60.5 -25t23.5 -57q0 -34 -24.5 -59t-59.5 -25t-58.5 25t-23.5 59t23.5 58t58.5 24zM545 -152v-118h-178l20 -250h-157l20 250h-174v118h469zM710 -418q37 0 60.5 -25t23.5 -57q0 -34 -24.5 -59t-59.5 -25t-58.5 25t-23.5 59t23.5 58t58.5 24z" />
<glyph unicode="&#x5b4;" d="M440 -127q37 0 60.5 -25t23.5 -57q0 -34 -24.5 -59t-59.5 -25t-58.5 25t-23.5 59t23.5 58t58.5 24z" />
<glyph unicode="&#x5b5;" d="M292 -127q37 0 60.5 -25t23.5 -57q0 -34 -24.5 -59t-59.5 -25t-58.5 25t-23.5 59t23.5 58t58.5 24zM583 -127q37 0 60.5 -25t23.5 -57q0 -34 -24.5 -59t-59.5 -25t-58.5 25t-23.5 59t23.5 58t58.5 24z" />
<glyph unicode="&#x5b6;" d="M293 -127q37 0 60.5 -25t23.5 -57q0 -34 -24.5 -59t-59.5 -25t-58.5 25t-23.5 59t23.5 58t58.5 24zM584 -127q37 0 60.5 -25t23.5 -57q0 -34 -24.5 -59t-59.5 -25t-58.5 25t-23.5 59t23.5 58t58.5 24zM436 -362q37 0 60.5 -25t23.5 -57q0 -34 -24.5 -59t-59.5 -25 t-58.5 25t-23.5 59t23.5 58t58.5 24z" />
<glyph unicode="&#x5b7;" d="M671 -152v-118h-469v118h469z" />
<glyph unicode="&#x5b8;" d="M671 -152v-118h-178l20 -250h-157l20 250h-174v118h469z" />
<glyph unicode="&#x5b9;" d="M300 1365q39 0 65.5 -26t26.5 -64q0 -39 -26.5 -66t-65.5 -27q-38 0 -64 27.5t-26 65.5q0 37 26 63.5t64 26.5z" />
<glyph unicode="&#x5ba;" d="M300 1365q39 0 65.5 -26t26.5 -64q0 -39 -26.5 -66t-65.5 -27q-38 0 -64 27.5t-26 65.5q0 37 26 63.5t64 26.5z" />
<glyph unicode="&#x5bb;" d="M440 -127q37 0 60.5 -25t23.5 -57q0 -34 -24.5 -59t-59.5 -25t-58.5 25t-23.5 59t23.5 58t58.5 24zM604 -321q37 0 60.5 -25t23.5 -57q0 -34 -24.5 -59t-59.5 -25t-58.5 25t-23.5 59t23.5 58t58.5 24zM768 -516q37 0 60.5 -25t23.5 -57q0 -34 -24.5 -59t-59.5 -25 t-58.5 25t-23.5 59t23.5 58t58.5 24z" />
<glyph unicode="&#x5bc;" d="M300 641q39 0 65.5 -26t26.5 -64q0 -18 -7.5 -35t-20 -29.5t-29 -20t-35.5 -7.5t-35.5 7.5t-28.5 20t-19 29.5t-7 35q0 37 26 63.5t64 26.5z" />
<glyph unicode="&#x5be;" horiz-adv-x="828" d="M120 1040h588v-217h-588v217z" />
<glyph unicode="&#x5c0;" horiz-adv-x="695" d="M465 1571v-1702h-235v1702h235z" />
<glyph unicode="&#x5c1;" d="M300 1365q39 0 65.5 -26t26.5 -64q0 -39 -26.5 -66t-65.5 -27q-37 0 -63.5 27.5t-26.5 65.5q0 37 26.5 63.5t63.5 26.5z" />
<glyph unicode="&#x5c2;" d="M300 1365q39 0 65.5 -26t26.5 -64q0 -39 -26.5 -66t-65.5 -27q-37 0 -63.5 27.5t-26.5 65.5q0 37 26.5 63.5t63.5 26.5z" />
<glyph unicode="&#x5c3;" horiz-adv-x="670" d="M335 887q33 0 60.5 -11.5t47 -32t30 -47.5t10.5 -57t-11.5 -57t-32 -47.5t-47.5 -32t-57 -11.5t-57 11.5t-47.5 32t-32 47.5t-11.5 57q0 33 12 60t32.5 46.5t47 30.5t56.5 11zM335 276q33 0 60.5 -11.5t47 -32t30 -47.5t10.5 -57t-11.5 -57t-32 -47.5t-47.5 -32 t-57 -11.5t-57 11.5t-47.5 32t-32 47.5t-11.5 57q0 33 12 60t32.5 46.5t47 30.5t56.5 11z" />
<glyph unicode="&#x5c7;" d="M671 -152v-118h-178l20 -250h-157l20 250h-174v118h469z" />
<glyph unicode="&#x5d0;" horiz-adv-x="1269" d="M1106 690q-14 -62 -31 -111t-40 -89t-54 -74t-74 -67l221 -254l-175 -156l-521 601q-15 -26 -23.5 -66.5t-12.5 -88.5t-5 -98.5t-2 -96.5q0 -16 -0.5 -39.5t-1.5 -50.5t-1.5 -55.5t-0.5 -54.5h-255q0 28 1 60.5t1.5 72t2 88t3.5 108.5q1 61 8 114t23 100.5t43 92t70 89.5 q-26 33 -46.5 64t-38 64.5t-34 71t-34.5 82.5q55 23 117.5 46t117.5 41q22 -56 42 -100t43.5 -83.5t53 -79t70.5 -86.5l191 -220q26 24 44 53.5t35 76.5q6 17 12 38t11 44l26 120l-146 25l36 209l369 -63v-129z" />
<glyph unicode="&#x5d1;" horiz-adv-x="1157" d="M660 623q0 62 -5.5 101t-24.5 61t-55 30t-96 8q-51 0 -90 1.5t-75 6t-73.5 14t-85.5 26.5q16 54 32.5 106.5t35.5 103.5q51 -14 87.5 -22t70 -12.5t70.5 -5.5t90 -1h50q63 0 124 -14t110 -53q48 -38 78 -105t30 -175v-476h184v-217h-1037v217h580v406z" />
<glyph unicode="&#x5d2;" horiz-adv-x="931" d="M722 1040v-351q0 -69 1.5 -117t6.5 -87t14 -74.5t23 -78.5q17 -53 31 -96t26 -81t22 -75.5t21 -79.5h-248q-5 18 -12 41t-14.5 48t-16 50.5t-15.5 49.5l-16 49q-12 -14 -27.5 -31.5t-32 -35.5t-32.5 -35.5t-31 -31.5q-27 -26 -59 -48t-71.5 -40t-88.5 -31.5t-109 -20.5 q-12 51 -22.5 101t-19.5 101q88 19 147 49.5t101 76.5l155 169v362h-228v217h495z" />
<glyph unicode="&#x5d3;" horiz-adv-x="1141" d="M427 823q-51 0 -90 1.5t-75 6t-73.5 14t-85.5 26.5q16 54 32.5 106.5t35.5 103.5q51 -14 87.5 -22t70 -12.5t70.5 -5.5t90 -1h577v-217h-202v-823h-273v823h-164z" />
<glyph unicode="&#x5d4;" horiz-adv-x="1205" d="M457 823q-51 0 -90 1.5t-75 6t-73.5 14t-85.5 26.5q16 54 32.5 106.5t35.5 103.5q51 -14 87.5 -22t70 -12.5t70.5 -5.5t90 -1h214q63 0 124 -14t110 -53q48 -38 78 -105t30 -175v-693h-273v623q0 62 -5.5 101t-24.5 61t-55 30t-96 8h-164zM143 304q0 43 1 78.5t3.5 68.5 t7.5 65t14 69q67 -7 134 -17.5t134 -27.5q-12 -56 -16.5 -112.5t-4.5 -130.5v-297h-273v304z" />
<glyph unicode="&#x5d5;" horiz-adv-x="719" d="M579 1040v-1040h-273v823h-175v217h448z" />
<glyph unicode="&#x5d6;" horiz-adv-x="936" d="M852 823h-246l130 -823h-277l-128 824q-34 1 -63.5 3t-58.5 7.5t-61 14t-71 22.5q16 54 32.5 106.5t35.5 103.5q51 -14 87.5 -22t70 -12.5t70.5 -5.5t90 -1h389v-217z" />
<glyph unicode="&#x5d7;" horiz-adv-x="1278" d="M806 1040q63 0 124 -14t110 -53q48 -38 78 -105.5t30 -176.5v-692h-271v624q0 62 -5.5 101t-24.5 61t-55 30t-96 8h-202q-16 -69 -19 -126.5t-3 -118.5v-578h-271v572q0 62 8.5 126t26.5 133q-35 5 -71 14.5t-83 25.5q16 54 32.5 106.5t35.5 103.5q51 -14 87.5 -22 t70 -12.5t70.5 -5.5t90 -1h338z" />
<glyph unicode="&#x5d8;" horiz-adv-x="1309" d="M540 704q24 88 55.5 182.5t63.5 181.5q57 -5 124.5 -13.5t138 -19t140.5 -23.5t132 -27q14 -56 19.5 -116t5.5 -133q0 -153 -39 -286.5t-124 -236.5q-57 -69 -125.5 -116t-144 -75.5t-156 -41t-161.5 -12.5q-60 0 -120.5 5.5t-119.5 16.5l-45 600q-4 52 -6.5 91.5 t-5 70.5t-6.5 57.5t-10.5 53t-16.5 55.5t-25 67q59 23 119.5 49t120.5 45q27 -58 42 -106.5t23 -97.5t12 -104t9 -126l34 -459q8 -1 13 -1h11q71 -2 134 13.5t116 48.5t94.5 84t68.5 120q25 63 35 130.5t10 133.5v49.5t-1 45.5q-39 10 -73 16t-78 12q-20 -54 -35.5 -100.5 t-31.5 -95.5z" />
<glyph unicode="&#x5d9;" horiz-adv-x="724" d="M602 1040v-380q0 -54 -1 -90t-4 -66t-8 -58t-13 -62l-269 39q5 30 9 55t7 53t4.5 63t1.5 84v145h-229v217h502z" />
<glyph unicode="&#x5da;" horiz-adv-x="1090" d="M392 823q-51 0 -90 1.5t-75 6t-73.5 14t-85.5 26.5q16 54 32.5 106.5t35.5 103.5q51 -14 87.5 -22t70 -12.5t70.5 -5.5t90 -1h445q9 -30 14.5 -52.5t8.5 -39.5q3 -18 4 -33t1 -31v-1199h-273v1138h-262z" />
<glyph unicode="&#x5db;" horiz-adv-x="1096" d="M469 823q-51 0 -90 1.5t-75 6t-73.5 14t-85.5 26.5q16 54 32.5 106.5t35.5 103.5q51 -14 87.5 -22t70 -12.5t70.5 -5.5t90 -1h89q61 0 120.5 -15.5t107.5 -55.5t79.5 -108t36.5 -174q3 -56 4 -111.5t2 -115t1 -124.5v-139q0 -24 -1 -43.5t-4 -41.5t-8.5 -48.5 t-14.5 -64.5h-873v217h631q0 47 -1 98.5t-1.5 104t-2 104.5t-2.5 100q0 62 -5.5 101t-24.5 61t-55 30t-96 8h-44z" />
<glyph unicode="&#x5dc;" horiz-adv-x="1085" d="M373 1332v-292h567q6 -22 10.5 -39t7.5 -31q5 -24 6 -45t1 -49v-216q0 -118 -47.5 -223t-141.5 -210l-256 -282l-194 165l113 128q72 81 120.5 134.5t78 96.5t42 82.5t12.5 92.5v179h-592v509h273z" />
<glyph unicode="&#x5dd;" horiz-adv-x="1243" d="M779 1040q63 0 124 -14t110 -53q48 -38 78 -105.5t30 -176.5v-691h-970v572q0 62 8.5 126t26.5 133q-35 5 -71 14.5t-83 25.5q16 54 32.5 106.5t35.5 103.5q51 -14 87.5 -22t70 -12.5t70.5 -5.5t90 -1h361zM850 217v406q0 62 -5.5 101t-24.5 61t-55 30t-96 8h-225 q-16 -69 -19 -126.5t-3 -118.5v-361h428z" />
<glyph unicode="&#x5de;" horiz-adv-x="1279" d="M114 962q53 35 105 66.5t108 63.5q24 -32 41 -56.5t30 -46t23 -43t20 -45.5q84 85 177 126t183 41q63 0 121 -19t104.5 -55t79 -88.5t46.5 -119.5q11 -54 13.5 -122.5t2.5 -149.5q0 -38 0.5 -80t0.5 -101q0 -69 -2.5 -132t-5.5 -105q-2 -22 -4 -46t-6 -50h-525v217h267 q1 6 1.5 21.5t1 46t0.5 78.5v119q0 20 0.5 49.5t0.5 61.5t-1 61t-3 48q-11 81 -48 115t-106 34q-38 0 -76 -14.5t-79 -42.5q-23 -16 -44.5 -35.5t-42.5 -44.5q-17 -111 -29 -191l-21 -140t-16 -105.5t-13.5 -89t-13.5 -90t-16 -107.5h-272l26 176q9 64 18 121.5t18 114.5 t18.5 115t20.5 124q2 18 3 33t1 29q0 28 -4 50t-12 42.5t-19.5 41.5t-26.5 47z" />
<glyph unicode="&#x5df;" horiz-adv-x="721" d="M587 1040v-1355h-273v1138h-205v217h478z" />
<glyph unicode="&#x5e0;" horiz-adv-x="876" d="M694 1040v-139q0 -19 2 -42t6 -57t10 -82.5t14 -117t18 -161t22 -214.5q1 -17 1.5 -31.5t0.5 -27.5q0 -22 -1.5 -41t-4 -38.5t-6 -40.5t-8.5 -48h-677v217h433q0 22 -4.5 70t-12 109t-15.5 128t-15.5 127t-12 106.5t-4.5 65.5h-257v217h511z" />
<glyph unicode="&#x5e1;" horiz-adv-x="1214" d="M767 1041q63 0 124 -14t109 -54q48 -38 75 -106.5t33 -177.5q1 -21 1.5 -44t0.5 -52t-0.5 -65t-1.5 -86q-2 -101 -39 -186t-100.5 -147.5t-149 -97.5t-185.5 -35t-185 35t-148 97.5t-100 147.5t-41 186q-1 11 -1 20.5v20.5q0 47 5.5 95t20.5 101q11 38 27.5 77t37.5 71 q-44 4 -87 14t-100 30q16 54 32.5 106.5t35.5 103.5q47 -13 81 -20.5t65 -12t63 -6t76 -1.5h33h318zM497 824q-17 -27 -27.5 -53t-18.5 -52q-14 -48 -20.5 -103.5t-6.5 -108.5q0 -30 1.5 -58t5.5 -51q7 -47 24 -84.5t43.5 -64.5t61.5 -41.5t77 -14.5t77.5 14.5t62.5 41.5 t43.5 64.5t21.5 83.5q2 21 3 47.5t1 55.5q0 32 -1 64t-3 60q-5 62 -11 101t-23.5 61t-52 30t-94.5 8h-164z" />
<glyph unicode="&#x5e2;" horiz-adv-x="1251" d="M707 869q14 54 30 106t33 106l388 -102l4 -70t3 -70q-10 -78 -27 -148t-40 -134q-42 -115 -99.5 -205t-128 -159.5t-151.5 -121.5t-169.5 -92t-183 -70.5t-191.5 -55.5l-72 230q105 27 194 55.5t164 62.5q-49 130 -97 258.5t-97 258.5q-11 26 -19.5 43t-18 28.5t-22 19 t-31.5 14.5l-120 51q23 53 47.5 104t49.5 102q32 -11 64 -23t64 -25q51 -20 86.5 -40t60 -42t40.5 -48.5t29 -59.5q21 -53 37.5 -99.5t35.5 -102.5t43.5 -130.5t61.5 -183.5q51 45 81.5 92.5t53.5 98.5q29 66 51 142t34 160z" />
<glyph unicode="&#x5e3;" horiz-adv-x="1163" d="M343 1102q60 -13 127 -27.5t134.5 -30t132 -33.5t118.5 -39q53 -20 86.5 -48.5t53.5 -63.5q22 -38 30 -82.5t8 -95.5v-998h-261v960q0 42 -4.5 69t-16.5 44q-10 14 -26 24t-41 18q-40 14 -90 26t-96 23l-84 -193l136 -81l-121 -198l-322 191z" />
<glyph unicode="&#x5e4;" horiz-adv-x="1153" d="M351 1102q93 -23 165.5 -41t131.5 -35t109.5 -33.5t98.5 -34.5q51 -20 85.5 -48t55 -64t29 -81t8.5 -97v-401q0 -26 -1.5 -48t-5.5 -48q-5 -30 -14 -69.5t-24 -101.5h-899v217h683v413q0 35 -2.5 59.5t-11.5 42t-26.5 30t-47.5 23.5q-39 14 -86 29t-107 32l-94 -195 l131 -78l-121 -198l-318 189z" />
<glyph unicode="&#x5e5;" horiz-adv-x="1195" d="M686 1087l392 -90q1 -8 1 -18.5v-23.5q0 -24 -0.5 -50.5t-2.5 -46.5q-26 -89 -57 -162.5t-74 -137.5q-49 -75 -116.5 -137.5t-161.5 -122.5l91 -216q20 -48 34.5 -80.5t26.5 -56.5q22 -44 44 -74t55 -61q-44 -44 -88.5 -86t-89.5 -84l-39 34q-29 28 -50.5 54.5t-39.5 55 t-34 62t-34 74.5l-455 1065l241 101l249 -587q57 36 96 82.5t66 103.5q19 38 33.5 80t25.5 88l-161 38z" />
<glyph unicode="&#x5e6;" horiz-adv-x="1191" d="M1066 999l-7 -129l-54 -197q-13 -47 -27 -86t-34 -74.5t-49 -68t-71 -65.5l165 -189q-5 -43 -13 -95t-16 -95h-850v217h545q-95 110 -190 218.5t-189 218.5q-41 48 -70 86.5t-52 76.5t-43 81t-42 99q55 23 117.5 45.5t117.5 40.5q22 -56 42 -99t43 -82t52.5 -77.5 t70.5 -86.5l174 -201q16 16 27.5 34t20.5 40.5t17 49.5t17 61l32 121l-146 31l48 206z" />
<glyph unicode="&#x5e7;" horiz-adv-x="1244" d="M451 823q-51 0 -90 1.5t-75 6t-73.5 14t-85.5 26.5q16 54 32.5 106.5t35.5 103.5q47 -13 81 -20.5t65 -12t63 -6t76 -1.5h33h595q5 -18 9 -33t7 -29q6 -27 7.5 -49.5t1.5 -52.5v-217q0 -56 -7 -103.5t-20.5 -90t-35 -82.5t-49.5 -81q-23 -36 -61 -84t-81 -99t-86 -99 t-76 -84l-194 165l135 153q51 57 85.5 98.5t57.5 76.5q19 28 30.5 52.5t18 49.5t9 52t2.5 60v179h-410zM138 304q0 43 1 78.5t3.5 68.5t7.5 65t14 69q67 -7 134 -17.5t134 -27.5q-12 -56 -16.5 -112.5t-4.5 -130.5v-612h-273v619z" />
<glyph unicode="&#x5e8;" horiz-adv-x="1052" d="M407 823q-51 0 -90 1.5t-75 6t-73.5 14t-85.5 26.5q16 54 32.5 106.5t35.5 103.5q51 -14 87.5 -22t70 -12.5t70.5 -5.5t90 -1h121q63 0 124 -14t110 -53q48 -38 78 -105t30 -175v-693h-273v623q0 62 -5.5 101t-24.5 61t-55 30t-96 8h-71z" />
<glyph unicode="&#x5e9;" horiz-adv-x="1457" d="M446 202q20 -2 40.5 -3t44.5 -1q59 0 122.5 11t123.5 38t114 73t93 117q57 100 78.5 206t21.5 214q0 43 -3 85t-8 85q43 11 74 18.5t60 13t62 10.5t80 11q10 -43 14 -93.5t4 -103.5q0 -49 -3.5 -96t-8.5 -87q-50 -370 -267 -551t-601 -181q-66 0 -136.5 5t-148.5 14 l-45 603q-4 52 -6.5 91.5t-5 70.5t-6.5 57.5t-10.5 53t-16.5 55.5t-25 67q59 23 119.5 49t120.5 45q27 -58 42 -106.5t23 -97.5t12 -104t9 -126zM543 699q15 42 25.5 71.5t17.5 52.5t10 43.5t3 43.5v15.5t-1 16.5q0 16 -2.5 34t-6.5 41q66 20 130.5 34.5t130.5 28.5 q13 -45 19 -81.5t6 -71.5q0 -29 -4.5 -58.5t-13.5 -62.5t-22.5 -72t-31.5 -87l-67 -177q-42 11 -70.5 19t-54 17t-53 20.5t-66.5 30.5z" />
<glyph unicode="&#x5ea;" horiz-adv-x="1295" d="M833 1040q63 0 124 -14t110 -53q48 -38 78 -105t30 -175v-693h-273v623q0 62 -5.5 101t-24.5 61t-55 30t-96 8h-151q-33 -69 -46 -148t-13 -155q0 -44 2 -82.5t7.5 -75.5t14 -73.5t20.5 -75.5l19 -59q-4 -42 -9.5 -80.5t-13.5 -73.5h-491v217h230q-26 77 -39 148t-13 140 q0 55 7 110.5t24 112.5q8 26 16.5 51t19.5 49q-44 4 -86.5 13.5t-98.5 29.5q16 54 32.5 106.5t35.5 103.5q51 -14 87.5 -22t70 -12.5t70.5 -5.5t90 -1h327z" />
<glyph unicode="&#x5f3;" horiz-adv-x="500" d="M111 1401q40 29 86.5 44.5t90.5 15.5q30 0 57.5 -8.5t48.5 -26t33.5 -43.5t12.5 -61q0 -42 -12 -79.5t-37 -82t-62 -100.5t-87 -134h-172l105 289z" />
<glyph unicode="&#x5f4;" horiz-adv-x="941" d="M553 1402q40 29 86.5 44.5t90.5 15.5q30 0 57.5 -8.5t48.5 -26t33.5 -43.5t12.5 -61q0 -42 -12 -79.5t-37 -82t-62 -100.5t-87 -134h-172l105 289zM111 1400q40 29 86.5 45t90.5 16q30 0 57.5 -8.5t48.5 -26t33.5 -43.5t12.5 -61q0 -42 -12 -79.5t-37 -82t-62 -100.5 t-87 -134h-172l105 289z" />
<glyph unicode="&#x1e80;" horiz-adv-x="1868" d="M856 1578q-45 71 -79 122t-56.5 91t-33.5 74.5t-11 72.5q0 32 11 55.5t30 39.5t44 23.5t53 7.5q40 0 82.5 -14.5t78.5 -40.5l-58 -169l95 -262h-156zM1795 1437l-164 -1437h-366l-331 1152l-331 -1152h-366l-164 1437h274l118 -1079h2l310 1079h314l310 -1079h2l118 1079 h274z" />
<glyph unicode="&#x1e81;" horiz-adv-x="1577" d="M644 1181q-45 71 -79 122t-56.5 91t-33.5 74.5t-11 72.5q0 32 11 55.5t30 39.5t44 23.5t53 7.5q40 0 82.5 -14.5t78.5 -40.5l-58 -169l95 -262h-156zM1086 194q28 67 54.5 127t47 118.5t32.5 120t12 132.5q0 36 -4 69t-12.5 69t-21 78.5t-30.5 97.5q35 11 67 20t63 17 t62 15t66 14q23 -48 38 -83t25 -68q11 -34 16.5 -68.5t5.5 -72.5q0 -66 -14.5 -134.5t-37.5 -138.5q-24 -70 -56 -139.5t-66.5 -136t-69.5 -128.5t-66 -117h-320l-94 364l-152 -364h-316l-270 1055h267l212 -847l189 441l-106 406h272z" />
<glyph unicode="&#x1e82;" horiz-adv-x="1868" d="M900 2009q36 26 78.5 40.5t82.5 14.5q28 0 53 -7.5t44 -23.5t30 -39.5t11 -55.5q0 -38 -11 -72.5t-33.5 -74.5t-56.5 -91t-79 -122h-156l95 262zM1795 1437l-164 -1437h-366l-331 1152l-331 -1152h-366l-164 1437h274l118 -1079h2l310 1079h314l310 -1079h2l118 1079h274 z" />
<glyph unicode="&#x1e83;" horiz-adv-x="1577" d="M688 1612q36 26 78.5 40.5t82.5 14.5q28 0 53 -7.5t44 -23.5t30 -39.5t11 -55.5q0 -38 -11 -72.5t-33.5 -74.5t-56.5 -91t-79 -122h-156l95 262zM1086 194q28 67 54.5 127t47 118.5t32.5 120t12 132.5q0 36 -4 69t-12.5 69t-21 78.5t-30.5 97.5q35 11 67 20t63 17t62 15 t66 14q23 -48 38 -83t25 -68q11 -34 16.5 -68.5t5.5 -72.5q0 -66 -14.5 -134.5t-37.5 -138.5q-24 -70 -56 -139.5t-66.5 -136t-69.5 -128.5t-66 -117h-320l-94 364l-152 -364h-316l-270 1055h267l212 -847l189 441l-106 406h272z" />
<glyph unicode="&#x1e84;" horiz-adv-x="1868" d="M695 1853q28 0 53 -11t44 -30t30 -44t11 -53q0 -29 -11 -54.5t-29.5 -44.5t-44 -30t-53.5 -11q-29 0 -55 11t-45.5 30t-30.5 44.5t-11 54.5q0 28 11 53.5t30.5 44t45.5 29.5t55 11zM1177 1853q28 0 53 -11t44 -30t30 -44t11 -53q0 -29 -11 -54.5t-29.5 -44.5t-44 -30 t-53.5 -11q-29 0 -55 11t-45.5 30t-30.5 44.5t-11 54.5q0 28 11 53.5t30.5 44t45.5 29.5t55 11zM1795 1437l-164 -1437h-366l-331 1152l-331 -1152h-366l-164 1437h274l118 -1079h2l310 1079h314l310 -1079h2l118 1079h274z" />
<glyph unicode="&#x1e85;" horiz-adv-x="1577" d="M483 1456q28 0 53 -11t44 -30t30 -44t11 -53q0 -29 -11 -54.5t-29.5 -44.5t-44 -30t-53.5 -11q-29 0 -55 11t-45.5 30t-30.5 44.5t-11 54.5q0 28 11 53.5t30.5 44t45.5 29.5t55 11zM965 1456q28 0 53 -11t44 -30t30 -44t11 -53q0 -29 -11 -54.5t-29.5 -44.5t-44 -30 t-53.5 -11q-29 0 -55 11t-45.5 30t-30.5 44.5t-11 54.5q0 28 11 53.5t30.5 44t45.5 29.5t55 11zM1086 194q28 67 54.5 127t47 118.5t32.5 120t12 132.5q0 36 -4 69t-12.5 69t-21 78.5t-30.5 97.5q35 11 67 20t63 17t62 15t66 14q23 -48 38 -83t25 -68q11 -34 16.5 -68.5 t5.5 -72.5q0 -66 -14.5 -134.5t-37.5 -138.5q-24 -70 -56 -139.5t-66.5 -136t-69.5 -128.5t-66 -117h-320l-94 364l-152 -364h-316l-270 1055h267l212 -847l189 441l-106 406h272z" />
<glyph unicode="&#x1ef2;" horiz-adv-x="1400" d="M622 1578q-45 71 -79 122t-56.5 91t-33.5 74.5t-11 72.5q0 32 11 55.5t30 39.5t44 23.5t53 7.5q40 0 82.5 -14.5t78.5 -40.5l-58 -169l95 -262h-156zM1335 1438l-495 -790v-648h-280v648l-495 790h304l331 -603l331 603h304z" />
<glyph unicode="&#x1ef3;" horiz-adv-x="1286" d="M561 1181q-45 71 -79 122t-56.5 91t-33.5 74.5t-11 72.5q0 32 11 55.5t30 39.5t44 23.5t53 7.5q40 0 82.5 -14.5t78.5 -40.5l-58 -169l95 -262h-156zM1113 1040v-1032q0 -117 -37.5 -198.5t-106 -132.5t-164 -74t-210.5 -23q-89 0 -180.5 15.5t-169.5 46.5q21 50 43 98 t45 96q72 -23 146 -39.5t143 -16.5q20 0 43.5 1.5t47.5 7.5t47 18.5t40.5 34t28.5 54t12 78.5v203h-9q-33 -50 -68.5 -87.5t-76.5 -63t-90 -38t-109 -12.5q-98 0 -162 31t-103 89q-38 60 -54 144t-16 191v609h274v-688q0 -86 40 -131t110 -45q38 0 74.5 18t70.5 47t63 66.5 t52 75.5v657h276z" />
<glyph unicode="&#x2000;" horiz-adv-x="1033" />
<glyph unicode="&#x2001;" horiz-adv-x="2067" />
<glyph unicode="&#x2002;" horiz-adv-x="1033" />
<glyph unicode="&#x2003;" horiz-adv-x="2067" />
<glyph unicode="&#x2004;" horiz-adv-x="689" />
<glyph unicode="&#x2005;" horiz-adv-x="516" />
<glyph unicode="&#x2006;" horiz-adv-x="344" />
<glyph unicode="&#x2007;" horiz-adv-x="344" />
<glyph unicode="&#x2008;" horiz-adv-x="258" />
<glyph unicode="&#x2009;" horiz-adv-x="413" />
<glyph unicode="&#x200a;" horiz-adv-x="114" />
<glyph unicode="&#x200e;" horiz-adv-x="600" />
<glyph unicode="&#x200f;" horiz-adv-x="600" />
<glyph unicode="&#x2010;" horiz-adv-x="1224" d="M1020 467h-816v190h816v-190z" />
<glyph unicode="&#x2011;" horiz-adv-x="1224" d="M1020 467h-816v190h816v-190z" />
<glyph unicode="&#x2012;" horiz-adv-x="1224" d="M1020 467h-816v190h816v-190z" />
<glyph unicode="&#x2013;" horiz-adv-x="1284" d="M1120 467h-956v190h956v-190z" />
<glyph unicode="&#x2014;" horiz-adv-x="1346" d="M1305 469h-1264v190h1264v-190z" />
<glyph unicode="&#x2018;" horiz-adv-x="500" d="M389 986q-40 -29 -86.5 -44.5t-90.5 -15.5q-30 0 -57.5 8.5t-48.5 25.5t-33.5 43.5t-12.5 61.5q0 42 12 79.5t37 82t62 100.5t87 134h172l-105 -289z" />
<glyph unicode="&#x2019;" horiz-adv-x="500" d="M111 1401q40 29 86.5 44.5t90.5 15.5q30 0 57.5 -8.5t48.5 -26t33.5 -43.5t12.5 -61q0 -42 -12 -79.5t-37 -82t-62 -100.5t-87 -134h-172l105 289z" />
<glyph unicode="&#x201a;" horiz-adv-x="500" d="M111 427q40 29 86.5 44.5t90.5 15.5q30 0 57.5 -8.5t48.5 -26t33.5 -43.5t12.5 -61q0 -42 -12 -79.5t-37 -82t-62 -100.5t-87 -134h-172l105 289z" />
<glyph unicode="&#x201c;" horiz-adv-x="942" d="M831 988q-40 -29 -86.5 -45t-90.5 -16q-30 0 -57.5 8.5t-48.5 25.5t-33.5 43.5t-12.5 61.5q0 42 12 79.5t37 82t62 100.5t87 134h172l-105 -289zM389 986q-40 -29 -86.5 -44.5t-90.5 -15.5q-30 0 -57.5 8.5t-48.5 25.5t-33.5 43.5t-12.5 61.5q0 42 12 79.5t37 82 t62 100.5t87 134h172l-105 -289z" />
<glyph unicode="&#x201d;" horiz-adv-x="941" d="M553 1402q40 29 86.5 44.5t90.5 15.5q30 0 57.5 -8.5t48.5 -26t33.5 -43.5t12.5 -61q0 -42 -12 -79.5t-37 -82t-62 -100.5t-87 -134h-172l105 289zM111 1400q40 29 86.5 45t90.5 16q30 0 57.5 -8.5t48.5 -26t33.5 -43.5t12.5 -61q0 -42 -12 -79.5t-37 -82t-62 -100.5 t-87 -134h-172l105 289z" />
<glyph unicode="&#x201e;" horiz-adv-x="946" d="M553 427q40 29 86.5 44.5t90.5 15.5q30 0 57.5 -8.5t48.5 -26t33.5 -43.5t12.5 -61q0 -42 -12 -79.5t-37 -82t-62 -100.5t-87 -134h-172l105 289zM111 425q40 29 86.5 45t90.5 16q30 0 57.5 -8.5t48.5 -26t33.5 -43.5t12.5 -61q0 -42 -12 -79.5t-37 -82t-62 -100.5 t-87 -134h-172l105 289z" />
<glyph unicode="&#x2020;" horiz-adv-x="600" />
<glyph unicode="&#x2021;" horiz-adv-x="600" />
<glyph unicode="&#x2022;" horiz-adv-x="642" d="M321 789q45 0 81 -15.5t62 -42.5t40 -63t14 -76q0 -41 -15.5 -76.5t-42.5 -62.5t-63 -42.5t-76 -15.5q-41 0 -76.5 15.5t-62.5 42.5t-42.5 62.5t-15.5 76.5q0 43 16 79.5t43 62.5t63 40.5t75 14.5z" />
<glyph unicode="&#x2026;" horiz-adv-x="1850" d="M323 262q32 0 58 -11t44.5 -30.5t28.5 -45t10 -54.5t-11 -54.5t-30.5 -45t-45 -30.5t-54.5 -11t-54.5 11t-45 30.5t-30.5 45t-11 54.5q0 31 11.5 57t31 44.5t45 29t53.5 10.5zM925 262q32 0 58 -11t44.5 -30.5t28.5 -45t10 -54.5t-11 -54.5t-30.5 -45t-45 -30.5 t-54.5 -11t-54.5 11t-45 30.5t-30.5 45t-11 54.5q0 31 11.5 57t31 44.5t45 29t53.5 10.5zM1539 262q32 0 58 -11t44.5 -30.5t28.5 -45t10 -54.5t-11 -54.5t-30.5 -45t-45 -30.5t-54.5 -11t-54.5 11t-45 30.5t-30.5 45t-11 54.5q0 31 11.5 57t31 44.5t45 29t53.5 10.5z" />
<glyph unicode="&#x202f;" horiz-adv-x="413" />
<glyph unicode="&#x2030;" horiz-adv-x="1923" d="M388 1363q45 0 92 -9.5t85.5 -40t63.5 -88t25 -152.5t-25 -152.5t-63.5 -89t-85.5 -41.5t-92 -10t-92.5 10t-86.5 40.5t-64 88.5t-25 154t25 153.5t64 88t86.5 39.5t92.5 9zM388 1266q-34 0 -57.5 -14.5t-38 -40t-21 -61t-6.5 -77.5q0 -43 6.5 -78.5t21 -61t38 -39.5 t57.5 -14q33 0 56.5 14t38.5 39t21.5 60.5t6.5 79.5q0 43 -6.5 78.5t-21.5 61t-38.5 39.5t-56.5 14zM1114 1110v-149l-928 -694v148zM914 596q45 0 92 -9.5t85.5 -40t63.5 -88t25 -152.5t-25 -152.5t-63.5 -89t-85.5 -41.5t-92 -10t-92.5 10t-86.5 40.5t-64 88.5t-25 154 t25 153.5t64 88t86.5 39.5t92.5 9zM1537 596q45 0 92 -9.5t85.5 -40t63.5 -88t25 -152.5t-25 -152.5t-63.5 -89t-85.5 -41.5t-92 -10t-92.5 10t-86.5 40.5t-64 88.5t-25 154t25 153.5t64 88t86.5 39.5t92.5 9zM914 499q-34 0 -57.5 -14.5t-38 -40t-21 -61t-6.5 -77.5 q0 -43 6.5 -78.5t21 -61t38 -39.5t57.5 -14q33 0 56.5 14t38.5 39t21.5 60.5t6.5 79.5q0 43 -6.5 78.5t-21.5 61t-38.5 39.5t-56.5 14zM1537 499q-34 0 -57.5 -14.5t-38 -40t-21 -61t-6.5 -77.5q0 -43 6.5 -78.5t21 -61t38 -39.5t57.5 -14q33 0 56.5 14t38.5 39t21.5 60.5 t6.5 79.5q0 43 -6.5 78.5t-21.5 61t-38.5 39.5t-56.5 14z" />
<glyph unicode="&#x2039;" horiz-adv-x="994" d="M653 999l140 -139l-340 -342l341 -344l-142 -139l-482 483z" />
<glyph unicode="&#x203a;" horiz-adv-x="994" d="M341 999l483 -481l-482 -483l-142 139l341 344l-340 342z" />
<glyph unicode="&#x2044;" horiz-adv-x="1773" d="M1673 1438l-1314 -1438h-259l1314 1438h259z" />
<glyph unicode="&#x205f;" horiz-adv-x="516" />
<glyph unicode="&#x20aa;" horiz-adv-x="1939" d="M895 199q30 -2 60.5 -3.5t61.5 -1.5q136 0 240.5 44.5t176 129.5t108 208.5t36.5 281.5q0 42 -3.5 83t-9.5 84q64 17 128.5 30t133.5 23q11 -51 16.5 -112t5.5 -122q0 -40 -2 -77t-6 -69q-23 -192 -95 -330.5t-186.5 -228t-268 -132.5t-339.5 -43q-88 0 -170 6.5 t-155 14.5v644h268v-430zM183 572q0 60 8 123t25 130q-30 3 -64 9.5t-87 20.5l14.5 58t13.5 50t15 49t19 56q45 -9 74.5 -14.5t53.5 -8.5t46.5 -4t52.5 -1h645q63 0 124 -14t110 -53q48 -38 78 -105.5t30 -176.5q0 -47 -6 -116t-23 -160q-69 6 -132.5 15.5t-129.5 23.5 q4 30 7.5 51.5t6 40t4.5 36.5t2 41q0 62 -5.5 101t-24.5 61t-55 30t-96 8h-413q-16 -69 -19 -126.5t-3 -118.5v-578h-271v572z" />
<glyph unicode="&#x20ac;" horiz-adv-x="1158" d="M294 1064q0 97 15 170.5t53 124.5q29 38 70 58.5t85.5 30t88 11t76.5 1.5q77 0 165 -11t191 -32l-33 -202q-85 18 -154 29.5t-121 11.5q-48 0 -81 -11t-50 -37q-19 -28 -22.5 -70t-3.5 -100v-42h343v-185h-343v-176h343v-185h-343v-52q0 -58 3.5 -100t22.5 -70 q17 -26 50 -37t81 -11q52 0 121 11.5t154 29.5l33 -202q-103 -21 -191 -32t-165 -11q-33 0 -76.5 1.5t-88 11t-85.5 30t-70 58.5q-38 51 -53 124.5t-15 170.5v78h-174v185h174v176h-174v185h174v68z" />
<glyph unicode="&#x2122;" horiz-adv-x="1803" d="M716 1437v-119h-216v-571h-182v571h-218v119h616zM1614 1436l89 -689h-180l-53 400l-141 -408h-177l-141 408l-53 -400h-178l86 689h196l179 -513l179 513h194z" />
<glyph unicode="&#xe000;" horiz-adv-x="1065" d="M0 1065h1065v-1065h-1065v1065z" />
<glyph unicode="&#xfb2a;" horiz-adv-x="1457" d="M1211 1365q39 0 65.5 -26t26.5 -64q0 -39 -26.5 -66t-65.5 -27q-38 0 -64 27.5t-26 65.5q0 37 26 63.5t64 26.5zM446 202q20 -2 40.5 -3t44.5 -1q59 0 122.5 11t123.5 38t114 73t93 117q57 100 78.5 206t21.5 214q0 43 -3 85t-8 85q43 11 74 18.5t60 13t62 10.5t80 11 q10 -43 14 -93.5t4 -103.5q0 -49 -3.5 -96t-8.5 -87q-50 -370 -267 -551t-601 -181q-66 0 -136.5 5t-148.5 14l-45 603q-4 52 -6.5 91.5t-5 70.5t-6.5 57.5t-10.5 53t-16.5 55.5t-25 67q59 23 119.5 49t120.5 45q27 -58 42 -106.5t23 -97.5t12 -104t9 -126zM543 699 q15 42 25.5 71.5t17.5 52.5t10 43.5t3 43.5v15.5t-1 16.5q0 16 -2.5 34t-6.5 41q66 20 130.5 34.5t130.5 28.5q13 -45 19 -81.5t6 -71.5q0 -29 -4.5 -58.5t-13.5 -62.5t-22.5 -72t-31.5 -87l-67 -177q-42 11 -70.5 19t-54 17t-53 20.5t-66.5 30.5z" />
<glyph unicode="&#xfb2b;" horiz-adv-x="1457" d="M21 1365q39 0 65.5 -26t26.5 -64q0 -39 -26.5 -66t-65.5 -27q-38 0 -64 27.5t-26 65.5q0 37 26 63.5t64 26.5zM446 202q20 -2 40.5 -3t44.5 -1q59 0 122.5 11t123.5 38t114 73t93 117q57 100 78.5 206t21.5 214q0 43 -3 85t-8 85q43 11 74 18.5t60 13t62 10.5t80 11 q10 -43 14 -93.5t4 -103.5q0 -49 -3.5 -96t-8.5 -87q-50 -370 -267 -551t-601 -181q-66 0 -136.5 5t-148.5 14l-45 603q-4 52 -6.5 91.5t-5 70.5t-6.5 57.5t-10.5 53t-16.5 55.5t-25 67q59 23 119.5 49t120.5 45q27 -58 42 -106.5t23 -97.5t12 -104t9 -126zM543 699 q15 42 25.5 71.5t17.5 52.5t10 43.5t3 43.5v15.5t-1 16.5q0 16 -2.5 34t-6.5 41q66 20 130.5 34.5t130.5 28.5q13 -45 19 -81.5t6 -71.5q0 -29 -4.5 -58.5t-13.5 -62.5t-22.5 -72t-31.5 -87l-67 -177q-42 11 -70.5 19t-54 17t-53 20.5t-66.5 30.5z" />
<glyph unicode="&#xfb2c;" horiz-adv-x="1457" d="M1211 1365q39 0 65.5 -26t26.5 -64q0 -39 -26.5 -66t-65.5 -27q-38 0 -64 27.5t-26 65.5q0 37 26 63.5t64 26.5zM446 202q20 -2 40.5 -3t44.5 -1q59 0 122.5 11t123.5 38t114 73t93 117q57 100 78.5 206t21.5 214q0 43 -3 85t-8 85q43 11 74 18.5t60 13t62 10.5t80 11 q10 -43 14 -93.5t4 -103.5q0 -49 -3.5 -96t-8.5 -87q-50 -370 -267 -551t-601 -181q-66 0 -136.5 5t-148.5 14l-45 603q-4 52 -6.5 91.5t-5 70.5t-6.5 57.5t-10.5 53t-16.5 55.5t-25 67q59 23 119.5 49t120.5 45q27 -58 42 -106.5t23 -97.5t12 -104t9 -126zM543 699 q15 42 25.5 71.5t17.5 52.5t10 43.5t3 43.5v15.5t-1 16.5q0 16 -2.5 34t-6.5 41q66 20 130.5 34.5t130.5 28.5q13 -45 19 -81.5t6 -71.5q0 -29 -4.5 -58.5t-13.5 -62.5t-22.5 -72t-31.5 -87l-67 -177q-42 11 -70.5 19t-54 17t-53 20.5t-66.5 30.5zM871 599q39 0 65.5 -26 t26.5 -64q0 -18 -7.5 -35t-20 -29.5t-29 -20t-35.5 -7.5t-35.5 7.5t-28.5 20t-19 29.5t-7 35q0 37 26 63.5t64 26.5z" />
<glyph unicode="&#xfb2d;" horiz-adv-x="1457" d="M21 1365q39 0 65.5 -26t26.5 -64q0 -39 -26.5 -66t-65.5 -27q-38 0 -64 27.5t-26 65.5q0 37 26 63.5t64 26.5zM446 202q20 -2 40.5 -3t44.5 -1q59 0 122.5 11t123.5 38t114 73t93 117q57 100 78.5 206t21.5 214q0 43 -3 85t-8 85q43 11 74 18.5t60 13t62 10.5t80 11 q10 -43 14 -93.5t4 -103.5q0 -49 -3.5 -96t-8.5 -87q-50 -370 -267 -551t-601 -181q-66 0 -136.5 5t-148.5 14l-45 603q-4 52 -6.5 91.5t-5 70.5t-6.5 57.5t-10.5 53t-16.5 55.5t-25 67q59 23 119.5 49t120.5 45q27 -58 42 -106.5t23 -97.5t12 -104t9 -126zM543 699 q15 42 25.5 71.5t17.5 52.5t10 43.5t3 43.5v15.5t-1 16.5q0 16 -2.5 34t-6.5 41q66 20 130.5 34.5t130.5 28.5q13 -45 19 -81.5t6 -71.5q0 -29 -4.5 -58.5t-13.5 -62.5t-22.5 -72t-31.5 -87l-67 -177q-42 11 -70.5 19t-54 17t-53 20.5t-66.5 30.5zM871 599q39 0 65.5 -26 t26.5 -64q0 -18 -7.5 -35t-20 -29.5t-29 -20t-35.5 -7.5t-35.5 7.5t-28.5 20t-19 29.5t-7 35q0 37 26 63.5t64 26.5z" />
<glyph unicode="&#xfb2e;" horiz-adv-x="1269" d="M1106 690q-14 -62 -31 -111t-40 -89t-54 -74t-74 -67l221 -254l-175 -156l-521 601q-15 -26 -23.5 -66.5t-12.5 -88.5t-5 -98.5t-2 -96.5q0 -16 -0.5 -39.5t-1.5 -50.5t-1.5 -55.5t-0.5 -54.5h-255q0 28 1 60.5t1.5 72t2 88t3.5 108.5q1 61 8 114t23 100.5t43 92t70 89.5 q-26 33 -46.5 64t-38 64.5t-34 71t-34.5 82.5q55 23 117.5 46t117.5 41q22 -56 42 -100t43.5 -83.5t53 -79t70.5 -86.5l191 -220q26 24 44 53.5t35 76.5q6 17 12 38t11 44l26 120l-146 25l36 209l369 -63v-129zM835 -152v-118h-469v118h469z" />
<glyph unicode="&#xfb2f;" horiz-adv-x="1269" d="M1106 690q-14 -62 -31 -111t-40 -89t-54 -74t-74 -67l221 -254l-175 -156l-521 601q-15 -26 -23.5 -66.5t-12.5 -88.5t-5 -98.5t-2 -96.5q0 -16 -0.5 -39.5t-1.5 -50.5t-1.5 -55.5t-0.5 -54.5h-255q0 28 1 60.5t1.5 72t2 88t3.5 108.5q1 61 8 114t23 100.5t43 92t70 89.5 q-26 33 -46.5 64t-38 64.5t-34 71t-34.5 82.5q55 23 117.5 46t117.5 41q22 -56 42 -100t43.5 -83.5t53 -79t70.5 -86.5l191 -220q26 24 44 53.5t35 76.5q6 17 12 38t11 44l26 120l-146 25l36 209l369 -63v-129zM835 -152v-118h-178l20 -250h-157l20 250h-174v118h469z" />
<glyph unicode="&#xfb30;" horiz-adv-x="1269" d="M1106 690q-14 -62 -31 -111t-40 -89t-54 -74t-74 -67l221 -254l-175 -156l-521 601q-15 -26 -23.5 -66.5t-12.5 -88.5t-5 -98.5t-2 -96.5q0 -16 -0.5 -39.5t-1.5 -50.5t-1.5 -55.5t-0.5 -54.5h-255q0 28 1 60.5t1.5 72t2 88t3.5 108.5q1 61 8 114t23 100.5t43 92t70 89.5 q-26 33 -46.5 64t-38 64.5t-34 71t-34.5 82.5q55 23 117.5 46t117.5 41q22 -56 42 -100t43.5 -83.5t53 -79t70.5 -86.5l191 -220q26 24 44 53.5t35 76.5q6 17 12 38t11 44l26 120l-146 25l36 209l369 -63v-129zM549 251q39 0 65.5 -26t26.5 -64q0 -18 -7.5 -35t-20 -29.5 t-29 -20t-35.5 -7.5t-35.5 7.5t-28.5 20t-19 29.5t-7 35q0 37 26 63.5t64 26.5z" />
<glyph unicode="&#xfb31;" horiz-adv-x="1157" d="M660 623q0 62 -5.5 101t-24.5 61t-55 30t-96 8q-51 0 -90 1.5t-75 6t-73.5 14t-85.5 26.5q16 54 32.5 106.5t35.5 103.5q51 -14 87.5 -22t70 -12.5t70.5 -5.5t90 -1h50q63 0 124 -14t110 -53q48 -38 78 -105t30 -175v-476h184v-217h-1037v217h580v406zM388 613 q39 0 65.5 -26t26.5 -64q0 -18 -7.5 -35t-20 -29.5t-29 -20t-35.5 -7.5t-35.5 7.5t-28.5 20t-19 29.5t-7 35q0 37 26 63.5t64 26.5z" />
<glyph unicode="&#xfb32;" horiz-adv-x="931" d="M722 1040v-351q0 -69 1.5 -117t6.5 -87t14 -74.5t23 -78.5q17 -53 31 -96t26 -81t22 -75.5t21 -79.5h-248q-5 18 -12 41t-14.5 48t-16 50.5t-15.5 49.5l-16 49q-12 -14 -27.5 -31.5t-32 -35.5t-32.5 -35.5t-31 -31.5q-27 -26 -59 -48t-71.5 -40t-88.5 -31.5t-109 -20.5 q-12 51 -22.5 101t-19.5 101q88 19 147 49.5t101 76.5l155 169v362h-228v217h495zM242 648q39 0 65.5 -26t26.5 -64q0 -18 -7.5 -35t-20 -29.5t-29 -20t-35.5 -7.5t-35.5 7.5t-28.5 20t-19 29.5t-7 35q0 37 26 63.5t64 26.5z" />
<glyph unicode="&#xfb33;" horiz-adv-x="1141" d="M427 823q-51 0 -90 1.5t-75 6t-73.5 14t-85.5 26.5q16 54 32.5 106.5t35.5 103.5q51 -14 87.5 -22t70 -12.5t70.5 -5.5t90 -1h577v-217h-202v-823h-273v823h-164zM350 613q39 0 65.5 -26t26.5 -64q0 -18 -7.5 -35t-20 -29.5t-29 -20t-35.5 -7.5t-35.5 7.5t-28.5 20 t-19 29.5t-7 35q0 37 26 63.5t64 26.5z" />
<glyph unicode="&#xfb34;" horiz-adv-x="1205" d="M457 823q-51 0 -90 1.5t-75 6t-73.5 14t-85.5 26.5q16 54 32.5 106.5t35.5 103.5q51 -14 87.5 -22t70 -12.5t70.5 -5.5t90 -1h214q63 0 124 -14t110 -53q48 -38 78 -105t30 -175v-693h-273v623q0 62 -5.5 101t-24.5 61t-55 30t-96 8h-164zM604 716q39 0 65.5 -26 t26.5 -64q0 -18 -7.5 -35t-20 -29.5t-29 -20t-35.5 -7.5t-35.5 7.5t-28.5 20t-19 29.5t-7 35q0 37 26 63.5t64 26.5zM143 304q0 43 1 78.5t3.5 68.5t7.5 65t14 69q67 -7 134 -17.5t134 -27.5q-12 -56 -16.5 -112.5t-4.5 -130.5v-297h-273v304z" />
<glyph unicode="&#xfb35;" horiz-adv-x="719" d="M579 1040v-1040h-273v823h-175v217h448zM100 613q39 0 65.5 -26t26.5 -64q0 -18 -7.5 -35t-20 -29.5t-29 -20t-35.5 -7.5t-35.5 7.5t-28.5 20t-19 29.5t-7 35q0 37 26 63.5t64 26.5z" />
<glyph unicode="&#xfb36;" horiz-adv-x="936" d="M852 823h-246l130 -823h-277l-128 824q-34 1 -63.5 3t-58.5 7.5t-61 14t-71 22.5q16 54 32.5 106.5t35.5 103.5q51 -14 87.5 -22t70 -12.5t70.5 -5.5t90 -1h389v-217zM165 613q39 0 65.5 -26t26.5 -64q0 -18 -7.5 -35t-20 -29.5t-29 -20t-35.5 -7.5t-35.5 7.5t-28.5 20 t-19 29.5t-7 35q0 37 26 63.5t64 26.5z" />
<glyph unicode="&#xfb38;" horiz-adv-x="1309" d="M540 704q24 88 55.5 182.5t63.5 181.5q57 -5 124.5 -13.5t138 -19t140.5 -23.5t132 -27q14 -56 19.5 -116t5.5 -133q0 -153 -39 -286.5t-124 -236.5q-57 -69 -125.5 -116t-144 -75.5t-156 -41t-161.5 -12.5q-60 0 -120.5 5.5t-119.5 16.5l-45 600q-4 52 -6.5 91.5 t-5 70.5t-6.5 57.5t-10.5 53t-16.5 55.5t-25 67q59 23 119.5 49t120.5 45q27 -58 42 -106.5t23 -97.5t12 -104t9 -126l34 -459q8 -1 13 -1h11q71 -2 134 13.5t116 48.5t94.5 84t68.5 120q25 63 35 130.5t10 133.5v49.5t-1 45.5q-39 10 -73 16t-78 12q-20 -54 -35.5 -100.5 t-31.5 -95.5zM667 531q39 0 65.5 -26t26.5 -64q0 -18 -7.5 -35t-20 -29.5t-29 -20t-35.5 -7.5t-35.5 7.5t-28.5 20t-19 29.5t-7 35q0 37 26 63.5t64 26.5z" />
<glyph unicode="&#xfb39;" horiz-adv-x="724" d="M602 1040v-380q0 -54 -1 -90t-4 -66t-8 -58t-13 -62l-269 39q5 30 9 55t7 53t4.5 63t1.5 84v145h-229v217h502zM109 713q39 0 65.5 -26t26.5 -64q0 -18 -7.5 -35t-20 -29.5t-29 -20t-35.5 -7.5t-35.5 7.5t-28.5 20t-19 29.5t-7 35q0 37 26 63.5t64 26.5z" />
<glyph unicode="&#xfb3a;" horiz-adv-x="1090" d="M392 823q-51 0 -90 1.5t-75 6t-73.5 14t-85.5 26.5q16 54 32.5 106.5t35.5 103.5q51 -14 87.5 -22t70 -12.5t70.5 -5.5t90 -1h445q9 -30 14.5 -52.5t8.5 -39.5q3 -18 4 -33t1 -31v-1199h-273v1138h-262zM388 613q39 0 65.5 -26t26.5 -64q0 -18 -7.5 -35t-20 -29.5 t-29 -20t-35.5 -7.5t-35.5 7.5t-28.5 20t-19 29.5t-7 35q0 37 26 63.5t64 26.5z" />
<glyph unicode="&#xfb3b;" horiz-adv-x="1096" d="M469 823q-51 0 -90 1.5t-75 6t-73.5 14t-85.5 26.5q16 54 32.5 106.5t35.5 103.5q51 -14 87.5 -22t70 -12.5t70.5 -5.5t90 -1h89q61 0 120.5 -15.5t107.5 -55.5t79.5 -108t36.5 -174q3 -56 4 -111.5t2 -115t1 -124.5v-139q0 -24 -1 -43.5t-4 -41.5t-8.5 -48.5 t-14.5 -64.5h-873v217h631q0 47 -1 98.5t-1.5 104t-2 104.5t-2.5 100q0 62 -5.5 101t-24.5 61t-55 30t-96 8h-44zM393 613q39 0 65.5 -26t26.5 -64q0 -18 -7.5 -35t-20 -29.5t-29 -20t-35.5 -7.5t-35.5 7.5t-28.5 20t-19 29.5t-7 35q0 37 26 63.5t64 26.5z" />
<glyph unicode="&#xfb3c;" horiz-adv-x="1085" d="M373 1332v-292h567q6 -22 10.5 -39t7.5 -31q5 -24 6 -45t1 -49v-216q0 -118 -47.5 -223t-141.5 -210l-256 -282l-194 165l113 128q72 81 120.5 134.5t78 96.5t42 82.5t12.5 92.5v179h-592v509h273zM365 668q39 0 65.5 -26t26.5 -64q0 -18 -7.5 -35t-20 -29.5t-29 -20 t-35.5 -7.5t-35.5 7.5t-28.5 20t-19 29.5t-7 35q0 37 26 63.5t64 26.5z" />
<glyph unicode="&#xfb3e;" horiz-adv-x="1279" d="M114 962q53 35 105 66.5t108 63.5q24 -32 41 -56.5t30 -46t23 -43t20 -45.5q84 85 177 126t183 41q63 0 121 -19t104.5 -55t79 -88.5t46.5 -119.5q11 -54 13.5 -122.5t2.5 -149.5q0 -38 0.5 -80t0.5 -101q0 -69 -2.5 -132t-5.5 -105q-2 -22 -4 -46t-6 -50h-525v217h267 q1 6 1.5 21.5t1 46t0.5 78.5v119q0 20 0.5 49.5t0.5 61.5t-1 61t-3 48q-11 81 -48 115t-106 34q-38 0 -76 -14.5t-79 -42.5q-23 -16 -44.5 -35.5t-42.5 -44.5q-17 -111 -29 -191l-21 -140t-16 -105.5t-13.5 -89t-13.5 -90t-16 -107.5h-272l26 176q9 64 18 121.5t18 114.5 t18.5 115t20.5 124q2 18 3 33t1 29q0 28 -4 50t-12 42.5t-19.5 41.5t-26.5 47zM691 613q39 0 65.5 -26t26.5 -64q0 -18 -7.5 -35t-20 -29.5t-29 -20t-35.5 -7.5t-35.5 7.5t-28.5 20t-19 29.5t-7 35q0 37 26 63.5t64 26.5z" />
<glyph unicode="&#xfb40;" horiz-adv-x="876" d="M694 1040v-139q0 -19 2 -42t6 -57t10 -82.5t14 -117t18 -161t22 -214.5q1 -17 1.5 -31.5t0.5 -27.5q0 -22 -1.5 -41t-4 -38.5t-6 -40.5t-8.5 -48h-677v217h433q0 22 -4.5 70t-12 109t-15.5 128t-15.5 127t-12 106.5t-4.5 65.5h-257v217h511zM210 613q39 0 65.5 -26 t26.5 -64q0 -18 -7.5 -35t-20 -29.5t-29 -20t-35.5 -7.5t-35.5 7.5t-28.5 20t-19 29.5t-7 35q0 37 26 63.5t64 26.5z" />
<glyph unicode="&#xfb41;" horiz-adv-x="1214" d="M767 1041q63 0 124 -14t109 -54q48 -38 75 -106.5t33 -177.5q1 -21 1.5 -44t0.5 -52t-0.5 -65t-1.5 -86q-2 -101 -39 -186t-100.5 -147.5t-149 -97.5t-185.5 -35t-185 35t-148 97.5t-100 147.5t-41 186q-1 11 -1 20.5v20.5q0 47 5.5 95t20.5 101q11 38 27.5 77t37.5 71 q-44 4 -87 14t-100 30q16 54 32.5 106.5t35.5 103.5q47 -13 81 -20.5t65 -12t63 -6t76 -1.5h33h318zM497 824q-17 -27 -27.5 -53t-18.5 -52q-14 -48 -20.5 -103.5t-6.5 -108.5q0 -30 1.5 -58t5.5 -51q7 -47 24 -84.5t43.5 -64.5t61.5 -41.5t77 -14.5t77.5 14.5t62.5 41.5 t43.5 64.5t21.5 83.5q2 21 3 47.5t1 55.5q0 32 -1 64t-3 60q-5 62 -11 101t-23.5 61t-52 30t-94.5 8h-164zM635 613q39 0 65.5 -26t26.5 -64q0 -18 -7.5 -35t-20 -29.5t-29 -20t-35.5 -7.5t-35.5 7.5t-28.5 20t-19 29.5t-7 35q0 37 26 63.5t64 26.5z" />
<glyph unicode="&#xfb43;" horiz-adv-x="1163" d="M343 1102q60 -13 127 -27.5t134.5 -30t132 -33.5t118.5 -39q53 -20 86.5 -48.5t53.5 -63.5q22 -38 30 -82.5t8 -95.5v-998h-261v960q0 42 -4.5 69t-16.5 44q-10 14 -26 24t-41 18q-40 14 -90 26t-96 23l-84 -193l136 -81l-121 -198l-322 191zM560 796q39 0 65.5 -26 t26.5 -64q0 -18 -7.5 -35t-20 -29.5t-29 -20t-35.5 -7.5t-35.5 7.5t-28.5 20t-19 29.5t-7 35q0 37 26 63.5t64 26.5z" />
<glyph unicode="&#xfb44;" horiz-adv-x="1153" d="M351 1102q93 -23 165.5 -41t131.5 -35t109.5 -33.5t98.5 -34.5q51 -20 85.5 -48t55 -64t29 -81t8.5 -97v-401q0 -26 -1.5 -48t-5.5 -48q-5 -30 -14 -69.5t-24 -101.5h-899v217h683v413q0 35 -2.5 59.5t-11.5 42t-26.5 30t-47.5 23.5q-39 14 -86 29t-107 32l-94 -195 l131 -78l-121 -198l-318 189zM607 469q39 0 65.5 -26t26.5 -64q0 -18 -7.5 -35t-20 -29.5t-29 -20t-35.5 -7.5t-35.5 7.5t-28.5 20t-19 29.5t-7 35q0 37 26 63.5t64 26.5z" />
<glyph unicode="&#xfb46;" horiz-adv-x="1191" d="M1066 999l-7 -129l-54 -197q-13 -47 -27 -86t-34 -74.5t-49 -68t-71 -65.5l165 -189q-5 -43 -13 -95t-16 -95h-850v217h545q-95 110 -190 218.5t-189 218.5q-41 48 -70 86.5t-52 76.5t-43 81t-42 99q55 23 117.5 45.5t117.5 40.5q22 -56 42 -99t43 -82t52.5 -77.5 t70.5 -86.5l174 -201q16 16 27.5 34t20.5 40.5t17 49.5t17 61l32 121l-146 31l48 206zM256 475q39 0 65.5 -26t26.5 -64q0 -18 -7.5 -35t-20 -29.5t-29 -20t-35.5 -7.5t-35.5 7.5t-28.5 20t-19 29.5t-7 35q0 37 26 63.5t64 26.5z" />
<glyph unicode="&#xfb47;" horiz-adv-x="1244" d="M451 823q-51 0 -90 1.5t-75 6t-73.5 14t-85.5 26.5q16 54 32.5 106.5t35.5 103.5q47 -13 81 -20.5t65 -12t63 -6t76 -1.5h33h595q5 -18 9 -33t7 -29q6 -27 7.5 -49.5t1.5 -52.5v-217q0 -56 -7 -103.5t-20.5 -90t-35 -82.5t-49.5 -81q-23 -36 -61 -84t-81 -99t-86 -99 t-76 -84l-194 165l135 153q51 57 85.5 98.5t57.5 76.5q19 28 30.5 52.5t18 49.5t9 52t2.5 60v179h-410zM634 699q39 0 65.5 -26t26.5 -64q0 -18 -7.5 -35t-20 -29.5t-29 -20t-35.5 -7.5t-35.5 7.5t-28.5 20t-19 29.5t-7 35q0 37 26 63.5t64 26.5zM138 304q0 43 1 78.5 t3.5 68.5t7.5 65t14 69q67 -7 134 -17.5t134 -27.5q-12 -56 -16.5 -112.5t-4.5 -130.5v-612h-273v619z" />
<glyph unicode="&#xfb48;" horiz-adv-x="1052" d="M407 823q-51 0 -90 1.5t-75 6t-73.5 14t-85.5 26.5q16 54 32.5 106.5t35.5 103.5q51 -14 87.5 -22t70 -12.5t70.5 -5.5t90 -1h121q63 0 124 -14t110 -53q48 -38 78 -105t30 -175v-693h-273v623q0 62 -5.5 101t-24.5 61t-55 30t-96 8h-71zM360 613q39 0 65.5 -26t26.5 -64 q0 -18 -7.5 -35t-20 -29.5t-29 -20t-35.5 -7.5t-35.5 7.5t-28.5 20t-19 29.5t-7 35q0 37 26 63.5t64 26.5z" />
<glyph unicode="&#xfb49;" horiz-adv-x="1457" d="M446 202q20 -2 40.5 -3t44.5 -1q59 0 122.5 11t123.5 38t114 73t93 117q57 100 78.5 206t21.5 214q0 43 -3 85t-8 85q43 11 74 18.5t60 13t62 10.5t80 11q10 -43 14 -93.5t4 -103.5q0 -49 -3.5 -96t-8.5 -87q-50 -370 -267 -551t-601 -181q-66 0 -136.5 5t-148.5 14 l-45 603q-4 52 -6.5 91.5t-5 70.5t-6.5 57.5t-10.5 53t-16.5 55.5t-25 67q59 23 119.5 49t120.5 45q27 -58 42 -106.5t23 -97.5t12 -104t9 -126zM543 699q15 42 25.5 71.5t17.5 52.5t10 43.5t3 43.5v15.5t-1 16.5q0 16 -2.5 34t-6.5 41q66 20 130.5 34.5t130.5 28.5 q13 -45 19 -81.5t6 -71.5q0 -29 -4.5 -58.5t-13.5 -62.5t-22.5 -72t-31.5 -87l-67 -177q-42 11 -70.5 19t-54 17t-53 20.5t-66.5 30.5zM871 599q39 0 65.5 -26t26.5 -64q0 -18 -7.5 -35t-20 -29.5t-29 -20t-35.5 -7.5t-35.5 7.5t-28.5 20t-19 29.5t-7 35q0 37 26 63.5 t64 26.5z" />
<glyph unicode="&#xfb4a;" horiz-adv-x="1295" d="M833 1040q63 0 124 -14t110 -53q48 -38 78 -105t30 -175v-693h-273v623q0 62 -5.5 101t-24.5 61t-55 30t-96 8h-151q-33 -69 -46 -148t-13 -155q0 -44 2 -82.5t7.5 -75.5t14 -73.5t20.5 -75.5l19 -59q-4 -42 -9.5 -80.5t-13.5 -73.5h-491v217h230q-26 77 -39 148t-13 140 q0 55 7 110.5t24 112.5q8 26 16.5 51t19.5 49q-44 4 -86.5 13.5t-98.5 29.5q16 54 32.5 106.5t35.5 103.5q51 -14 87.5 -22t70 -12.5t70.5 -5.5t90 -1h327zM709 613q39 0 65.5 -26t26.5 -64q0 -18 -7.5 -35t-20 -29.5t-29 -20t-35.5 -7.5t-35.5 7.5t-28.5 20t-19 29.5t-7 35 q0 37 26 63.5t64 26.5z" />
<glyph unicode="&#xfb4b;" horiz-adv-x="719" d="M373 1365q39 0 65.5 -26t26.5 -64q0 -39 -26.5 -66t-65.5 -27q-38 0 -64 27.5t-26 65.5q0 37 26 63.5t64 26.5zM579 1040v-1040h-273v823h-175v217h448z" />
</font>
</defs>
</svg>
